<?xml version="1.0" encoding="UTF-8"?>
<svg id="Capa_2" xmlns="http://www.w3.org/2000/svg" version="1.1" viewBox="0 0 159.1 154.7">
  <!-- Generator: Adobe Illustrator 29.4.0, SVG Export Plug-In . SVG Version: 2.1.0 Build 152)  -->
  <defs>
    <style>
      .st0 {
        fill: #ea572d;
      }
    </style>
  </defs>
  <g id="Capa_1-2">
    <g>
      <path class="st0" d="M156.6,154.7H2.5c-1.4,0-2.5-1.1-2.5-2.5s1.1-2.5,2.5-2.5h154.1c1.4,0,2.5,1.1,2.5,2.5s-1.1,2.5-2.5,2.5Z"/>
      <path class="st0" d="M11.9,141h15.4c2.9,0,5.2-2.3,5.2-5.2v-37.5c0-2.9-2.3-5.2-5.2-5.2h-15.4c-2.9,0-5.2,2.3-5.2,5.2v37.5c0,2.9,2.3,5.2,5.2,5.2Z"/>
      <path class="st0" d="M51.8,141h15.4c2.9,0,5.2-2.3,5.2-5.2v-67.6c0-2.9-2.3-5.2-5.2-5.2h-15.4c-2.9,0-5.2,2.3-5.2,5.2v67.6c0,2.9,2.3,5.2,5.2,5.2Z"/>
      <path class="st0" d="M91.8,141h15.4c2.9,0,5.2-2.3,5.2-5.2v-54.5c0-2.9-2.3-5.2-5.2-5.2h-15.4c-2.9,0-5.2,2.3-5.2,5.2v54.5c0,2.9,2.3,5.2,5.2,5.2Z"/>
      <path class="st0" d="M131.8,141h15.4c2.9,0,5.2-2.3,5.2-5.2V53.9c0-2.9-2.3-5.2-5.2-5.2h-15.4c-2.9,0-5.2,2.3-5.2,5.2v81.9c0,2.9,2.3,5.2,5.2,5.2Z"/>
      <path class="st0" d="M19.6,71.3c-5.7,0-10.4-4.7-10.4-10.4s4.7-10.4,10.4-10.4,10.4,4.7,10.4,10.4-4.7,10.4-10.4,10.4ZM19.6,55.5c-3,0-5.4,2.4-5.4,5.4s2.4,5.4,5.4,5.4,5.4-2.4,5.4-5.4-2.4-5.4-5.4-5.4Z"/>
      <path class="st0" d="M59.6,43.2c-5.7,0-10.4-4.7-10.4-10.4s4.7-10.4,10.4-10.4,10.4,4.7,10.4,10.4-4.7,10.4-10.4,10.4ZM59.6,27.4c-3,0-5.4,2.4-5.4,5.4s2.4,5.4,5.4,5.4,5.4-2.4,5.4-5.4-2.4-5.4-5.4-5.4Z"/>
      <path class="st0" d="M99.6,57.2c-5.7,0-10.4-4.7-10.4-10.4s4.7-10.4,10.4-10.4,10.4,4.7,10.4,10.4-4.7,10.4-10.4,10.4ZM99.6,41.4c-3,0-5.4,2.4-5.4,5.4s2.4,5.4,5.4,5.4,5.4-2.4,5.4-5.4-2.4-5.4-5.4-5.4Z"/>
      <path class="st0" d="M139.5,22.4c-4.7,0-8.9-3.2-10.1-7.9-.7-2.7-.3-5.5,1.2-7.9s3.7-4.1,6.4-4.7c5.6-1.4,11.2,2,12.6,7.6h0c1.4,5.6-2,11.2-7.6,12.6-.8.2-1.7.3-2.5.3h0ZM139.5,6.6c-.4,0-.9,0-1.3.2-1.4.3-2.6,1.2-3.3,2.5-.8,1.2-1,2.7-.6,4.1.7,2.9,3.7,4.7,6.6,3.9,2.9-.7,4.7-3.7,3.9-6.6-.6-2.5-2.8-4.1-5.3-4.1h0Z"/>
      <path class="st0" d="M105.5,44.1c-.7,0-1.4-.3-1.9-.9-.9-1-.8-2.6.2-3.5l28.1-24.5c1-.9,2.6-.8,3.5.2.9,1,.8,2.6-.2,3.5l-28.1,24.5c-.5.4-1.1.6-1.6.6h0Z"/>
      <path class="st0" d="M92.1,46.7c-.3,0-.6,0-.8-.1l-25.1-8.8c-1.3-.5-2-1.9-1.5-3.2.4-1.3,1.9-2,3.2-1.5l25.1,8.8c1.3.5,2,1.9,1.5,3.2-.4,1-1.3,1.7-2.3,1.7h0Z"/>
      <path class="st0" d="M26,58.9c-.8,0-1.6-.4-2-1.1-.8-1.1-.5-2.7.6-3.5l27-19c1.1-.8,2.7-.5,3.5.6.8,1.1.5,2.7-.6,3.5l-27,19c-.4.3-.9.5-1.4.5h0Z"/>
    </g>
  </g>
</svg>