<?xml version="1.0" encoding="UTF-8"?>
<svg id="Capa_2" xmlns="http://www.w3.org/2000/svg" version="1.1" viewBox="0 0 137.1 151.4">
  <!-- Generator: Adobe Illustrator 29.4.0, SVG Export Plug-In . SVG Version: 2.1.0 Build 152)  -->
  <defs>
    <style>
      .st0 {
        fill: #95c11f;
      }
    </style>
  </defs>
  <path class="st0" d="M66.3,7c-8,12.5-36.2,57.8-36.2,75.4s16.2,36.2,36.2,36.2,36.2-16.2,36.2-36.2S74.3,19.5,66.3,7ZM66,110.2h0c-15,0-27.2-12.2-27.2-27.2s1.1-2.5,2.5-2.5,2.5,1.1,2.5,2.5c0,12.3,10,22.2,22.2,22.2s2.5,1.1,2.5,2.5-1.1,2.5-2.5,2.5Z"/>
  <path class="st0" d="M66.3,137.7c-25.2,0-50.8-5.7-50.8-16.7s3.8-7.9,11.2-10.8c1.3-.5,2.7.1,3.2,1.4.5,1.3-.1,2.7-1.4,3.2-5.9,2.3-8,4.7-8,6.2,0,4.8,17.8,11.7,45.8,11.7s45.8-6.9,45.8-11.7-2.5-4.2-9.5-6.7c-1.3-.5-2-1.9-1.5-3.2.5-1.3,1.9-2,3.2-1.5,8.6,3,12.9,6.8,12.9,11.4,0,10.9-25.5,16.7-50.8,16.7h0Z"/>
  <path class="st0" d="M2.5,113.6c-.6,0-1.2-.2-1.7-.7-1-.9-1-2.5-.1-3.5,3.7-3.9,9.2-7.4,16.4-10.3,1.3-.5,2.7,0,3.3,1.4.5,1.3,0,2.7-1.4,3.3-6.4,2.6-11.5,5.8-14.6,9.1-.5.5-1.2.8-1.8.8h0Z"/>
  <path class="st0" d="M66.3,151.4c-10.6,0-20.9-1-30.4-2.9-1.3-.3-2.2-1.6-2-2.9.3-1.4,1.6-2.2,2.9-2,9.2,1.8,19.1,2.8,29.4,2.8s10-.2,14.8-.7c1.4-.1,2.6.9,2.7,2.3.1,1.4-.9,2.6-2.3,2.7-5,.5-10.2.7-15.3.7h0Z"/>
  <path class="st0" d="M125.1,137.8c-.8,0-1.6-.4-2.1-1.1-.8-1.1-.5-2.7.6-3.5,3.8-2.6,8.4-6.9,8.4-12.1s-7.2-13.1-19.8-17.9c-1.3-.5-1.9-1.9-1.4-3.2.5-1.3,1.9-1.9,3.2-1.4,14.8,5.7,23,13.7,23,22.6s-3.7,11.5-10.6,16.2c-.4.3-.9.4-1.4.4h0Z"/>
</svg>