<?xml version="1.0" encoding="UTF-8"?>
<svg id="Capa_2" data-name="Capa 2" xmlns="http://www.w3.org/2000/svg" viewBox="0 0 137.12 151.41">
  <defs>
    <style>
      .cls-1 {
        fill: #95c11f;
      }
    </style>
  </defs>
  <g id="Capa_1-2" data-name="Capa 1">
    <g>
      <g>
        <path class="cls-1" d="M66.31,123.56c-22.7,0-41.17-18.47-41.17-41.17S62.63,3.47,64.22,1.05c.92-1.4,3.25-1.4,4.17,0,1.6,2.42,39.09,59.48,39.09,81.34s-18.47,41.17-41.18,41.17ZM66.31,7.03c-7.99,12.49-36.18,57.79-36.18,75.36,0,19.95,16.23,36.18,36.18,36.18s36.18-16.23,36.18-36.18c0-17.58-28.19-62.87-36.18-75.36Z"/>
        <path class="cls-1" d="M66.05,110.23c-15.02,0-27.25-12.22-27.25-27.24,0-1.38,1.12-2.5,2.5-2.5s2.5,1.12,2.5,2.5c0,12.27,9.98,22.25,22.25,22.25,1.38,0,2.5,1.12,2.5,2.5s-1.12,2.5-2.5,2.5Z"/>
      </g>
      <path class="cls-1" d="M66.31,137.74c-25.22,0-50.75-5.73-50.75-16.68,0-4.26,3.76-7.89,11.16-10.8,1.29-.5,2.74.13,3.24,1.41.5,1.29-.13,2.74-1.41,3.24-5.89,2.32-7.99,4.7-7.99,6.15,0,4.76,17.82,11.68,45.76,11.68s45.76-6.92,45.76-11.68c0-1.56-2.5-4.25-9.54-6.73-1.3-.46-1.99-1.88-1.53-3.19.46-1.3,1.89-1.99,3.19-1.53,8.55,3,12.88,6.85,12.88,11.44,0,10.95-25.53,16.68-50.75,16.68Z"/>
      <path class="cls-1" d="M2.5,113.61c-.61,0-1.23-.22-1.71-.68-1-.94-1.05-2.53-.11-3.53,3.69-3.93,9.2-7.4,16.39-10.33,1.28-.53,2.73.09,3.26,1.37.52,1.28-.09,2.74-1.37,3.26-6.42,2.62-11.48,5.78-14.63,9.13-.49.52-1.16.79-1.82.79Z"/>
      <path class="cls-1" d="M66.31,151.41c-10.64,0-20.86-.96-30.38-2.85-1.35-.27-2.23-1.58-1.96-2.94.27-1.35,1.58-2.24,2.94-1.96,9.2,1.82,19.09,2.75,29.41,2.75,4.99,0,9.99-.22,14.85-.67,1.41-.11,2.59.89,2.72,2.26.13,1.37-.88,2.59-2.26,2.72-5.01.46-10.16.69-15.31.69Z"/>
      <path class="cls-1" d="M125.11,137.75c-.8,0-1.58-.38-2.06-1.08-.78-1.14-.49-2.69.64-3.47,3.84-2.64,8.43-6.89,8.43-12.12,0-6.53-7.22-13.06-19.81-17.91-1.29-.5-1.93-1.94-1.43-3.23.49-1.29,1.95-1.92,3.23-1.43,14.84,5.72,23.01,13.73,23.01,22.57,0,5.86-3.66,11.48-10.6,16.24-.43.3-.92.44-1.41.44Z"/>
    </g>
  </g>
</svg>