<?xml version="1.0" encoding="UTF-8" standalone="no"?>
<svg
   id="Capa_2"
   version="1.1"
   viewBox="0 0 156.4 176.5"
   sodipodi:docname="c_13e3cf16.svg"
   inkscape:version="1.4 (86a8ad7, 2024-10-11)"
   xmlns:inkscape="http://www.inkscape.org/namespaces/inkscape"
   xmlns:sodipodi="http://sodipodi.sourceforge.net/DTD/sodipodi-0.dtd"
   xmlns="http://www.w3.org/2000/svg"
   xmlns:svg="http://www.w3.org/2000/svg">
  <sodipodi:namedview
     id="namedview5"
     pagecolor="#ffffff"
     bordercolor="#000000"
     borderopacity="0.25"
     inkscape:showpageshadow="2"
     inkscape:pageopacity="0.0"
     inkscape:pagecheckerboard="0"
     inkscape:deskcolor="#d1d1d1"
     inkscape:zoom="3.2651106"
     inkscape:cx="41.346225"
     inkscape:cy="65.082021"
     inkscape:window-width="1920"
     inkscape:window-height="1017"
     inkscape:window-x="1912"
     inkscape:window-y="-8"
     inkscape:window-maximized="1"
     inkscape:current-layer="Capa_2" />
  <!-- Generator: Adobe Illustrator 29.4.0, SVG Export Plug-In . SVG Version: 2.1.0 Build 152)  -->
  <defs
     id="defs1">
    <style
       id="style1">
      .st0 {
        fill: #fff;
      }

      .st1 {
        fill: #36a9e1;
      }
    </style>
  </defs>
  <polygon
     class="st1"
     points="75.7 73.9 22.4 163.8 23.7 173.5 129.7 174 135.6 166.5 80.7 74.7 75.7 73.9"
     id="polygon1" />
  <path
     class="st1"
     d="M119.8,111.2h10.9c11.2,0,20.4-9.1,20.4-20.4s-5.3-16-13.2-19c-1.2-.5-1.9-1.7-1.7-3,.6-2.9.9-5.8.9-8.8,0-23.9-19.5-43.4-43.4-43.4s-34.6,11.5-40.8,28.7c-.2.7-.8,1.2-1.4,1.5-.7.3-1.4.3-2.1,0-2.8-1.2-5.7-1.8-8.7-1.8-12.5,0-22.7,10.2-22.7,22.7s0,1.5.1,2.2c.1,1.1-.5,2.1-1.5,2.6-7,3.5-11.3,10.5-11.3,18.2,0,11.2,9.1,20.4,20.4,20.4h94.1Z"
     id="path1" />
  <path
     class="st1"
     d="M118.3,116.6H25.7C11.5,116.6,0,105,0,90.9s4.8-17.5,12.7-22.1c0-.3,0-.6,0-.9,0-15.5,12.6-28,28-28s5.6.4,8.2,1.2c7.6-17.9,25.3-29.7,44.8-29.7s48.7,21.9,48.7,48.7-.2,5.2-.6,7.7c8.8,4.3,14.6,13.3,14.6,23.1,0,14.2-11.5,25.7-25.7,25.7h0s-10.9,0-10.9,0"
     id="path2" />
  <path
     class="st1"
     d="M 13.4,74.1 C 12.6,74.1 11.8,73.7 11.2,73 5.7,65.5 3.4,58.241411 3.4,47.1 3.5,21.1 24.6,0 50.5,0 c 21.02861,0 35.392441,15.307559 33.2,17.5 -1.1,1.1 -2.7,1 -3.8,0 C 52.113474,-10.982836 8.4476276,11.259774 8.7,47.2 c 0.1192309,16.979615 10.676393,21.982485 6.2,26.5 -0.5,0.3 -1,0.5 -1.6,0.5 z"
     id="path3"
     sodipodi:nodetypes="cccssczccc" />
  <path
     class="st0"
     d="M78.2,76.2c.6,0,2.2.2,3.1,1.8l50.9,88.2c.9,1.6.3,3,0,3.6-.3.5-1.2,1.8-3.1,1.8H27.3c-1.9,0-2.8-1.2-3.1-1.8s-.9-1.9,0-3.6l50.9-88.2c.9-1.6,2.5-1.8,3.1-1.8M78.2,71.2c-2.9,0-5.8,1.4-7.4,4.3l-50.9,88.2c-3.3,5.7.8,12.8,7.4,12.8h101.9c6.6,0,10.7-7.1,7.4-12.8l-50.9-88.2c-1.6-2.8-4.5-4.3-7.4-4.3h0Z"
     id="path4" />
  <path
     class="st0"
     d="M78.2,144.3c-1.4,0-2.5-1.1-2.5-2.5v-41c0-1.4,1.1-2.5,2.5-2.5s2.5,1.1,2.5,2.5v41c0,1.4-1.1,2.5-2.5,2.5Z"
     id="path5" />
  <ellipse
     class="st0"
     cx="78.2"
     cy="155.8"
     rx="4.2"
     ry="4.3"
     id="ellipse5" />
</svg>
