<?xml version="1.0" encoding="UTF-8"?>
<svg id="Capa_2" data-name="Capa 2" xmlns="http://www.w3.org/2000/svg" viewBox="0 0 156.44 176.54">
  <defs>
    <style>
      .cls-1 {
        fill: #36a9e1;
      }
    </style>
  </defs>
  <g id="Capa_1-2" data-name="Capa 1">
    <g>
      <g>
        <path class="cls-1" d="M130.75,116.57h-10.94c-1.47,0-2.66-1.19-2.66-2.66s1.19-2.66,2.66-2.66h10.94c11.23,0,20.37-9.14,20.37-20.37,0-8.36-5.29-16.01-13.17-19.02-1.22-.47-1.92-1.74-1.66-3.02.59-2.88.89-5.83.89-8.78,0-23.93-19.47-43.41-43.4-43.41-18.19,0-34.58,11.52-40.78,28.67-.25.69-.76,1.24-1.43,1.53-.67.29-1.43.3-2.1.02-2.78-1.16-5.72-1.75-8.74-1.75-12.53,0-22.72,10.19-22.72,22.72,0,.74.04,1.47.11,2.19.1,1.09-.48,2.14-1.46,2.63-6.99,3.5-11.34,10.48-11.34,18.22,0,11.23,9.14,20.37,20.37,20.37h14.9c1.47,0,2.66,1.19,2.66,2.66s-1.19,2.66-2.66,2.66h-14.9c-14.17,0-25.69-11.53-25.69-25.7,0-9.17,4.83-17.49,12.71-22.12-.01-.3-.02-.61-.02-.91,0-15.46,12.58-28.04,28.04-28.04,2.81,0,5.57.41,8.23,1.23,7.59-17.88,25.28-29.71,44.82-29.71,26.87,0,48.73,21.86,48.73,48.73,0,2.58-.21,5.17-.61,7.72,8.78,4.27,14.55,13.29,14.55,23.11,0,14.17-11.53,25.7-25.7,25.7Z"/>
        <path class="cls-1" d="M13.4,74.11c-.82,0-1.64-.38-2.16-1.1-5.46-7.53-7.79-15.29-7.79-25.94C3.46,21.12,24.58,0,50.54,0c12.52,0,24.3,4.86,33.19,13.69,1.04,1.04,1.05,2.72.01,3.76-1.04,1.04-2.72,1.05-3.77.01-7.88-7.83-18.33-12.14-29.43-12.14C27.51,5.32,8.78,24.05,8.78,47.07c0,9.56,1.96,16.17,6.77,22.81.86,1.19.6,2.85-.59,3.72-.47.34-1.02.51-1.56.51Z"/>
      </g>
      <path class="cls-1" d="M78.22,76.24c.62,0,2.15.17,3.07,1.77l50.93,88.21c.92,1.6.31,3.01,0,3.55-.31.53-1.22,1.77-3.07,1.77H27.29c-1.85,0-2.76-1.24-3.07-1.77-.31-.53-.92-1.95,0-3.55l50.93-88.21c.92-1.6,2.46-1.77,3.07-1.77M78.22,71.24c-2.88,0-5.76,1.42-7.4,4.27l-50.93,88.21c-3.29,5.7.82,12.82,7.4,12.82h101.86c6.58,0,10.69-7.12,7.4-12.82l-50.93-88.21c-1.64-2.85-4.52-4.27-7.4-4.27h0Z"/>
      <g>
        <path class="cls-1" d="M78.22,144.26c-1.38,0-2.5-1.12-2.5-2.5v-40.97c0-1.38,1.12-2.5,2.5-2.5s2.5,1.12,2.5,2.5v40.97c0,1.38-1.12,2.5-2.5,2.5Z"/>
        <ellipse class="cls-1" cx="78.22" cy="155.83" rx="4.25" ry="4.26"/>
      </g>
    </g>
  </g>
</svg>