<?xml version="1.0" encoding="UTF-8"?>
<svg id="Capa_2" data-name="Capa 2" xmlns="http://www.w3.org/2000/svg" viewBox="0 0 156.44 176.55">
  <defs>
    <style>
      .cls-1 {
        fill: #36a9e1;
      }
    </style>
  </defs>
  <g id="Capa_1-2" data-name="Capa 1">
    <g>
      <g>
        <path class="cls-1" d="M130.75,116.57h-10.94c-1.47,0-2.66-1.19-2.66-2.66s1.19-2.66,2.66-2.66h10.94c11.23,0,20.37-9.14,20.37-20.37,0-8.36-5.29-16.01-13.17-19.02-1.22-.47-1.92-1.74-1.66-3.02.59-2.88.89-5.83.89-8.78,0-23.93-19.47-43.41-43.4-43.41-18.19,0-34.58,11.52-40.78,28.67-.25.68-.77,1.24-1.43,1.53-.67.29-1.43.3-2.1.02-2.78-1.16-5.72-1.75-8.74-1.75-12.53,0-22.72,10.19-22.72,22.72,0,.74.04,1.47.11,2.19.1,1.09-.48,2.14-1.46,2.63-6.99,3.5-11.34,10.48-11.34,18.22,0,11.23,9.14,20.37,20.37,20.37h14.9c1.47,0,2.66,1.19,2.66,2.66s-1.19,2.66-2.66,2.66h-14.9c-14.17,0-25.69-11.53-25.69-25.7,0-9.17,4.83-17.49,12.71-22.12-.01-.3-.02-.61-.02-.91,0-15.46,12.58-28.04,28.04-28.04,2.81,0,5.57.41,8.23,1.23,7.59-17.88,25.28-29.71,44.82-29.71,26.87,0,48.73,21.86,48.73,48.73,0,2.58-.21,5.17-.61,7.71,8.78,4.27,14.55,13.29,14.55,23.11,0,14.17-11.53,25.7-25.7,25.7Z"/>
        <path class="cls-1" d="M13.4,74.11c-.82,0-1.64-.38-2.16-1.1-5.46-7.53-7.79-15.29-7.79-25.94C3.46,21.12,24.58,0,50.54,0c12.52,0,24.3,4.86,33.19,13.69,1.04,1.04,1.05,2.72.01,3.76-1.04,1.04-2.72,1.05-3.77.01-7.88-7.83-18.33-12.14-29.43-12.14C27.51,5.32,8.78,24.05,8.78,47.07c0,9.56,1.96,16.17,6.77,22.81.86,1.19.6,2.85-.59,3.72-.47.34-1.02.51-1.56.51Z"/>
      </g>
      <path class="cls-1" d="M54.46,176.55c-.46,0-.92-.12-1.33-.36-1.1-.64-1.59-1.96-1.19-3.16l15.67-46.3h-17.53c-.88,0-1.7-.43-2.2-1.15-.5-.72-.6-1.65-.29-2.46l15.62-40.43c.53-1.37,2.07-2.05,3.44-1.52,1.37.53,2.05,2.07,1.52,3.44l-14.23,36.81h17.36c.86,0,1.66.41,2.16,1.1.5.7.63,1.59.36,2.41l-12.61,37.24,46.54-52.84-24.99-.28c-.91-.01-1.76-.49-2.24-1.27-.48-.78-.52-1.75-.12-2.57l13.91-28.29h-21.11c-1.47,0-2.66-1.19-2.66-2.66s1.19-2.66,2.66-2.66h25.38c.92,0,1.77.47,2.26,1.25.49.78.53,1.76.13,2.58l-13.94,28.34,26.58.3c1.04.01,1.98.63,2.4,1.58.42.95.25,2.06-.44,2.84l-59.15,67.15c-.52.59-1.25.9-2,.9Z"/>
    </g>
  </g>
</svg>