<?xml version="1.0" encoding="UTF-8"?>
<svg id="Capa_2" xmlns="http://www.w3.org/2000/svg" version="1.1" viewBox="0 0 156.4 176.6">
  <!-- Generator: Adobe Illustrator 29.4.0, SVG Export Plug-In . SVG Version: 2.1.0 Build 152)  -->
  <defs>
    <style>
      .st0 {
        fill: #36a9e1;
      }
    </style>
  </defs>
  <path class="st0" d="M141.9,67.8c.4-2.5.6-5.1.6-7.7,0-26.9-21.9-48.7-48.7-48.7s-7.6.5-11.2,1.3C73.9,4.5,62.5,0,50.5,0,24.6,0,3.5,21.1,3.5,47.1c0,9.6,1.9,16.9,6.3,23.7-6.1,4.8-9.7,12.1-9.7,20.1,0,14.2,11.5,25.7,25.7,25.7h28l16.6-42.4h24.4l2,2.8-13.7,29.2,4.7.9,24.4.9-7.6,8.6h26.3c14.2,0,25.7-11.5,25.7-25.7s-5.8-18.8-14.5-23.1ZM49,41c-2.7-.8-5.4-1.2-8.2-1.2-14.7,0-26.7,11.3-27.9,25.7-2.8-5.3-4-11-4-18.4C8.8,24.1,27.5,5.3,50.5,5.3s18.7,3.2,26.1,9.2c-12.2,4.6-22.4,14.1-27.7,26.6Z"/>
  <path class="st0" d="M113.6,104.1l-26.6-.3,13.9-28.3c.4-.8.4-1.8-.1-2.6-.5-.8-1.3-1.2-2.3-1.2h-31l-4.4,11s0,0,0,0l-.2.5h0s-15.4,39.9-15.4,39.9c-.3.8-.2,1.7.3,2.5.5.7,1.3,1.2,2.2,1.2h17.5l-15.7,46.3c-.4,1.2,0,2.5,1.2,3.2.4.2.9.4,1.3.4h0c.8,0,1.5-.3,2-.9l59.2-67.2c.7-.8.9-1.9.4-2.8-.4-.9-1.4-1.6-2.4-1.6ZM61.2,162.2l12.6-37.2c.3-.8.1-1.7-.4-2.4-.5-.7-1.3-1.1-2.2-1.1h-17.4l14.2-36.8,3-7.7s1.9,0,2.1,0h21.1l-13.9,28.3c-.4.8-.4,1.8.1,2.6.5.8,1.3,1.3,2.2,1.3l25,.3-46.5,52.8Z"/>
</svg>