<?xml version="1.0" encoding="UTF-8"?>
<svg id="Capa_2" data-name="Capa 2" xmlns="http://www.w3.org/2000/svg" viewBox="0 0 155.15 164.9">
  <defs>
    <style>
      .cls-1 {
        fill: #95c11f;
      }
    </style>
  </defs>
  <g id="Capa_1-2" data-name="Capa 1">
    <g>
      <path class="cls-1" d="M99.46,50.14c-1.38,0-2.49-1.12-2.49-2.49V4.87c0-1.38,1.12-2.49,2.49-2.49s2.49,1.12,2.49,2.49v42.77c0,1.38-1.12,2.49-2.49,2.49Z"/>
      <path class="cls-1" d="M107.49,37.24c-3.08,0-6.24-.73-9.39-2.78-.71-.46-1.14-1.25-1.14-2.09V4.87c0-.91.5-1.76,1.3-2.19.8-.44,1.78-.4,2.55.1,5.36,3.48,10.72,1.74,16.93-.28,6.49-2.1,13.84-4.49,21.19.28.71.46,1.14,1.25,1.14,2.09v27.5c0,.91-.5,1.76-1.3,2.19-.8.44-1.78.4-2.55-.1-5.36-3.48-10.72-1.74-16.93.28-3.7,1.2-7.69,2.5-11.8,2.5ZM101.96,30.93c4.99,2.58,10.03.94,15.8-.94,5.35-1.73,11.29-3.67,17.34-1.61V6.3c-4.99-2.57-10.02-.93-15.8.94-5.35,1.73-11.29,3.67-17.34,1.61v22.09Z"/>
      <path class="cls-1" d="M94.19,164.9H2.49c-.85,0-1.65-.44-2.1-1.15-.46-.72-.52-1.62-.15-2.4L46.08,63.26c.41-.88,1.29-1.44,2.26-1.44s1.85.56,2.26,1.44l45.85,98.09c.36.77.3,1.68-.15,2.4-.46.72-1.25,1.15-2.11,1.15ZM6.42,159.91h83.85l-41.93-89.7L6.42,159.91Z"/>
      <path class="cls-1" d="M152.66,164.9H46.27c-1.38,0-2.49-1.12-2.49-2.49s1.12-2.49,2.49-2.49h102.55l-49.36-110.67-27.52,61.71c-.56,1.26-2.04,1.83-3.29,1.26-1.26-.56-1.82-2.04-1.26-3.29l29.8-66.81c.4-.9,1.29-1.48,2.28-1.48s1.88.58,2.28,1.48l53.2,119.29c.34.77.27,1.66-.18,2.37-.46.71-1.25,1.14-2.09,1.14Z"/>
      <path class="cls-1" d="M41.69,97.18c-.43,0-.85-.11-1.24-.33l-5.95-3.39c-1.2-.68-1.61-2.21-.93-3.4.68-1.2,2.21-1.62,3.4-.93l4.72,2.69,5.41-3.09c.77-.43,1.71-.43,2.47,0l5.42,3.09,4.72-2.69c1.2-.68,2.72-.26,3.4.93.68,1.2.26,2.72-.93,3.4l-5.96,3.39c-.77.43-1.7.43-2.47,0l-5.42-3.09-5.42,3.09c-.38.22-.81.33-1.23.33Z"/>
      <path class="cls-1" d="M106.52,79.17c-.41,0-.81-.1-1.18-.3l-5.88-3.15-5.88,3.15c-.74.39-1.62.39-2.36,0l-6.38-3.42c-1.21-.65-1.67-2.16-1.02-3.38.65-1.21,2.16-1.67,3.38-1.02l5.2,2.79,5.88-3.16c.74-.39,1.62-.39,2.36,0l5.88,3.16,5.2-2.79c1.21-.65,2.73-.19,3.38,1.02.65,1.21.19,2.73-1.02,3.38l-6.38,3.42c-.37.2-.77.3-1.18.3Z"/>
    </g>
  </g>
</svg>