<?xml version="1.0" encoding="UTF-8"?>
<svg id="Capa_2" xmlns="http://www.w3.org/2000/svg" version="1.1" viewBox="0 0 155.1 164.9">
  <!-- Generator: Adobe Illustrator 29.4.0, SVG Export Plug-In . SVG Version: 2.1.0 Build 152)  -->
  <defs>
    <style>
      .st0 {
        fill: #95c11f;
      }

      .st1 {
        fill: #fff;
      }
    </style>
  </defs>
  <g id="Capa_1-2">
    <g>
      <path class="st0" d="M99.5,50.1c-1.4,0-2.5-1.1-2.5-2.5V4.9c0-1.4,1.1-2.5,2.5-2.5s2.5,1.1,2.5,2.5v42.8c0,1.4-1.1,2.5-2.5,2.5h0Z"/>
      <path class="st0" d="M107.5,37.2c-3.1,0-6.2-.7-9.4-2.8-.7-.5-1.1-1.2-1.1-2.1V4.9c0-.9.5-1.8,1.3-2.2.8-.4,1.8-.4,2.6,0,5.4,3.5,10.7,1.7,16.9-.3,6.5-2.1,13.8-4.5,21.2.3.7.5,1.1,1.2,1.1,2.1v27.5c0,.9-.5,1.8-1.3,2.2-.8.4-1.8.4-2.6,0-5.4-3.5-10.7-1.7-16.9.3-3.7,1.2-7.7,2.5-11.8,2.5Z"/>
      <path class="st0" d="M94.2,164.9H2.5c-.9,0-1.6-.4-2.1-1.1-.5-.7-.5-1.6-.2-2.4L46.1,63.3c.4-.9,1.3-1.4,2.3-1.4s1.8.6,2.3,1.4l45.8,98.1c.4.8.3,1.7-.2,2.4-.5.7-1.2,1.1-2.1,1.1h0ZM6.4,159.9h83.8l-41.9-89.7L6.4,159.9Z"/>
      <path class="st0" d="M152.7,164.9H46.3c-1.4,0-2.5-1.1-2.5-2.5s1.1-2.5,2.5-2.5h102.6l-49.4-110.7-27.5,61.7c-.6,1.3-2,1.8-3.3,1.3-1.3-.6-1.8-2-1.3-3.3l29.8-66.8c.4-.9,1.3-1.5,2.3-1.5s1.9.6,2.3,1.5l53.2,119.3c.3.8.3,1.7-.2,2.4-.5.7-1.2,1.1-2.1,1.1h0Z"/>
      <path class="st0" d="M41.7,97.2c-.4,0-.8-.1-1.2-.3l-6-3.4c-1.2-.7-1.6-2.2-.9-3.4.7-1.2,2.2-1.6,3.4-.9l4.7,2.7,5.4-3.1c.8-.4,1.7-.4,2.5,0l5.4,3.1,4.7-2.7c1.2-.7,2.7-.3,3.4.9.7,1.2.3,2.7-.9,3.4l-6,3.4c-.8.4-1.7.4-2.5,0l-5.4-3.1-5.4,3.1c-.4.2-.8.3-1.2.3h0Z"/>
      <path class="st0" d="M106.5,79.2c-.4,0-.8,0-1.2-.3l-5.9-3.2-5.9,3.2c-.7.4-1.6.4-2.4,0l-6.4-3.4c-1.2-.7-1.7-2.2-1-3.4.7-1.2,2.2-1.7,3.4-1l5.2,2.8,5.9-3.2c.7-.4,1.6-.4,2.4,0l5.9,3.2,5.2-2.8c1.2-.7,2.7-.2,3.4,1,.7,1.2.2,2.7-1,3.4l-6.4,3.4c-.4.2-.8.3-1.2.3Z"/>
    </g>
  </g>
  <polygon class="st0" points="2.4 162.2 35.7 91.2 41.6 94.3 48.3 91.2 54.9 95 60.7 91.2 93.6 162.2 2.4 162.2"/>
  <polygon class="st0" points="70.6 107.2 86.9 72.9 93.6 76.8 100.8 72.9 106.7 76.1 111.9 72.9 151.3 159.9 151.3 162.2 95.2 162.2 70.6 107.2"/>
  <polygon class="st1" points="69.6 103.9 96.7 164.9 88.9 164.9 66.4 110.1 69.6 103.9"/>
</svg>