<?xml version="1.0" encoding="UTF-8"?>
<svg id="Capa_2" data-name="Capa 2" xmlns="http://www.w3.org/2000/svg" viewBox="0 0 165.18 178.25">
  <defs>
    <style>
      .cls-1 {
        fill: #36a9e1;
      }
    </style>
  </defs>
  <g id="Capa_1-2" data-name="Capa 1">
    <g>
      <path class="cls-1" d="M154.98,128.87h-18.42v4.99h15.93v19.37h-15.93v4.99h18.42c1.38,0,2.5-1.12,2.5-2.5v-24.36c0-1.38-1.12-2.5-2.5-2.5Z"/>
      <g>
        <path class="cls-1" d="M28.62,57.25C12.84,57.25,0,44.41,0,28.62S12.84,0,28.62,0s28.62,12.84,28.62,28.62-12.84,28.62-28.62,28.62ZM28.62,4.99C15.59,4.99,4.99,15.59,4.99,28.62s10.6,23.63,23.63,23.63,23.63-10.6,23.63-23.63S41.66,4.99,28.62,4.99Z"/>
        <path class="cls-1" d="M136.56,57.25c-15.78,0-28.62-12.84-28.62-28.62S120.78,0,136.56,0s28.62,12.84,28.62,28.62-12.84,28.62-28.62,28.62ZM136.56,4.99c-13.03,0-23.63,10.6-23.63,23.63s10.6,23.63,23.63,23.63,23.63-10.6,23.63-23.63-10.6-23.63-23.63-23.63Z"/>
      </g>
      <path class="cls-1" d="M116.77,158.21H48.41c-1.38,0-2.49-1.12-2.49-2.5v-24.36c0-1.38,1.12-2.5,2.49-2.5h68.36c1.38,0,2.5,1.12,2.5,2.5v24.36c0,1.38-1.12,2.5-2.5,2.5ZM50.91,153.22h63.37v-19.37h-63.37v19.37Z"/>
      <path class="cls-1" d="M129.19,108.83H36c-5.44,0-9.87,4.43-9.87,9.87v49.67c0,5.44,4.43,9.87,9.87,9.87h93.19c5.44,0,9.87-4.43,9.87-9.87v-49.67c0-5.44-4.43-9.87-9.87-9.87ZM134.06,168.37c0,2.69-2.19,4.88-4.88,4.88H36c-2.69,0-4.88-2.19-4.88-4.88v-49.67c0-2.69,2.19-4.88,4.88-4.88h93.19c2.69,0,4.88,2.19,4.88,4.88v49.67Z"/>
      <path class="cls-1" d="M119.67,108.83c-5.32-15.37-19.92-26.44-37.08-26.44s-31.76,11.07-37.08,26.44c-.56,1.62-1.03,3.29-1.37,4.99h5.12c.4-1.72.93-3.39,1.58-4.99,5.08-12.56,17.39-21.45,31.75-21.45s26.67,8.89,31.75,21.45c.65,1.61,1.18,3.28,1.58,4.99h5.12c-.35-1.71-.81-3.37-1.37-4.99Z"/>
      <path class="cls-1" d="M67.81,31.12h-13.05c-1.38,0-2.5-1.12-2.5-2.5s1.12-2.49,2.5-2.49h13.05c1.38,0,2.49,1.12,2.49,2.49s-1.12,2.5-2.49,2.5Z"/>
      <path class="cls-1" d="M110.43,31.12h-13.05c-1.38,0-2.5-1.12-2.5-2.5s1.12-2.49,2.5-2.49h13.05c1.38,0,2.49,1.12,2.49,2.49s-1.12,2.5-2.49,2.5Z"/>
      <path class="cls-1" d="M72.8,86.26V14.79c0-5.23,4.56-9.79,9.79-9.79s9.79,4.39,9.79,9.79v71.48h4.99V14.79C97.38,6.63,90.74,0,82.59,0c-3.95,0-7.66,1.54-10.46,4.33s-4.33,6.51-4.33,10.46v71.48h4.99Z"/>
    </g>
  </g>
</svg>