<?xml version="1.0" encoding="UTF-8"?>
<svg id="Capa_2" xmlns="http://www.w3.org/2000/svg" version="1.1" viewBox="0 0 165.2 178.2">
  <!-- Generator: Adobe Illustrator 29.4.0, SVG Export Plug-In . SVG Version: 2.1.0 Build 152)  -->
  <defs>
    <style>
      .st0 {
        fill: #36a9e1;
      }
    </style>
  </defs>
  <g id="Capa_1-2">
    <g>
      <path class="st0" d="M136.6,153.2v5h18.4c1.4,0,2.5-1.1,2.5-2.5v-24.4c0-1.4-1.1-2.5-2.5-2.5h0s-18.4,0-18.4,0v5"/>
      <g>
        <path class="st0" d="M28.6,57.2C12.8,57.2,0,44.4,0,28.6S12.8,0,28.6,0s28.6,12.8,28.6,28.6-12.8,28.6-28.6,28.6h0Z"/>
        <path class="st0" d="M136.6,57.2c-15.8,0-28.6-12.8-28.6-28.6S120.8,0,136.6,0s28.6,12.8,28.6,28.6-12.8,28.6-28.6,28.6h0Z"/>
      </g>
      <path class="st0" d="M116.8,158.2H48.4c-1.4,0-2.5-1.1-2.5-2.5v-24.4c0-1.4,1.1-2.5,2.5-2.5h68.4c1.4,0,2.5,1.1,2.5,2.5v24.4c0,1.4-1.1,2.5-2.5,2.5Z"/>
      <path class="st0" d="M129.2,108.8H36c-5.4,0-9.9,4.4-9.9,9.9v49.7c0,5.4,4.4,9.9,9.9,9.9h93.2c5.4,0,9.9-4.4,9.9-9.9v-49.7c0-5.4-4.4-9.9-9.9-9.9ZM134.1,168.4c0,2.7-2.2,4.9-4.9,4.9H36c-2.7,0-4.9-2.2-4.9-4.9v-49.7c0-2.7,2.2-4.9,4.9-4.9h93.2c2.7,0,4.9,2.2,4.9,4.9v49.7h0Z"/>
      <path class="st0" d="M114.3,108.8c.7,1.6,1.2,3.3,1.6,5h5.1c-.3-1.7-.8-3.4-1.4-5-5.3-15.4-19.9-26.4-37.1-26.4s-31.8,11.1-37.1,26.4c-.6,1.6-1,3.3-1.4,5h5.1c.4-1.7.9-3.4,1.6-5"/>
      <path class="st0" d="M67.8,31.1h-13c-1.4,0-2.5-1.1-2.5-2.5s1.1-2.5,2.5-2.5h13c1.4,0,2.5,1.1,2.5,2.5s-1.1,2.5-2.5,2.5Z"/>
      <path class="st0" d="M110.4,31.1h-13.1c-1.4,0-2.5-1.1-2.5-2.5s1.1-2.5,2.5-2.5h13.1c1.4,0,2.5,1.1,2.5,2.5s-1.1,2.5-2.5,2.5Z"/>
      <path class="st0" d="M72.8,86.3V14.8c0-5.2,4.6-9.8,9.8-9.8s9.8,4.4,9.8,9.8v71.5h5V14.8c0-8.2-6.6-14.8-14.8-14.8s-7.7,1.5-10.5,4.3-4.3,6.5-4.3,10.5v71.5h5Z"/>
    </g>
  </g>
</svg>