<?xml version="1.0" encoding="UTF-8"?>
<svg id="Capa_2" data-name="Capa 2" xmlns="http://www.w3.org/2000/svg" viewBox="0 0 104.69 137.4">
  <defs>
    <style>
      .cls-1 {
        fill: #95c11f;
      }
    </style>
  </defs>
  <g id="Capa_1-2" data-name="Capa 1">
    <g>
      <path class="cls-1" d="M86.42,137.4H18.27c-1.23,0-2.28-.9-2.47-2.12L.03,31.55c-.11-.72.1-1.45.57-2,.47-.55,1.17-.87,1.89-.87h99.7c.73,0,1.42.32,1.89.87.47.55.68,1.28.57,2l-15.77,103.73c-.18,1.22-1.23,2.12-2.47,2.12ZM20.41,132.41h63.87l15.01-98.74H5.4l15.01,98.74Z"/>
      <path class="cls-1" d="M102.2,17.51H2.49c-1.38,0-2.49-1.12-2.49-2.49s1.12-2.49,2.49-2.49h99.7c1.38,0,2.49,1.12,2.49,2.49s-1.12,2.49-2.49,2.49Z"/>
      <path class="cls-1" d="M65.98,17.51h-27.27c-.8,0-1.55-.38-2.02-1.03-.47-.64-.6-1.47-.36-2.23l4.04-12.52c.33-1.03,1.29-1.73,2.38-1.73h19.19c1.08,0,2.04.7,2.38,1.73l4.04,12.52c.24.76.11,1.59-.36,2.23-.47.65-1.22,1.03-2.02,1.03ZM42.14,12.52h20.42l-2.43-7.53h-15.55l-2.43,7.53Z"/>
      <path class="cls-1" d="M52.35,121.07c-1.38,0-2.49-1.12-2.49-2.49V45.24c0-1.38,1.12-2.49,2.49-2.49s2.49,1.12,2.49,2.49v73.34c0,1.38-1.12,2.49-2.49,2.49Z"/>
      <g>
        <path class="cls-1" d="M36.04,121.07c-1.22,0-2.29-.9-2.47-2.14l-10.17-71.44c-.19-1.36.76-2.63,2.12-2.82,1.36-.18,2.63.75,2.82,2.12l10.17,71.44c.19,1.36-.75,2.63-2.12,2.82-.12.02-.24.02-.35.02Z"/>
        <path class="cls-1" d="M68.65,121.07c-.12,0-.23,0-.35-.02-1.36-.19-2.31-1.46-2.12-2.82l10.17-71.44c.19-1.36,1.46-2.31,2.82-2.12,1.36.19,2.31,1.46,2.12,2.82l-10.17,71.44c-.18,1.24-1.24,2.14-2.47,2.14Z"/>
      </g>
    </g>
  </g>
</svg>