<?xml version="1.0" encoding="UTF-8"?>
<svg id="Capa_2" xmlns="http://www.w3.org/2000/svg" version="1.1" viewBox="0 0 104.7 137.4">
  <!-- Generator: Adobe Illustrator 29.4.0, SVG Export Plug-In . SVG Version: 2.1.0 Build 152)  -->
  <defs>
    <style>
      .st0 {
        fill: #95c11f;
      }

      .st1 {
        fill: #fff;
      }
    </style>
  </defs>
  <g id="Capa_1-2">
    <g>
      <path class="st0" d="M86.4,137.4H18.3c-1.2,0-2.3-.9-2.5-2.1L0,31.5c-.1-.7,0-1.5.6-2s1.2-.9,1.9-.9h99.7c.7,0,1.4.3,1.9.9.5.5.7,1.3.6,2l-15.8,103.7c-.2,1.2-1.2,2.1-2.5,2.1h0Z"/>
      <path class="st0" d="M102.2,20.5H2.5c-1.4,0-2.5-1.8-2.5-4s1.1-4,2.5-4h99.7c1.4,0,2.5,1.8,2.5,4s-1.1,4-2.5,4h0Z"/>
      <path class="st0" d="M66,17.5h-27.3c-.8,0-1.5-.4-2-1-.5-.6-.6-1.5-.4-2.2l4-12.5C40.7.7,41.7,0,42.8,0h19.2C63,0,64,.7,64.3,1.7l4,12.5c.2.8.1,1.6-.4,2.2-.5.6-1.2,1-2,1ZM42.1,12.5h20.4l-2.4-7.5h-15.5l-2.4,7.5h0Z"/>
      <path class="st1" d="M52.3,121.1c-1.4,0-2.5-1.1-2.5-2.5V45.2c0-1.4,1.1-2.5,2.5-2.5s2.5,1.1,2.5,2.5v73.3c0,1.4-1.1,2.5-2.5,2.5Z"/>
      <g>
        <path class="st1" d="M36,121.1c-1.2,0-2.3-.9-2.5-2.1l-10.2-71.4c-.2-1.4.8-2.6,2.1-2.8,1.4-.2,2.6.8,2.8,2.1l10.2,71.4c.2,1.4-.8,2.6-2.1,2.8-.1,0-.2,0-.4,0Z"/>
        <path class="st1" d="M68.7,121.1c-.1,0-.2,0-.3,0-1.4-.2-2.3-1.5-2.1-2.8l10.2-71.4c.2-1.4,1.5-2.3,2.8-2.1,1.4.2,2.3,1.5,2.1,2.8l-10.2,71.4c-.2,1.2-1.2,2.1-2.5,2.1Z"/>
      </g>
    </g>
  </g>
</svg>