<?xml version="1.0" encoding="UTF-8"?>
<svg id="Capa_2" xmlns="http://www.w3.org/2000/svg" version="1.1" viewBox="0 0 109.4 73.8">
  <!-- Generator: Adobe Illustrator 29.4.0, SVG Export Plug-In . SVG Version: 2.1.0 Build 152)  -->
  <defs>
    <style>
      .st0 {
        fill: #95c11f;
      }
    </style>
  </defs>
  <path class="st0" d="M106.8,5.4c-2.3,0-3.3.8-4.9,2-1.8,1.4-4,3.1-8.1,3.1h0c-4.2,0-6.4-1.7-8.1-3.1-1.5-1.2-2.5-2-4.9-2s-3.3.8-4.9,2c-1.8,1.4-4,3.1-8.1,3.1s-6.4-1.7-8.2-3.1c-1.5-1.2-2.5-2-4.8-2s-3.3.8-4.9,2c-1.8,1.4-4,3.1-8.1,3.1s-6.4-1.7-8.2-3.1c-1.5-1.2-2.5-2-4.9-2s-3.3.8-4.9,2c-1.8,1.4-4,3.1-8.2,3.1s-6.4-1.7-8.2-3.1c-1.5-1.2-2.5-2-4.9-2S.1,4.3,0,2.9v20.7c.1-1.4,1.2-2.5,2.7-2.5,4.2,0,6.4,1.7,8.2,3.1,1.5,1.2,2.5,2,4.9,2s3.3-.8,4.9-2c1.8-1.4,4-3.1,8.2-3.1s6.4,1.7,8.1,3.1c1.5,1.2,2.5,2,4.9,2s3.3-.8,4.9-2c1.8-1.4,4-3.1,8.2-3.1s6.4,1.7,8.1,3.1c1.5,1.2,2.5,2,4.9,2s3.3-.8,4.9-2c1.8-1.4,4-3.1,8.1-3.1s6.4,1.7,8.2,3.1c1.5,1.2,2.5,2,4.9,2s3.3-.8,4.9-2c1.8-1.4,4-3.1,8.2-3.1s2.7,1.2,2.7,2.7-1.2,2.7-2.7,2.7c-2.3,0-3.3.8-4.9,2-1.8,1.4-4,3.1-8.2,3.1h0c-4.2,0-6.4-1.7-8.1-3.1-1.5-1.2-2.5-2-4.9-2s-3.3.8-4.9,2c-1.8,1.4-4,3.1-8.1,3.1s-6.4-1.7-8.2-3.1c-1.5-1.2-2.5-2-4.8-2s-3.3.8-4.9,2c-1.8,1.4-4,3.1-8.1,3.1s-6.4-1.7-8.2-3.1c-1.5-1.2-2.5-2-4.9-2s-3.3.8-4.9,2c-1.8,1.4-4,3.1-8.2,3.1s-6.4-1.7-8.2-3.1c-1.5-1.2-2.5-2-4.9-2s-2.6-1.1-2.7-2.5v20.7c.1-1.4,1.2-2.5,2.7-2.5,4.2,0,6.4,1.7,8.2,3.1,1.5,1.2,2.5,2,4.9,2s3.3-.8,4.9-2c1.8-1.4,4-3.1,8.2-3.1s6.4,1.7,8.1,3.1c1.5,1.2,2.5,2,4.9,2s3.3-.8,4.9-2c1.8-1.4,4-3.1,8.2-3.1s6.4,1.7,8.1,3.1c1.5,1.2,2.5,2,4.9,2s3.3-.8,4.9-2c1.8-1.4,4-3.1,8.1-3.1s6.4,1.7,8.2,3.1c1.5,1.2,2.5,2,4.9,2s3.3-.8,4.9-2c1.8-1.4,4-3.1,8.2-3.1s2.7,1.2,2.7,2.7-1.2,2.7-2.7,2.7c-2.3,0-3.3.8-4.9,2-1.8,1.4-4,3.1-8.2,3.1h0c-4.2,0-6.4-1.7-8.1-3.1-1.5-1.2-2.5-2-4.9-2s-3.3.8-4.9,2c-1.8,1.4-4,3.1-8.1,3.1s-6.4-1.7-8.2-3.1c-1.5-1.2-2.5-2-4.8-2s-3.3.8-4.9,2c-1.8,1.4-4,3.1-8.1,3.1s-6.4-1.7-8.2-3.1c-1.5-1.2-2.5-2-4.9-2s-3.3.8-4.9,2c-1.8,1.4-4,3.1-8.2,3.1s-6.4-1.7-8.2-3.1c-1.5-1.2-2.5-2-4.9-2s-2.6-1.1-2.7-2.5v20.7c.1-1.4,1.2-2.5,2.7-2.5,4.2,0,6.4,1.7,8.2,3.1,1.5,1.2,2.5,2,4.9,2s3.3-.8,4.9-2c1.8-1.4,4-3.1,8.2-3.1s6.4,1.7,8.1,3.1c1.5,1.2,2.5,2,4.9,2s3.3-.8,4.9-2c1.8-1.4,4-3.1,8.2-3.1s6.4,1.7,8.1,3.1c1.5,1.2,2.5,2,4.9,2s3.3-.8,4.9-2c1.8-1.4,4-3.1,8.1-3.1s6.4,1.7,8.2,3.1c1.5,1.2,2.5,2,4.9,2s3.3-.8,4.9-2c1.8-1.4,4-3.1,8.2-3.1s2.7,1.2,2.7,2.7-1.2,2.7-2.7,2.7c-2.3,0-3.3.8-4.9,2-1.8,1.4-4,3.1-8.2,3.1h0s15.7,0,15.7,0V2.7c0,1.5-1.2,2.7-2.7,2.7Z"/>
  <path class="st0" d="M62.9,3.1c1.5,1.2,2.5,2,4.8,2s3.3-.8,4.9-2C74.4,1.7,76.6,0,80.7,0h-26C58.9,0,61.1,1.7,62.9,3.1Z"/>
  <path class="st0" d="M88.9,3.1c1.5,1.2,2.5,2,4.9,2s3.3-.8,4.9-2C100.4,1.7,102.6,0,106.8,0h-26.1C84.9,0,87.1,1.7,88.9,3.1Z"/>
  <path class="st0" d="M80.7,68.7c-2.3,0-3.3.8-4.9,1.9-1.8,1.4-4,3.1-8.1,3.1s-6.4-1.7-8.2-3.1c-1.5-1.2-2.5-1.9-4.8-1.9s-3.3.8-4.9,1.9c-1.8,1.4-4,3.1-8.1,3.1s-6.4-1.7-8.2-3.1c-1.5-1.2-2.5-1.9-4.9-1.9s-3.3.8-4.9,1.9c-1.8,1.4-4,3.1-8.2,3.1s-6.4-1.7-8.2-3.1c-1.5-1.2-2.5-1.9-4.9-1.9s-2.6-1.1-2.7-2.5v7.5h93.7c-4.2,0-6.4-1.7-8.1-3.1-1.5-1.2-2.5-2-4.9-2Z"/>
  <path class="st0" d="M0,2.5C.1,1.1,1.3,0,2.7,0H0v2.5Z"/>
  <path class="st0" d="M106.8,0c1.5,0,2.7,1.2,2.7,2.7V0h-2.7Z"/>
  <path class="st0" d="M10.8,3.1c1.5,1.2,2.5,2,4.9,2s3.3-.8,4.9-2C22.3,1.7,24.5,0,28.7,0H2.7C6.9,0,9.1,1.7,10.8,3.1Z"/>
  <path class="st0" d="M36.9,3.1c1.5,1.2,2.5,2,4.9,2s3.3-.8,4.9-2C48.3,1.7,50.6,0,54.7,0h-26C32.9,0,35.1,1.7,36.9,3.1Z"/>
</svg>