<?xml version="1.0" encoding="UTF-8"?>
<svg id="Capa_2" data-name="Capa 2" xmlns="http://www.w3.org/2000/svg" viewBox="0 0 109.45 73.76">
  <defs>
    <style>
      .cls-1 {
        fill: #95c11f;
      }
    </style>
  </defs>
  <g id="Capa_1-2" data-name="Capa 1">
    <g>
      <path class="cls-1" d="M93.74,10.41c-4.17,0-6.38-1.71-8.15-3.08-1.52-1.18-2.53-1.96-4.87-1.96s-3.34.78-4.86,1.96c-1.77,1.37-3.98,3.08-8.15,3.08s-6.37-1.71-8.15-3.08c-1.52-1.18-2.52-1.96-4.85-1.96s-3.34.78-4.86,1.96c-1.77,1.37-3.98,3.08-8.15,3.08s-6.37-1.71-8.15-3.08c-1.52-1.18-2.52-1.96-4.86-1.96s-3.34.78-4.86,1.96c-1.77,1.37-3.98,3.08-8.15,3.08s-6.37-1.71-8.15-3.08c-1.52-1.18-2.52-1.96-4.86-1.96-1.48,0-2.69-1.2-2.69-2.69S1.2,0,2.69,0c4.17,0,6.37,1.71,8.15,3.08,1.52,1.18,2.52,1.96,4.86,1.96s3.34-.78,4.86-1.96c1.77-1.37,3.98-3.08,8.15-3.08s6.38,1.71,8.15,3.08c1.52,1.18,2.52,1.96,4.86,1.96s3.34-.78,4.86-1.96c1.77-1.37,3.98-3.08,8.15-3.08s6.37,1.71,8.15,3.08c1.52,1.18,2.52,1.96,4.85,1.96s3.34-.78,4.86-1.96c1.77-1.37,3.98-3.08,8.15-3.08s6.38,1.71,8.15,3.08c1.52,1.18,2.53,1.96,4.87,1.96s3.34-.78,4.87-1.96c1.77-1.37,3.98-3.08,8.16-3.08,1.48,0,2.69,1.2,2.69,2.69s-1.2,2.69-2.69,2.69c-2.34,0-3.34.78-4.87,1.96-1.77,1.37-3.98,3.08-8.15,3.08Z"/>
      <path class="cls-1" d="M93.74,31.52c-4.17,0-6.38-1.71-8.15-3.08-1.52-1.18-2.53-1.96-4.87-1.96s-3.34.78-4.86,1.95c-1.77,1.37-3.98,3.08-8.15,3.08s-6.37-1.71-8.15-3.08c-1.52-1.18-2.52-1.95-4.85-1.95s-3.34.78-4.86,1.95c-1.77,1.37-3.98,3.08-8.15,3.08s-6.37-1.71-8.15-3.08c-1.52-1.18-2.52-1.95-4.86-1.95s-3.34.78-4.86,1.95c-1.77,1.37-3.98,3.08-8.15,3.08s-6.37-1.71-8.15-3.08c-1.52-1.18-2.52-1.95-4.86-1.95-1.48,0-2.69-1.2-2.69-2.69s1.2-2.69,2.69-2.69c4.17,0,6.37,1.71,8.15,3.08,1.52,1.18,2.52,1.95,4.86,1.95s3.34-.78,4.86-1.95c1.77-1.37,3.98-3.08,8.15-3.08s6.38,1.71,8.15,3.08c1.52,1.18,2.52,1.95,4.86,1.95s3.34-.78,4.86-1.96c1.77-1.37,3.98-3.08,8.15-3.08s6.37,1.71,8.15,3.08c1.52,1.18,2.52,1.95,4.85,1.95s3.34-.78,4.86-1.96c1.77-1.37,3.98-3.08,8.15-3.08s6.38,1.71,8.15,3.08c1.52,1.18,2.53,1.96,4.87,1.96s3.34-.78,4.87-1.96c1.77-1.37,3.98-3.08,8.16-3.08,1.48,0,2.69,1.2,2.69,2.69s-1.2,2.69-2.69,2.69c-2.34,0-3.34.78-4.87,1.96-1.77,1.37-3.98,3.08-8.15,3.08Z"/>
      <path class="cls-1" d="M93.74,52.64c-4.17,0-6.38-1.71-8.15-3.08-1.52-1.18-2.53-1.96-4.87-1.96s-3.34.78-4.86,1.96c-1.77,1.37-3.98,3.08-8.15,3.08s-6.37-1.71-8.15-3.08c-1.52-1.18-2.52-1.96-4.85-1.96s-3.34.78-4.86,1.96c-1.77,1.37-3.98,3.08-8.15,3.08s-6.37-1.71-8.15-3.08c-1.52-1.18-2.52-1.96-4.86-1.96s-3.34.78-4.86,1.96c-1.77,1.37-3.98,3.08-8.15,3.08s-6.37-1.71-8.15-3.08c-1.52-1.18-2.52-1.96-4.86-1.96-1.48,0-2.69-1.2-2.69-2.69s1.2-2.69,2.69-2.69c4.17,0,6.37,1.71,8.15,3.08,1.52,1.18,2.52,1.96,4.86,1.96s3.34-.78,4.86-1.96c1.77-1.37,3.98-3.08,8.15-3.08s6.38,1.71,8.15,3.08c1.52,1.18,2.52,1.96,4.86,1.96s3.34-.78,4.86-1.96c1.77-1.37,3.98-3.08,8.15-3.08s6.37,1.71,8.15,3.08c1.52,1.18,2.52,1.96,4.85,1.96s3.34-.78,4.86-1.96c1.77-1.37,3.98-3.08,8.15-3.08s6.38,1.71,8.15,3.08c1.52,1.18,2.53,1.96,4.87,1.96s3.34-.78,4.87-1.96c1.77-1.37,3.98-3.08,8.16-3.08,1.48,0,2.69,1.2,2.69,2.69s-1.2,2.69-2.69,2.69c-2.34,0-3.34.78-4.87,1.96-1.77,1.37-3.98,3.08-8.15,3.08Z"/>
      <path class="cls-1" d="M93.74,73.76c-4.17,0-6.38-1.71-8.15-3.08-1.52-1.18-2.53-1.96-4.87-1.96s-3.34.78-4.86,1.95c-1.77,1.37-3.98,3.08-8.15,3.08s-6.37-1.71-8.15-3.08c-1.52-1.18-2.52-1.95-4.85-1.95s-3.34.78-4.86,1.95c-1.77,1.37-3.98,3.08-8.15,3.08s-6.37-1.71-8.15-3.08c-1.52-1.18-2.52-1.95-4.86-1.95s-3.34.78-4.86,1.95c-1.77,1.37-3.98,3.08-8.15,3.08s-6.37-1.71-8.15-3.08c-1.52-1.18-2.52-1.95-4.86-1.95-1.48,0-2.69-1.2-2.69-2.69s1.2-2.69,2.69-2.69c4.17,0,6.37,1.71,8.15,3.08,1.52,1.18,2.52,1.95,4.86,1.95s3.34-.78,4.86-1.95c1.77-1.37,3.98-3.08,8.15-3.08s6.38,1.71,8.15,3.08c1.52,1.18,2.52,1.95,4.86,1.95s3.34-.78,4.86-1.96c1.77-1.37,3.98-3.08,8.15-3.08s6.37,1.71,8.15,3.08c1.52,1.18,2.52,1.95,4.85,1.95s3.34-.78,4.86-1.96c1.77-1.37,3.98-3.08,8.15-3.08s6.38,1.71,8.15,3.08c1.52,1.18,2.53,1.96,4.87,1.96s3.34-.78,4.87-1.96c1.77-1.37,3.98-3.08,8.16-3.08,1.48,0,2.69,1.2,2.69,2.69s-1.2,2.69-2.69,2.69c-2.34,0-3.34.78-4.87,1.96-1.77,1.37-3.98,3.08-8.15,3.08Z"/>
    </g>
  </g>
</svg>