<?xml version="1.0" encoding="UTF-8"?>
<svg id="Capa_2" xmlns="http://www.w3.org/2000/svg" version="1.1" viewBox="0 0 173.4 163.6">
  <!-- Generator: Adobe Illustrator 29.4.0, SVG Export Plug-In . SVG Version: 2.1.0 Build 152)  -->
  <defs>
    <style>
      .st0 {
        fill: #95c11f;
      }
    </style>
  </defs>
  <path class="st0" d="M59.4,104.8h-30.4C13,104.8,0,91.7,0,75.7s11.1-27.2,25.7-28.8c3.5-13.5,15.8-23.1,30-23.1s4.2.2,6.3.7C69.7,9.5,85.1,0,101.9,0s39.2,14.7,43.7,35.1c16.2,3.5,27.8,17.7,27.8,34.4s-15.8,35.2-35.2,35.2h0s-24.2,0-24.2,0h-54.5Z"/>
  <path class="st0" d="M86.7,163.6c-1.4,0-2.5-1.1-2.5-2.5v-56.4c0-1.4,1.1-2.5,2.5-2.5s2.5,1.1,2.5,2.5v56.4c0,1.4-1.1,2.5-2.5,2.5Z"/>
  <path class="st0" d="M86.7,163.6c-.9,0-1.7-.4-2.1-1.2l-16.9-27.7c-.7-1.2-.3-2.7.8-3.4,1.2-.7,2.7-.4,3.4.8l14.8,24.2,14.8-24.2c.7-1.2,2.2-1.6,3.4-.8,1.2.7,1.5,2.2.8,3.4l-16.9,27.7c-.4.7-1.3,1.2-2.1,1.2Z"/>
  <path class="st0" d="M141.7,163.6c-1.4,0-2.5-1.1-2.5-2.5v-56.4c0-1.4,1.1-2.5,2.5-2.5s2.5,1.1,2.5,2.5v56.4c0,1.4-1.1,2.5-2.5,2.5Z"/>
  <path class="st0" d="M141.7,163.6c-.9,0-1.7-.4-2.1-1.2l-16.9-27.7c-.7-1.2-.3-2.7.8-3.4,1.2-.7,2.7-.4,3.4.8l14.8,24.2,14.8-24.2c.7-1.2,2.2-1.6,3.4-.8,1.2.7,1.5,2.2.8,3.4l-16.9,27.7c-.4.7-1.3,1.2-2.1,1.2Z"/>
  <path class="st0" d="M31.7,163.6c-1.4,0-2.5-1.1-2.5-2.5v-56.4c0-1.4,1.1-2.5,2.5-2.5s2.5,1.1,2.5,2.5v56.4c0,1.4-1.1,2.5-2.5,2.5Z"/>
  <path class="st0" d="M31.7,163.6c-.9,0-1.7-.4-2.1-1.2l-16.9-27.7c-.7-1.2-.3-2.7.8-3.4,1.2-.7,2.7-.4,3.4.8l14.8,24.2,14.8-24.2c.7-1.2,2.2-1.6,3.4-.8,1.2.7,1.5,2.2.8,3.4l-16.9,27.7c-.5.7-1.3,1.2-2.1,1.2Z"/>
  <path class="st0" d="M114,99.8h24.2c16.7,0,30.3-13.6,30.3-30.3s-10.6-27.4-25.3-29.8c-1-.2-1.9-1-2.1-2-3.4-19-19.9-32.7-39.2-32.7s-29.8,9.2-36.2,23.4c-.5,1.1-1.8,1.7-2.9,1.4-2.3-.7-4.7-1-7-1-12.4,0-23.1,8.8-25.5,20.9-.2,1.1-1.2,1.9-2.3,2-12.8.7-22.9,11.2-22.9,24s10.8,24.1,24.1,24.1h84.9Z"/>
</svg>