<?xml version="1.0" encoding="UTF-8"?>
<svg id="Capa_2" data-name="Capa 2" xmlns="http://www.w3.org/2000/svg" viewBox="0 0 173.42 163.61">
  <defs>
    <style>
      .cls-1 {
        fill: #95c11f;
      }
    </style>
  </defs>
  <g id="Capa_1-2" data-name="Capa 1">
    <g>
      <g>
        <g>
          <path class="cls-1" d="M86.71,163.61c-1.38,0-2.49-1.11-2.49-2.49v-56.37c0-1.37,1.11-2.49,2.49-2.49s2.49,1.11,2.49,2.49v56.37c0,1.38-1.11,2.49-2.49,2.49Z"/>
          <path class="cls-1" d="M86.71,163.61c-.87,0-1.67-.45-2.12-1.19l-16.92-27.7c-.72-1.17-.34-2.7.83-3.42,1.18-.72,2.71-.35,3.42.83l14.79,24.23,14.79-24.23c.72-1.17,2.24-1.55,3.42-.83,1.17.72,1.54,2.25.83,3.42l-16.92,27.7c-.45.74-1.26,1.19-2.12,1.19Z"/>
        </g>
        <g>
          <path class="cls-1" d="M141.71,163.61c-1.38,0-2.49-1.11-2.49-2.49v-56.37c0-1.37,1.11-2.49,2.49-2.49s2.49,1.11,2.49,2.49v56.37c0,1.38-1.11,2.49-2.49,2.49Z"/>
          <path class="cls-1" d="M141.71,163.61c-.87,0-1.67-.45-2.12-1.19l-16.92-27.7c-.72-1.17-.34-2.7.83-3.42,1.18-.72,2.71-.35,3.42.83l14.79,24.23,14.79-24.23c.72-1.17,2.24-1.55,3.42-.83,1.17.72,1.54,2.25.83,3.42l-16.92,27.7c-.45.74-1.26,1.19-2.12,1.19Z"/>
        </g>
        <g>
          <path class="cls-1" d="M31.71,163.61c-1.38,0-2.49-1.11-2.49-2.49v-56.37c0-1.37,1.11-2.49,2.49-2.49s2.49,1.11,2.49,2.49v56.37c0,1.38-1.11,2.49-2.49,2.49Z"/>
          <path class="cls-1" d="M31.71,163.61c-.87,0-1.67-.45-2.12-1.19l-16.92-27.7c-.72-1.17-.34-2.7.83-3.42,1.18-.72,2.71-.35,3.42.83l14.79,24.23,14.79-24.23c.72-1.17,2.24-1.55,3.42-.83,1.17.72,1.54,2.25.83,3.42l-16.92,27.7c-.45.74-1.26,1.19-2.12,1.19Z"/>
        </g>
      </g>
      <path class="cls-1" d="M138.18,104.76h-24.21c-1.38,0-2.49-1.11-2.49-2.49s1.11-2.49,2.49-2.49h24.21c16.69,0,30.26-13.57,30.26-30.26,0-14.87-10.65-27.41-25.33-29.82-1.04-.17-1.86-.97-2.05-2.01-3.44-18.95-19.92-32.71-39.18-32.71-15.55,0-29.79,9.18-36.25,23.37-.51,1.12-1.76,1.7-2.94,1.36-2.34-.66-4.71-.99-7.04-.99-12.38,0-23.1,8.8-25.5,20.93-.22,1.12-1.18,1.94-2.32,2-12.82.65-22.87,11.2-22.87,24.03s10.81,24.1,24.1,24.1h30.37c1.37,0,2.49,1.11,2.49,2.49s-1.11,2.49-2.49,2.49h-30.37c-16.03,0-29.08-13.04-29.08-29.07,0-14.85,11.14-27.17,25.7-28.85,3.54-13.49,15.85-23.09,29.96-23.09,2.1,0,4.23.23,6.35.68C69.65,9.52,85.08,0,101.89,0c21.1,0,39.22,14.66,43.74,35.1,16.21,3.47,27.8,17.67,27.8,34.41,0,19.43-15.81,35.24-35.24,35.24Z"/>
    </g>
  </g>
</svg>