<?xml version="1.0" encoding="UTF-8"?>
<svg id="Capa_2" xmlns="http://www.w3.org/2000/svg" version="1.1" viewBox="0 0 169.1 169.1">
  <!-- Generator: Adobe Illustrator 29.4.0, SVG Export Plug-In . SVG Version: 2.1.0 Build 152)  -->
  <defs>
    <style>
      .st0 {
        fill: #95c11f;
      }
    </style>
  </defs>
  <path class="st0" d="M61.1,82.2l8,8.3-11.4,14.2-6.8,6.9,1.1,5h8l16.6-16.1,21.5,19.8-33.8,36.1s-35,21.3-54.9,4,7.3-60.1,7.3-60.1l30-29.8,14.2,11.8Z"/>
  <g id="Capa_1-2">
    <g>
      <path class="st0" d="M51.4,120.2c-1.4,0-2.5-1.1-2.5-2.5,0-9.8,7-16.1,8.1-17l63.8-63.8c-4.2-7.4,1.3-20,1.9-21.5.1-.3.3-.5.5-.8l13.8-13.8c1-1,2.6-1,3.6,0l27.7,27.7c1,1,1,2.6,0,3.6l-13.8,13.8c-.2.2-.5.4-.8.5-1.5.7-14.1,6.1-21.5,2l-63.8,63.8c-.9,1.1-7.2,8.1-17,8.1h0ZM127.2,17.8c-1.6,3.8-4.8,14-1.3,17.5,1,1,1,2.6,0,3.6L60.4,104.3c0,0-.1.1-.2.2,0,0-4.9,4-6.1,10.4,6.4-1.2,10.4-6,10.4-6.1,0,0,.1-.1.2-.2l65.4-65.4c1-1,2.6-1,3.6,0,3.6,3.6,13.7.4,17.5-1.3l11.7-11.7-24.1-24.1-11.7,11.7h0Z"/>
      <path class="st0" d="M32.5,169.1c-7.7,0-16-1.9-24.6-6.9-.4-.2-.7-.5-.9-.9-19-32.3,7.2-61.4,7.4-61.7l31.9-31.9c1-1,2.6-1,3.6,0l14.5,14.5c1,1,1,2.6,0,3.6s-2.6,1-3.6,0l-12.7-12.7-30,30c-.9,1-23.5,26.3-7,55.1,28.9,16.6,54.9-6.9,55.2-7.1l29.9-29.9-12.7-12.7c-1-1-1-2.6,0-3.6s2.6-1,3.6,0l14.5,14.5c1,1,1,2.6,0,3.6l-31.8,31.8c-.3.2-16,14.4-37.2,14.4h0Z"/>
      <path class="st0" d="M157.7,41.6c-.6,0-1.3-.2-1.8-.7l-27.7-27.7c-1-1-1-2.6,0-3.6,1-1,2.6-1,3.6,0l27.7,27.7c1,1,1,2.6,0,3.6-.5.5-1.1.7-1.8.7Z"/>
    </g>
  </g>
  <polygon class="st0" points="139.2 2.8 166.4 30.2 156.5 38.5 131.4 12.7 139.2 2.8"/>
  <polygon class="st0" points="75.3 84.5 83.4 91.9 124.3 52.7 115.3 45.8 75.3 84.5"/>
</svg>