<?xml version="1.0" encoding="UTF-8"?>
<svg id="Capa_2" data-name="Capa 2" xmlns="http://www.w3.org/2000/svg" viewBox="0 0 169.07 169.07">
  <defs>
    <style>
      .cls-1 {
        fill: #95c11f;
      }
    </style>
  </defs>
  <g id="Capa_1-2" data-name="Capa 1">
    <g>
      <path class="cls-1" d="M51.37,120.22c-1.39,0-2.52-1.13-2.52-2.52,0-9.85,7.04-16.11,8.12-17.01l63.82-63.83c-4.17-7.4,1.26-20,1.95-21.54.13-.28.3-.53.52-.75l13.84-13.84c.98-.98,2.58-.98,3.56,0l27.67,27.67c.98.98.98,2.58,0,3.56l-13.84,13.84c-.22.22-.47.39-.75.52-1.54.69-14.14,6.12-21.54,1.95l-63.83,63.83c-.9,1.08-7.16,8.12-17.01,8.12ZM127.16,17.8c-1.63,3.84-4.85,13.96-1.27,17.53.98.98.98,2.58,0,3.56L60.44,104.34c-.07.07-.14.13-.21.19-.05.04-4.91,4.03-6.09,10.4,6.37-1.18,10.36-6.04,10.4-6.1.06-.07.12-.14.19-.21l65.45-65.45c.98-.98,2.58-.98,3.56,0,3.59,3.59,13.69.37,17.53-1.27l11.72-11.72-24.11-24.11-11.72,11.72Z"/>
      <path class="cls-1" d="M32.45,169.07c-7.66,0-16.03-1.86-24.62-6.94-.37-.22-.67-.52-.89-.89-19.05-32.27,7.15-61.41,7.42-61.7l31.86-31.86c.98-.98,2.58-.98,3.56,0l14.5,14.5c.98.98.98,2.58,0,3.56s-2.58.98-3.56,0l-12.72-12.72-30.01,30.01c-.9.99-23.55,26.3-7.04,55.09,28.88,16.55,54.91-6.88,55.17-7.12l29.93-29.93-12.72-12.72c-.98-.98-.98-2.58,0-3.56s2.58-.98,3.56,0l14.5,14.5c.98.98.98,2.58,0,3.56l-31.79,31.79c-.27.25-16.03,14.43-37.16,14.43Z"/>
      <path class="cls-1" d="M157.67,41.59c-.64,0-1.29-.25-1.78-.74l-27.67-27.67c-.98-.98-.98-2.58,0-3.56.98-.98,2.58-.98,3.56,0l27.67,27.67c.98.98.98,2.58,0,3.56-.49.49-1.14.74-1.78.74Z"/>
    </g>
  </g>
</svg>