<?xml version="1.0" encoding="UTF-8"?>
<svg id="Capa_2" data-name="Capa 2" xmlns="http://www.w3.org/2000/svg" viewBox="0 0 162.1 162.1">
  <defs>
    <style>
      .cls-1 {
        fill: #95c11f;
      }
    </style>
  </defs>
  <g id="Capa_1-2" data-name="Capa 1">
    <g>
      <g>
        <path class="cls-1" d="M58.59,101.76c-.64,0-1.28-.24-1.76-.73l-26.47-26.47c-.97-.97-.97-2.55,0-3.53l41.67-41.67c.97-.97,2.55-.97,3.53,0l26.47,26.47c.97.97.97,2.55,0,3.53l-41.67,41.67c-.49.49-1.12.73-1.76.73ZM35.65,72.8l22.95,22.95,38.15-38.15-22.95-22.95-38.15,38.15Z"/>
        <path class="cls-1" d="M121.62,134.23c-.66,0-1.3-.26-1.76-.73l-47.75-47.75c-.47-.47-.73-1.1-.73-1.76s.26-1.29.73-1.76l11.11-11.11c.97-.97,2.55-.97,3.53,0l47.74,47.74c.97.97.97,2.55,0,3.53l-11.11,11.11c-.47.47-1.1.73-1.76.73ZM77.4,83.99l44.22,44.22,7.58-7.58-44.22-44.22-7.58,7.58Z"/>
        <path class="cls-1" d="M56.7,110.51c-.64,0-1.28-.24-1.76-.73l-33.33-33.33c-.47-.47-.73-1.1-.73-1.76s.26-1.3.73-1.76l5.33-5.33c.47-.47,1.1-.73,1.76-.73h0c.66,0,1.3.26,1.76.73l33.33,33.33c.97.97.97,2.55,0,3.53l-5.32,5.32c-.49.49-1.12.73-1.76.73ZM26.9,74.69l29.8,29.8,1.8-1.8-29.8-29.8-1.8,1.8Z"/>
        <path class="cls-1" d="M103.7,63.52h0c-.66,0-1.3-.26-1.76-.73l-33.33-33.33c-.97-.97-.97-2.55,0-3.53l5.32-5.32c.47-.47,1.1-.73,1.76-.73h0c.66,0,1.3.26,1.76.73l33.33,33.33c.97.97.97,2.55,0,3.53l-5.32,5.32c-.47.47-1.1.73-1.76.73ZM73.9,27.69l29.8,29.8,1.8-1.8-29.8-29.8-1.8,1.8Z"/>
      </g>
      <path class="cls-1" d="M81.05,162.1C36.36,162.1,0,125.74,0,81.05S36.36,0,81.05,0s81.05,36.36,81.05,81.05-36.36,81.05-81.05,81.05ZM81.05,4.99C39.11,4.99,4.99,39.11,4.99,81.05s34.12,76.06,76.06,76.06,76.06-34.12,76.06-76.06S122.99,4.99,81.05,4.99Z"/>
    </g>
  </g>
</svg>