<?xml version="1.0" encoding="UTF-8"?>
<svg id="Capa_2" xmlns="http://www.w3.org/2000/svg" version="1.1" viewBox="0 0 162.1 162.1">
  <!-- Generator: Adobe Illustrator 29.4.0, SVG Export Plug-In . SVG Version: 2.1.0 Build 152)  -->
  <defs>
    <style>
      .st0 {
        fill: #95c11f;
      }
    </style>
  </defs>
  <path class="st0" d="M58.6,101.8c-.6,0-1.3-.2-1.8-.7l-26.5-26.5c-1-1-1-2.6,0-3.5l41.7-41.7c1-1,2.6-1,3.5,0l26.5,26.5c1,1,1,2.5,0,3.5l-41.7,41.7c-.5.5-1.1.7-1.8.7h0Z"/>
  <path class="st0" d="M121.6,134.2c-.7,0-1.3-.3-1.8-.7l-47.8-47.8c-.5-.5-.7-1.1-.7-1.8s.3-1.3.7-1.8l11.1-11.1c1-1,2.6-1,3.5,0l47.7,47.7c1,1,1,2.6,0,3.5l-11.1,11.1c-.5.5-1.1.7-1.8.7Z"/>
  <path class="st0" d="M52.2,116.8c-.6,0-1.3-.2-1.8-.7l-33.3-33.3c-.5-.5-.7-1.1-.7-1.8s.3-1.3.7-1.8l5.3-5.3c.5-.5,1.1-.7,1.8-.7h0c.7,0,1.3.3,1.8.7l33.3,33.3c1,1,1,2.6,0,3.5l-5.3,5.3c-.5.5-1.1.7-1.8.7h0Z"/>
  <path class="st0" d="M110.3,59.5h0c-.7,0-1.3-.3-1.8-.7l-33.3-33.3c-1-1-1-2.5,0-3.5l5.3-5.3c.5-.5,1.1-.7,1.8-.7h0c.7,0,1.3.3,1.8.7l33.3,33.3c1,1,1,2.5,0,3.5l-5.3,5.3c-.5.5-1.1.7-1.8.7Z"/>
  <path class="st0" d="M81.1,162.1C36.4,162.1,0,125.7,0,81.1S36.4,0,81.1,0s81.1,36.4,81.1,81.1-36.4,81.1-81.1,81.1ZM81.1,5C39.1,5,5,39.1,5,81.1s34.1,76.1,76.1,76.1,76.1-34.1,76.1-76.1S123,5,81.1,5Z"/>
</svg>