<?xml version="1.0" encoding="UTF-8"?>
<svg id="Capa_2" data-name="Capa 2" xmlns="http://www.w3.org/2000/svg" viewBox="0 0 59.05 167.17">
  <defs>
    <style>
      .cls-1 {
        fill: #95c11f;
      }
    </style>
  </defs>
  <g id="Capa_1-2" data-name="Capa 1">
    <g>
      <g>
        <path class="cls-1" d="M44.44,29.82h-14.91c-1.38,0-2.5-1.12-2.5-2.5s1.12-2.5,2.5-2.5h14.91c1.38,0,2.5,1.12,2.5,2.5s-1.12,2.5-2.5,2.5Z"/>
        <path class="cls-1" d="M44.44,47.16h-14.91c-1.38,0-2.5-1.12-2.5-2.5s1.12-2.5,2.5-2.5h14.91c1.38,0,2.5,1.12,2.5,2.5s-1.12,2.5-2.5,2.5Z"/>
        <path class="cls-1" d="M44.44,64.51h-14.91c-1.38,0-2.5-1.12-2.5-2.5s1.12-2.5,2.5-2.5h14.91c1.38,0,2.5,1.12,2.5,2.5s-1.12,2.5-2.5,2.5Z"/>
        <path class="cls-1" d="M44.44,81.85h-14.91c-1.38,0-2.5-1.12-2.5-2.5s1.12-2.5,2.5-2.5h14.91c1.38,0,2.5,1.12,2.5,2.5s-1.12,2.5-2.5,2.5Z"/>
        <path class="cls-1" d="M44.44,99.2h-14.91c-1.38,0-2.5-1.12-2.5-2.5s1.12-2.5,2.5-2.5h14.91c1.38,0,2.5,1.12,2.5,2.5s-1.12,2.5-2.5,2.5Z"/>
      </g>
      <path class="cls-1" d="M29.53,167.17c-16.28,0-29.53-13.25-29.53-29.53,0-9.51,4.54-18.34,12.21-23.9V17.32C12.21,7.77,19.98,0,29.53,0s17.32,7.77,17.32,17.32v96.42c7.67,5.56,12.21,14.39,12.21,23.9,0,16.28-13.25,29.53-29.53,29.53ZM29.53,5c-6.79,0-12.32,5.53-12.32,12.32v97.73c0,.84-.42,1.63-1.13,2.09-6.94,4.56-11.08,12.22-11.08,20.5,0,13.52,11,24.53,24.53,24.53s24.53-11,24.53-24.53c0-8.27-4.14-15.94-11.08-20.5-.7-.46-1.13-1.25-1.13-2.09V17.32c0-6.79-5.53-12.32-12.32-12.32Z"/>
    </g>
  </g>
</svg>