<?xml version="1.0" encoding="UTF-8"?>
<svg id="Capa_2" data-name="Capa 2" xmlns="http://www.w3.org/2000/svg" viewBox="0 0 132.93 186.16">
  <defs>
    <style>
      .cls-1 {
        fill: #95c11f;
      }
    </style>
  </defs>
  <g id="Capa_1-2" data-name="Capa 1">
    <g>
      <g>
        <path class="cls-1" d="M66.66,132.13c-.26,0-.52,0-.78,0l-1.86-.04-2.37-8.58c-2.99-.49-5.86-1.41-8.59-2.76l-6.91,5.61-1.53-1.05c-3.47-2.36-6.51-5.24-9.04-8.56l-1.13-1.48,5.23-7.21c-1.48-2.65-2.56-5.47-3.21-8.43l-8.7-1.91-.14-1.85c-.31-4.18.04-8.35,1.05-12.41l.45-1.8,8.89-.4c.57-1.39,1.25-2.75,2.02-4.05.77-1.3,1.63-2.55,2.58-3.72l-3.93-7.99,1.36-1.26c3.06-2.84,6.55-5.16,10.37-6.9l1.69-.77,5.86,6.7c2.91-.85,5.91-1.25,8.93-1.25l3.8-8.06,1.83.28c4.13.62,8.12,1.9,11.86,3.8l1.66.84-1.59,8.76c2.49,1.74,4.68,3.82,6.55,6.2l8.66-2.05.93,1.61c2.09,3.64,3.58,7.55,4.43,11.63l.38,1.82-7.84,4.22c.19,3.03-.06,6.05-.76,9l7.01,5.49-.68,1.73c-.77,1.95-1.69,3.83-2.74,5.61-1.05,1.78-2.26,3.49-3.6,5.1l-1.19,1.43-8.18-3.5c-2.25,2.03-4.76,3.71-7.51,5l.07,8.9-1.78.55c-3.74,1.15-7.62,1.73-11.55,1.73ZM52.5,114.77l1.48.83c3.08,1.73,6.41,2.8,9.9,3.18l1.69.18,2.25,8.16c2.42-.08,4.81-.41,7.14-1l-.07-8.48,1.57-.64c3.27-1.33,6.18-3.27,8.65-5.76l1.19-1.2,7.79,3.33c.72-.97,1.39-1.98,2-3,.61-1.03,1.16-2.1,1.67-3.2l-6.66-5.22.48-1.63c1-3.37,1.29-6.85.88-10.36l-.2-1.68,7.47-4.02c-.61-2.32-1.47-4.58-2.57-6.74l-8.24,1.95-.97-1.39c-2.01-2.87-4.55-5.28-7.55-7.14l-1.44-.89,1.51-8.34c-2.21-.98-4.51-1.72-6.87-2.2l-3.61,7.67-1.69-.1c-3.52-.23-6.99.27-10.3,1.44l-1.6.57-5.57-6.38c-2.14,1.12-4.15,2.45-6,3.99l3.74,7.6-1.13,1.26c-1.16,1.29-2.21,2.71-3.1,4.22-.89,1.51-1.63,3.1-2.2,4.74l-.55,1.6-8.46.38c-.46,2.36-.66,4.77-.61,7.18l8.27,1.81.27,1.67c.57,3.47,1.81,6.74,3.7,9.72l.91,1.43-4.98,6.86c1.56,1.83,3.32,3.49,5.24,4.95l6.58-5.34Z"/>
        <path class="cls-1" d="M66.65,109.81c-2.98,0-5.91-.8-8.54-2.35-3.87-2.29-6.62-5.95-7.74-10.3-1.12-4.36-.47-8.89,1.82-12.76,2.29-3.87,5.95-6.62,10.3-7.74,4.36-1.12,8.89-.47,12.76,1.82,3.87,2.29,6.62,5.95,7.74,10.31,1.12,4.36.47,8.89-1.82,12.76-2.29,3.87-5.95,6.62-10.3,7.74-1.4.36-2.81.54-4.22.54ZM66.7,81.12c-.99,0-1.98.12-2.97.38-3.06.79-5.64,2.72-7.25,5.44-3.33,5.62-1.45,12.9,4.17,16.23,2.73,1.61,5.91,2.06,8.98,1.28,3.06-.79,5.64-2.72,7.25-5.44,1.61-2.72,2.06-5.91,1.28-8.98-.78-3.06-2.72-5.64-5.44-7.25-1.85-1.1-3.92-1.66-6.01-1.66Z"/>
      </g>
      <path class="cls-1" d="M123.05,186.16H9.87c-5.44,0-9.87-4.43-9.87-9.87V9.87C0,4.43,4.43,0,9.87,0h113.18c5.44,0,9.87,4.43,9.87,9.87v166.42c0,5.44-4.43,9.87-9.87,9.87ZM9.87,4.99c-2.69,0-4.88,2.19-4.88,4.88v166.42c0,2.69,2.19,4.88,4.88,4.88h113.18c2.69,0,4.88-2.19,4.88-4.88V9.87c0-2.69-2.19-4.88-4.88-4.88H9.87Z"/>
    </g>
  </g>
</svg>