<?xml version="1.0" encoding="UTF-8"?>
<svg id="Capa_2" xmlns="http://www.w3.org/2000/svg" version="1.1" viewBox="0 0 132.9 186.2">
  <!-- Generator: Adobe Illustrator 29.4.0, SVG Export Plug-In . SVG Version: 2.1.0 Build 152)  -->
  <defs>
    <style>
      .st0 {
        fill: #95c11f;
      }
    </style>
  </defs>
  <g>
    <path class="st0" d="M72.7,82.8c-1.8-1.1-3.9-1.7-6-1.7h0c-1,0-2,.1-3,.4-3.1.8-5.6,2.7-7.2,5.4-3.3,5.6-1.5,12.9,4.2,16.2,2.7,1.6,5.9,2.1,9,1.3,3.1-.8,5.6-2.7,7.2-5.4,1.6-2.7,2.1-5.9,1.3-9-.8-3.1-2.7-5.6-5.4-7.2Z"/>
    <path class="st0" d="M97.8,91.1l7.8-4.2-.4-1.8c-.9-4.1-2.3-8-4.4-11.6l-.9-1.6-8.7,2c-1.9-2.4-4.1-4.5-6.5-6.2l1.6-8.8-1.7-.8c-3.7-1.9-7.7-3.2-11.9-3.8l-1.8-.3-3.8,8.1c-3,0-6,.4-8.9,1.2l-5.9-6.7-1.7.8c-3.8,1.7-7.3,4.1-10.4,6.9l-1.4,1.3,3.9,8c-1,1.2-1.8,2.4-2.6,3.7-.8,1.3-1.4,2.7-2,4l-8.9.4-.5,1.8c-1,4.1-1.4,8.2-1,12.4v1.8c.1,0,8.8,1.9,8.8,1.9.6,3,1.7,5.8,3.2,8.4l-5.2,7.2,1.1,1.5c2.5,3.3,5.6,6.2,9,8.6l1.5,1,6.9-5.6c2.7,1.3,5.6,2.3,8.6,2.8l2.4,8.6h1.9c.3,0,.5,0,.8,0h0c3.9,0,7.8-.6,11.6-1.8l1.8-.6v-8.9c2.7-1.3,5.2-3,7.4-5l8.2,3.5,1.2-1.4c1.3-1.6,2.5-3.3,3.6-5.1,1-1.8,2-3.7,2.7-5.6l.7-1.7-7-5.5c.7-3,1-6,.8-9ZM81.2,101.6c-2.3,3.9-5.9,6.6-10.3,7.7-1.4.4-2.8.5-4.2.5h0c-3,0-5.9-.8-8.5-2.4-3.9-2.3-6.6-6-7.7-10.3-1.1-4.4-.5-8.9,1.8-12.8s6-6.6,10.3-7.7c4.4-1.1,8.9-.5,12.8,1.8,3.9,2.3,6.6,5.9,7.7,10.3,1.1,4.4.5,8.9-1.8,12.8Z"/>
  </g>
  <path class="st0" d="M123.1,186.2H9.9c-5.4,0-9.9-4.4-9.9-9.9V9.9C0,4.4,4.4,0,9.9,0h113.2c5.4,0,9.9,4.4,9.9,9.9v166.4c0,5.4-4.4,9.9-9.9,9.9h0ZM9.9,5c-2.7,0-4.9,2.2-4.9,4.9v166.4c0,2.7,2.2,4.9,4.9,4.9h113.2c2.7,0,4.9-2.2,4.9-4.9V9.9c0-2.7-2.2-4.9-4.9-4.9H9.9Z"/>
</svg>