<?xml version="1.0" encoding="UTF-8"?>
<svg id="Capa_2" xmlns="http://www.w3.org/2000/svg" version="1.1" viewBox="0 0 59 167.2">
  <!-- Generator: Adobe Illustrator 29.4.0, SVG Export Plug-In . SVG Version: 2.1.0 Build 152)  -->
  <defs>
    <style>
      .st0 {
        fill: #95c11f;
      }
    </style>
  </defs>
  <path class="st0" d="M46.8,113.7v-14.5h-16.6c-1.8,0-3.2-1.1-3.2-2.5s1.5-2.5,3.2-2.5h16.6v-12.3h-16.6c-1.8,0-3.2-1.1-3.2-2.5s1.5-2.5,3.2-2.5h16.6v-12.3h-16.6c-1.8,0-3.2-1.1-3.2-2.5s1.5-2.5,3.2-2.5h16.6v-12.4h-16.6c-1.8,0-3.2-1.1-3.2-2.5s1.5-2.5,3.2-2.5h16.6v-12.3h-16.6c-1.8,0-3.2-1.1-3.2-2.5s1.5-2.5,3.2-2.5h16.6v-7.5C46.8,7.8,39.1,0,29.5,0S12.2,7.8,12.2,17.3v96.4c-7.7,5.6-12.2,14.4-12.2,23.9,0,16.3,13.2,29.5,29.5,29.5s29.5-13.2,29.5-29.5-4.5-18.3-12.2-23.9Z"/>
</svg>