<?xml version="1.0" encoding="UTF-8"?>
<svg id="Capa_2" data-name="Capa 2" xmlns="http://www.w3.org/2000/svg" viewBox="0 0 154.88 154.88">
  <defs>
    <style>
      .cls-1 {
        fill: #b2b2b2;
      }
    </style>
  </defs>
  <g id="Capa_1-2" data-name="Capa 1">
    <g>
      <g>
        <path class="cls-1" d="M77.44,133.97c-31.17,0-56.53-25.36-56.53-56.53s25.36-56.53,56.53-56.53,56.53,25.36,56.53,56.53-25.36,56.53-56.53,56.53ZM77.44,25.9c-28.42,0-51.54,23.12-51.54,51.54s23.12,51.54,51.54,51.54,51.54-23.12,51.54-51.54-23.12-51.54-51.54-51.54Z"/>
        <path class="cls-1" d="M77.44,133.97c-17.82,0-31.77-24.83-31.77-56.53s13.96-56.53,31.77-56.53,31.77,24.83,31.77,56.53-13.96,56.53-31.77,56.53ZM77.44,25.9c-14.51,0-26.78,23.6-26.78,51.54s12.27,51.54,26.78,51.54,26.78-23.6,26.78-51.54-12.27-51.54-26.78-51.54Z"/>
        <path class="cls-1" d="M117.55,116.14c-.6,0-1.2-.21-1.68-.64-8.85-8-23.22-12.77-38.44-12.77s-29.59,4.77-38.44,12.77c-1.02.92-2.6.84-3.53-.18-.92-1.02-.84-2.6.18-3.53,9.74-8.8,25.36-14.06,41.78-14.06s32.04,5.26,41.79,14.06c1.02.92,1.1,2.5.18,3.53-.49.54-1.17.82-1.85.82Z"/>
        <path class="cls-1" d="M77.44,57.15c-16.42,0-32.04-5.26-41.78-14.06-1.02-.92-1.1-2.5-.18-3.53.93-1.02,2.51-1.1,3.53-.18,8.85,8,23.22,12.77,38.44,12.77s29.59-4.77,38.44-12.77c1.02-.93,2.6-.85,3.53.18.92,1.02.84,2.6-.18,3.53-9.75,8.81-25.37,14.06-41.79,14.06Z"/>
        <path class="cls-1" d="M131.47,79.94H23.4c-1.38,0-2.5-1.12-2.5-2.5s1.12-2.5,2.5-2.5h108.07c1.38,0,2.5,1.12,2.5,2.5s-1.12,2.5-2.5,2.5Z"/>
        <path class="cls-1" d="M77.44,133.97c-1.38,0-2.5-1.12-2.5-2.5V23.41c0-1.38,1.12-2.5,2.5-2.5s2.5,1.12,2.5,2.5v108.07c0,1.38-1.12,2.5-2.5,2.5Z"/>
      </g>
      <path class="cls-1" d="M77.44,154.88C34.74,154.88,0,120.14,0,77.44S34.74,0,77.44,0c15.6,0,30.64,4.62,43.49,13.36,1.14.78,1.44,2.33.66,3.47-.77,1.14-2.33,1.44-3.47.66-12.02-8.18-26.09-12.5-40.69-12.5C37.49,4.99,4.99,37.49,4.99,77.44s32.5,72.45,72.45,72.45,72.45-32.5,72.45-72.45c0-12.52-3.25-24.86-9.38-35.69-.68-1.2-.26-2.72.94-3.4,1.2-.68,2.72-.26,3.4.94,6.56,11.57,10.03,24.76,10.03,38.15,0,42.7-34.74,77.44-77.44,77.44Z"/>
      <path class="cls-1" d="M132.01,39.24c-7.26,0-13.16-5.9-13.16-13.16s5.9-13.16,13.16-13.16,13.16,5.9,13.16,13.16-5.9,13.16-13.16,13.16ZM132.01,17.92c-4.5,0-8.17,3.66-8.17,8.16s3.66,8.16,8.17,8.16,8.16-3.66,8.16-8.16-3.66-8.16-8.16-8.16Z"/>
    </g>
  </g>
</svg>