<?xml version="1.0" encoding="UTF-8" standalone="no"?>
<svg
   id="Capa_2"
   data-name="Capa 2"
   viewBox="0 0 154.88 154.88"
   version="1.1"
   sodipodi:docname="c_fbd2fc3f_new.svg"
   inkscape:version="1.4 (86a8ad7, 2024-10-11)"
   xmlns:inkscape="http://www.inkscape.org/namespaces/inkscape"
   xmlns:sodipodi="http://sodipodi.sourceforge.net/DTD/sodipodi-0.dtd"
   xmlns="http://www.w3.org/2000/svg"
   xmlns:svg="http://www.w3.org/2000/svg">
  <sodipodi:namedview
     id="namedview8"
     pagecolor="#ffffff"
     bordercolor="#000000"
     borderopacity="0.25"
     inkscape:showpageshadow="2"
     inkscape:pageopacity="0.0"
     inkscape:pagecheckerboard="0"
     inkscape:deskcolor="#d1d1d1"
     inkscape:zoom="3.7208937"
     inkscape:cx="86.538351"
     inkscape:cy="65.978774"
     inkscape:window-width="1920"
     inkscape:window-height="1017"
     inkscape:window-x="1912"
     inkscape:window-y="-8"
     inkscape:window-maximized="1"
     inkscape:current-layer="g8" />
  <defs
     id="defs1">
    <style
       id="style1">
      .cls-1 {
        fill: #b2b2b2;
      }
    </style>
  </defs>
  <g
     id="Capa_1-2"
     data-name="Capa 1">
    <g
       id="g8">
      <g
         id="g6"
         style="display:none">
        <path
           class="cls-1"
           d="m 77.44,133.97 c -31.17,0 -56.53,-25.36 -56.53,-56.53 0,-31.17 25.36,-56.53 56.53,-56.53 31.17,0 56.53,25.36 56.53,56.53 0,31.17 -25.36,56.53 -56.53,56.53 z m 0,-108.07 c -28.42,0 -51.54,23.12 -51.54,51.54 0,28.42 23.12,51.54 51.54,51.54 28.42,0 51.54,-23.12 51.54,-51.54 0,-28.42 -23.12,-51.54 -51.54,-51.54 z"
           id="path1" />
        <path
           class="cls-1"
           d="m 77.44,133.97 c -17.82,0 -31.77,-24.83 -31.77,-56.53 0,-31.7 13.96,-56.53 31.77,-56.53 17.81,0 31.77,24.83 31.77,56.53 0,31.7 -13.96,56.53 -31.77,56.53 z m 0,-108.07 c -14.51,0 -26.78,23.6 -26.78,51.54 0,27.94 12.27,51.54 26.78,51.54 14.51,0 26.78,-23.6 26.78,-51.54 C 104.22,49.5 91.95,25.9 77.44,25.9 Z"
           id="path2" />
        <path
           class="cls-1"
           d="m 117.55,116.14 c -0.6,0 -1.2,-0.21 -1.68,-0.64 -8.85,-8 -23.22,-12.77 -38.44,-12.77 -15.22,0 -29.59,4.77 -38.44,12.77 -1.02,0.92 -2.6,0.84 -3.53,-0.18 -0.92,-1.02 -0.84,-2.6 0.18,-3.53 9.74,-8.8 25.36,-14.06 41.78,-14.06 16.42,0 32.04,5.26 41.79,14.06 1.02,0.92 1.1,2.5 0.18,3.53 -0.49,0.54 -1.17,0.82 -1.85,0.82 z"
           id="path3" />
        <path
           class="cls-1"
           d="m 77.44,57.15 c -16.42,0 -32.04,-5.26 -41.78,-14.06 -1.02,-0.92 -1.1,-2.5 -0.18,-3.53 0.93,-1.02 2.51,-1.1 3.53,-0.18 8.85,8 23.22,12.77 38.44,12.77 15.22,0 29.59,-4.77 38.44,-12.77 1.02,-0.93 2.6,-0.85 3.53,0.18 0.92,1.02 0.84,2.6 -0.18,3.53 -9.75,8.81 -25.37,14.06 -41.79,14.06 z"
           id="path4" />
        <path
           class="cls-1"
           d="M 131.47,79.94 H 23.4 c -1.38,0 -2.5,-1.12 -2.5,-2.5 0,-1.38 1.12,-2.5 2.5,-2.5 h 108.07 c 1.38,0 2.5,1.12 2.5,2.5 0,1.38 -1.12,2.5 -2.5,2.5 z"
           id="path5" />
        <path
           class="cls-1"
           d="m 77.44,133.97 c -1.38,0 -2.5,-1.12 -2.5,-2.5 V 23.41 c 0,-1.38 1.12,-2.5 2.5,-2.5 1.38,0 2.5,1.12 2.5,2.5 v 108.07 c 0,1.38 -1.12,2.5 -2.5,2.5 z"
           id="path6" />
      </g>
      <path
         d="M 77.439453,0 C 34.739453,0 0,34.739453 0,77.439453 c 0,42.699997 34.739453,77.441407 77.439453,77.441407 42.699997,0 77.441407,-34.74141 77.441407,-77.441407 0,-13.39 -6.09039,-31.047187 -12.65039,-42.617187 -0.0515,-0.09092 -0.1366,-0.144745 -0.19727,-0.226563 -0.27188,0.319588 -0.55861,0.625733 -0.85937,0.917969 -0.30039,0.291869 -0.6144,0.569626 -0.94141,0.832031 -0.3268,0.26224 -0.66636,0.509599 -1.01758,0.740234 -0.35111,0.230572 -0.71259,0.445768 -1.08593,0.642579 -5e-4,2.62e-4 -10e-4,-2.63e-4 -0.002,0 6.04308,10.840879 11.76368,27.353013 11.76367,39.710937 0,39.949997 -32.50117,72.451177 -72.451167,72.451167 -39.95,0 -72.4492186,-32.50117 -72.4492186,-72.451167 0,-39.95 32.4994536,-72.4492186 72.4394526,-72.4492186 14.575262,0 31.701743,5.5108056 43.718753,13.6679686 0.23242,-0.339156 0.47987,-0.667084 0.74219,-0.982422 0.003,-0.0032 0.005,-0.0065 0.008,-0.0098 0.78855,-0.946136 2.08753,-1.54275 3.10858,-2.237064 -0.16619,-0.23137 -0.73661,-0.68832 -0.98554,-0.858639 C 111.17148,5.8303119 93.039453,0 77.439453,0 Z"
         style="baseline-shift:baseline;display:inline;overflow:visible;vector-effect:none;fill:#b2b2b2;enable-background:accumulate;stop-color:#000000;stop-opacity:1"
         id="path27"
         sodipodi:nodetypes="ssssccsssscsssscccccs" />
      <path
         d="m 132.00977,12.919922 c -7.26,0 -13.16016,5.900156 -13.16016,13.160156 0,7.26 5.90016,13.160156 13.16016,13.160156 7.26,0 13.16015,-5.900156 13.16015,-13.160156 0,-7.26 -5.90015,-13.160156 -13.16015,-13.160156 z m 0,5 c 4.5,0 8.16015,3.660156 8.16015,8.160156 0,4.5 -3.65015,8.160156 -8.16015,8.160156 -4.51,0 -8.16993,-3.660156 -8.16993,-8.160156 0,-4.5 3.66993,-8.160156 8.16993,-8.160156 z"
         style="baseline-shift:baseline;display:inline;overflow:visible;vector-effect:none;fill:#b2b2b2;enable-background:accumulate;stop-color:#000000;stop-opacity:1"
         id="path26" />
      <path
         style="opacity:1;fill:#b2b2b2;fill-opacity:1;fill-rule:evenodd;stroke-width:0.00292102"
         d="M 76.786961,4.0620366 C 67.505363,3.910881 58.278038,5.9623196 49.677478,9.3587855 30.059432,17.246694 14.20448,33.929588 7.5662118,53.966906 4.6189056,62.602941 3.3525419,71.776264 3.7964864,80.885364 4.5169333,98.796991 12.259744,116.27941 24.942045,128.98098 c 12.042088,12.35027 28.608898,20.07509 45.795733,21.65271 14.646703,1.25737 29.690352,-1.74938 42.521962,-8.96314 12.27862,-6.79861 22.4803,-17.17334 29.14627,-29.4855 6.75438,-12.469138 9.88726,-26.984149 8.35646,-41.102846 -1.67374,-11.613286 -5.60165,-22.880373 -11.21273,-33.177702 -0.41631,-0.892582 -1.48947,0.106527 -2.1485,0.124683 -3.79355,1.171065 -8.10032,0.751317 -11.49823,-1.351907 -3.4144,-2.225272 -6.30417,-5.847296 -6.33512,-10.079964 -0.26553,-3.052325 0.55508,-6.074533 2.00372,-8.745764 0.21227,-0.735366 -1.20067,-0.873844 -1.58935,-1.344371 C 108.74781,9.7229759 95.988769,5.4247452 82.907259,4.1784393 80.869446,4.0679447 78.82732,4.0544511 76.786961,4.0620366 Z m 1.224904,15.9908324 c 16.92793,0.07284 33.574975,8.122592 44.142335,21.292985 9.09606,11.047836 13.73831,25.576029 12.72746,39.829787 -0.58138,9.970637 -3.98122,19.686239 -9.50844,27.999949 -10.30405,15.61938 -28.657632,25.67393 -47.457758,25.63747 -16.059201,0.2139 -32.0078,-6.72065 -42.818249,-18.54578 C 26.498695,106.9663 20.976459,94.762295 20.072341,82.123006 19.789544,75.689649 19.899474,69.150246 21.726256,62.92144 26.056069,46.158624 38.455056,31.733548 54.401446,24.872355 61.8137,21.631028 69.916898,19.972493 78.011865,20.052869 Z"
         id="path29" />
      <path
         style="opacity:1;fill:#b2b2b2;fill-opacity:1;fill-rule:evenodd;stroke-width:0.00406303"
         d="m 117.12629,45.292694 c -3.43488,1.832553 -6.62916,4.149211 -10.18846,5.78973 -1.86151,0.280003 -0.43522,2.132488 -0.40365,3.240778 1.54063,6.724086 2.62934,13.610875 2.57939,20.524409 6.59319,0 13.18638,0 19.77957,0 -0.68155,-10.492625 -4.33741,-20.964813 -11.02778,-29.13919 -0.20778,-0.173386 -0.43916,-0.450969 -0.73907,-0.415727 z"
         id="path30" />
      <path
         id="path26-2"
         style="baseline-shift:baseline;display:inline;overflow:visible;vector-effect:none;fill:#ffffff;fill-opacity:1;enable-background:accumulate;stop-color:#000000"
         d="m 124.70322,15.190454 c -6.45304,3.670954 -8.30885,13.490592 -2.65726,19.536431 5.9781,6.395129 15.51434,5.637041 20.42512,-0.144832 0,0 -3.88888,-7.57115 -7.65273,-11.545186 -3.1437,-3.319253 -10.11513,-7.846413 -10.11513,-7.846413 z"
         sodipodi:nodetypes="cscsc" />
      <path
         style="opacity:1;fill:#b2b2b2;fill-opacity:1;fill-rule:evenodd;stroke-width:0.00406303"
         d="m 109.11357,81.767991 c -0.19517,7.183595 -1.50819,14.342489 -3.09905,21.299169 2.44518,1.92492 5.56846,2.93001 8.10405,4.79398 1.15733,0.57275 2.87229,2.5892 4.03234,0.9842 6.4564,-8.20863 10.15805,-18.48119 10.73803,-28.891429 -6.59179,0 -13.18358,0 -19.77537,0 0,0.604693 0,1.209387 0,1.81408 z"
         id="path31" />
      <path
         style="opacity:1;fill:#b2b2b2;fill-opacity:1;fill-rule:evenodd;stroke-width:0.00406303"
         d="m 92.114968,79.953386 c -4.008894,1.75e-4 -8.017787,3.5e-4 -12.026681,5.25e-4 0,5.898211 0,11.796421 0,17.694632 6.819974,0.535588 13.651181,1.574031 20.198443,3.534207 1.38018,0.0742 1.00018,-2.088947 1.49706,-2.921115 1.4455,-5.991307 2.11226,-12.157616 2.35786,-18.308774 -4.00889,1.75e-4 -8.017788,3.5e-4 -12.026682,5.25e-4 z"
         id="path32" />
      <path
         style="opacity:1;fill:#b2b2b2;fill-opacity:1;fill-rule:evenodd;stroke-width:0.00406303"
         d="m 50.899231,83.246131 c 0.390652,5.978037 1.19392,12.021993 3.024517,17.726649 1.360862,0.65227 2.906381,-0.71922 4.328021,-0.80615 5.489953,-1.318075 11.098139,-2.138952 16.730218,-2.520712 0,-5.897335 0,-11.794671 0,-17.692007 -8.089524,0 -16.179049,0 -24.268573,0 0.06194,1.097407 0.123878,2.194813 0.185817,3.29222 z"
         id="path33" />
      <path
         style="opacity:1;fill:#b2b2b2;fill-opacity:1;fill-rule:evenodd;stroke-width:0.00406303"
         d="m 54.148933,53.618777 c -1.395458,2.56189 -1.518508,5.714261 -2.148446,8.554417 -0.656774,4.192683 -1.280499,8.419351 -1.206238,12.674417 8.06258,0 16.125159,0 24.187738,0 0,-5.888063 0,-11.776125 0,-17.664187 -7.021056,-0.280419 -13.939505,-1.616986 -20.679256,-3.551 -0.05044,-0.0029 -0.102582,-0.02383 -0.153798,-0.01365 z"
         id="path34" />
      <path
         style="opacity:1;fill:#b2b2b2;fill-opacity:1;fill-rule:evenodd;stroke-width:0.00406303"
         d="m 37.648466,45.28797 c -2.589659,2.041182 -3.996467,5.274932 -5.667655,8.068756 -3.494708,6.623221 -5.557751,14.013333 -5.988966,21.490885 6.539997,0 13.079995,0 19.619993,0 0.267457,-7.796289 1.432202,-15.553716 3.28697,-23.111678 C 45.76065,49.744425 42.332601,48.186289 39.266231,46.048036 38.74176,45.788212 38.235746,45.379624 37.648466,45.28797 Z"
         id="path35" />
      <path
         style="opacity:1;fill:#b2b2b2;fill-opacity:1;fill-rule:evenodd;stroke-width:0.00406303"
         d="m 26.069006,80.912917 c 0.751179,10.153755 4.45427,20.200323 10.862961,28.142913 1.048067,1.17702 2.405348,-0.57474 3.444672,-0.97751 2.697028,-1.92274 5.861427,-3.1309 8.536342,-5.04108 -1.936406,-7.548399 -3.02772,-15.294362 -3.301143,-23.083329 -6.514277,0 -13.028555,0 -19.542832,0 0,0.319669 0,0.639337 0,0.959006 z"
         id="path36" />
      <path
         style="opacity:1;fill:#b2b2b2;fill-opacity:1;fill-rule:evenodd;stroke-width:0.00406303"
         d="m 74.108541,26.340383 c -7.580705,2.235992 -12.482785,9.095549 -15.925122,15.810145 -0.915076,2.02034 -2.103233,4.094878 -2.491258,6.245419 3.41184,1.765178 7.395169,2.155657 11.13261,2.910327 2.694422,0.467345 5.423394,0.68601 8.157216,0.697362 0,-8.614257 0,-17.228514 0,-25.842771 -0.291148,0.05984 -0.582297,0.119679 -0.873446,0.179518 z"
         id="path37" />
      <path
         style="opacity:1;fill:#b2b2b2;fill-opacity:1;fill-rule:evenodd;stroke-width:0.00406303"
         d="m 59.21954,29.478281 c -4.790697,1.26845 -8.938728,4.251445 -12.966482,7.042218 -1.517815,1.376327 -3.830791,2.473034 -4.365439,4.568211 0.919922,1.944889 3.377997,2.577183 5.05992,3.753459 1.126174,0.4008 2.353669,1.656672 3.550663,1.383285 1.844353,-3.346079 3.072249,-7.054924 5.175194,-10.289624 1.133582,-2.263492 3.055386,-4.071529 4.225899,-6.258085 -0.05077,-0.298579 -0.481154,-0.201896 -0.679755,-0.199464 z"
         id="path38" />
      <path
         style="opacity:1;fill:#b2b2b2;fill-opacity:1;fill-rule:evenodd;stroke-width:0.00406303"
         d="m 80.088287,39.277779 c 0,4.268373 0,8.536745 0,12.805118 C 86.558456,51.66035 93.171263,50.878728 99.232714,48.5214 97.790077,43.591741 95.202839,38.96702 92.162898,34.827634 89.30605,31.066438 85.529343,27.602907 80.834706,26.472135 c -1.587895,0.09426 -0.359352,3.004956 -0.746419,4.300043 0,2.8352 0,5.6704 0,8.505601 z"
         id="path39" />
      <path
         style="opacity:1;fill:#b2b2b2;fill-opacity:1;fill-rule:evenodd;stroke-width:0.00406303"
         d="m 96.630747,30.014211 c -1.161078,0.494451 0.291118,2.078509 0.588422,2.81088 2.847771,4.075371 4.953411,8.589576 6.905161,13.135285 0.81042,1.046483 2.19734,-0.440396 3.11742,-0.686054 2.12287,-1.285714 4.56974,-2.380911 6.17187,-4.297418 -1.42935,-2.398782 -4.1192,-3.812458 -6.28646,-5.508869 -3.28088,-2.106572 -6.57721,-4.565065 -10.422926,-5.458548 z"
         id="path40" />
      <path
         style="opacity:1;fill:#b2b2b2;fill-opacity:1;fill-rule:evenodd;stroke-width:0.00406303"
         d="m 100.66414,53.632949 c -6.701799,1.95437 -13.605061,3.166235 -20.575853,3.57777 0,5.878964 0,11.757928 0,17.636892 8.018837,0 16.037674,0 24.056513,0 -0.36835,-7.010186 -1.05851,-14.101136 -3.06704,-20.846702 -0.0851,-0.148236 -0.17767,-0.465387 -0.41362,-0.36796 z"
         id="path41" />
      <path
         style="opacity:1;fill:#b2b2b2;fill-opacity:1;fill-rule:evenodd;stroke-width:0.00406303"
         d="m 80.088287,115.68804 c 0,4.31754 0,8.63508 0,12.95262 6.930763,-1.46129 11.714117,-7.48149 15.173758,-13.24353 1.515278,-2.83858 3.208239,-5.75332 3.894557,-8.89917 -0.979637,-1.09289 -2.874591,-0.97162 -4.202909,-1.51764 -4.873378,-1.20438 -9.863693,-1.87358 -14.865406,-2.24542 0,4.31771 0,8.63542 0,12.95314 z"
         id="path42" />
      <path
         style="opacity:1;fill:#b2b2b2;fill-opacity:1;fill-rule:evenodd;stroke-width:0.00406303"
         d="m 72.630402,102.92019 c -5.582492,0.60215 -11.272357,1.27353 -16.563457,3.22188 -0.928333,0.66456 0.371279,2.05498 0.455109,2.91115 3.082097,7.35238 7.646581,14.824 14.997643,18.51558 0.95876,0.14916 2.251217,1.5763 3.081732,0.6787 0.768781,-3.85898 0.217748,-7.88377 0.381659,-11.80621 -0.0025,-4.56897 -3.94e-4,-9.13795 -0.0011,-13.70692 -0.783862,0.0619 -1.567723,0.12388 -2.351585,0.18582 z"
         id="path43" />
      <path
         style="opacity:1;fill:#b2b2b2;fill-opacity:1;fill-rule:evenodd;stroke-width:0.00406303"
         d="m 49.953348,108.76241 c -2.943034,0.99733 -5.809575,2.58441 -8.127668,4.65278 -0.513789,1.5994 1.731446,2.4753 2.60984,3.49378 4.37074,3.45162 9.11513,6.7223 14.463301,8.40797 1.373938,0.26666 0.45663,-1.34527 -0.09133,-1.73587 -3.461112,-4.3503 -5.686409,-9.49711 -8.037908,-14.47327 -0.188148,-0.24749 -0.508048,-0.3827 -0.816231,-0.34539 z"
         id="path44" />
      <path
         style="opacity:1;fill:#b2b2b2;fill-opacity:1;fill-rule:evenodd;stroke-width:0.00406303"
         d="m 104.64241,108.71464 c -1.43028,0.86097 -1.46582,3.01491 -2.35255,4.36262 -1.57698,3.87295 -4.207476,7.18072 -6.041245,10.90222 -0.299285,1.41419 1.708795,0.73929 2.366283,0.40418 5.160982,-2.47199 10.105552,-5.62722 14.182472,-9.6625 1.12978,-1.52425 -1.35817,-2.43877 -2.29632,-3.19472 -1.85005,-1.06621 -3.73579,-2.4193 -5.85864,-2.8118 z"
         id="path45" />
      <path
         id="path46"
         style="opacity:1;fill:#b2b2b2;fill-opacity:1;fill-rule:evenodd;stroke-width:0.002873"
         d="m 129.38867,18.339844 c -1.78063,0.608374 -3.34627,1.799796 -4.25781,3.529297 -2.41406,3.970479 -0.60593,9.781236 3.76367,11.488281 3.86522,1.758827 8.94312,-0.06124 10.59766,-4.00586 0,0 -1.24756,-2.849084 -4.1966,-6.170988 -2.64672,-2.98136 -5.90692,-4.84073 -5.90692,-4.84073 z"
         sodipodi:nodetypes="ccccsc" />
    </g>
  </g>
</svg>
