<?xml version="1.0" encoding="UTF-8"?>
<svg id="Capa_2" data-name="Capa 2" xmlns="http://www.w3.org/2000/svg" viewBox="0 0 170.79 166.97">
  <defs>
    <style>
      .cls-1 {
        fill: #95c11f;
      }
    </style>
  </defs>
  <g id="Capa_1-2" data-name="Capa 1">
    <g>
      <path class="cls-1" d="M81.93,166.97c-.06,0-.12,0-.18,0-16.58-1.22-35.41-16.2-44.77-35.6-8.37-17.34-7.62-34.74,2.1-49,15.9-23.33,16.1-29.67,15.99-30.67-.45-.61-.6-1.41-.38-2.17.31-1.07,1.29-1.8,2.4-1.8,6.07,0,9.48,3.84,11.24,7.99,11.09-22.75,7.93-37.93,7.9-38.09-.22-.99.18-2.02,1.02-2.6.84-.57,1.94-.59,2.79-.03,39.36,26.11,47.76,46.81,49.48,55.69,5.16-4.1,7.33-8.83,7.36-8.89.34-.75,1.02-1.29,1.83-1.43.8-.15,1.64.1,2.22.69,16.27,16.28,23.56,33.39,21.67,50.88-3.49,32.2-36.63,53.76-38.04,54.66-.86.55-1.99.52-2.82-.09-34.41-25.21-38.26-51.94-37.87-64.35-22.15,24.22-.78,59.44.2,61.02.49.8.5,1.81.01,2.61-.45.75-1.27,1.2-2.13,1.2ZM87.08,93.2c.46,0,.93.13,1.34.39.91.58,1.34,1.67,1.08,2.71-.34,1.38-7.67,33.92,33.74,65.11,6.28-4.44,31.53-23.84,34.36-50.06,1.62-15.08-4.42-30.02-17.96-44.44-1.89,2.86-5.39,7.12-10.99,10.35-.81.47-1.82.44-2.6-.06-.79-.5-1.22-1.41-1.13-2.34.01-.2,1.09-21.93-43.27-52.74.23,7.67-1.18,22.66-12.1,41.91-.55.97-1.67,1.46-2.76,1.19-1.08-.27-1.86-1.22-1.9-2.33-.01-.35-.38-7.43-4.95-9.58-.81,6.02-6.43,16.7-16.76,31.85-11.7,17.17-6.1,34.95-1.73,44.02,7.59,15.74,22.36,28.67,35.89,32.02-5.96-12.14-18.77-45.68,8.17-67.46.46-.37,1.01-.55,1.57-.55Z"/>
      <g>
        <path class="cls-1" d="M51.62,25.99c-.45.45-1.07.73-1.76.73h-21.18c-1.38,0-2.5-1.12-2.5-2.5,0-1.38,1.12-2.5,2.5-2.5h21.18c1.38,0,2.5,1.12,2.5,2.5,0,.69-.28,1.31-.73,1.76Z"/>
        <path class="cls-1" d="M41.03,36.58c-.45.45-1.07.73-1.76.73-1.38,0-2.5-1.12-2.5-2.5V13.63c0-1.38,1.12-2.5,2.5-2.5,1.38,0,2.5,1.12,2.5,2.5v21.18c0,.69-.28,1.31-.73,1.76Z"/>
      </g>
      <g>
        <path class="cls-1" d="M170.06,37.03c-.45.45-1.07.73-1.76.73h-21.18c-1.38,0-2.5-1.12-2.5-2.5,0-1.38,1.12-2.5,2.5-2.5h21.18c1.38,0,2.5,1.12,2.5,2.5,0,.69-.28,1.31-.73,1.76Z"/>
        <path class="cls-1" d="M159.47,47.62c-.45.45-1.07.73-1.76.73-1.38,0-2.5-1.12-2.5-2.5v-21.18c0-1.38,1.12-2.5,2.5-2.5s2.5,1.12,2.5,2.5v21.18c0,.69-.28,1.31-.73,1.76Z"/>
      </g>
      <g>
        <path class="cls-1" d="M143.89,14.85c-.45.45-1.07.73-1.76.73h-21.18c-1.38,0-2.5-1.12-2.5-2.5,0-1.38,1.12-2.5,2.5-2.5h21.18c1.38,0,2.5,1.12,2.5,2.5,0,.69-.28,1.31-.73,1.76Z"/>
        <path class="cls-1" d="M133.29,25.44c-.45.45-1.07.73-1.76.73-1.38,0-2.5-1.12-2.5-2.5V2.5C129.03,1.12,130.15,0,131.53,0c1.38,0,2.5,1.12,2.5,2.5v21.18c0,.69-.28,1.31-.73,1.76Z"/>
      </g>
      <g>
        <path class="cls-1" d="M25.44,48.07c-.45.45-1.07.73-1.76.73H2.5C1.12,48.8,0,47.68,0,46.3c0-1.38,1.12-2.5,2.5-2.5h21.18c1.38,0,2.5,1.12,2.5,2.5,0,.69-.28,1.31-.73,1.76Z"/>
        <path class="cls-1" d="M14.85,58.66c-.45.45-1.07.73-1.76.73-1.38,0-2.5-1.12-2.5-2.5v-21.18c0-1.38,1.12-2.5,2.5-2.5,1.38,0,2.5,1.12,2.5,2.5v21.18c0,.69-.28,1.31-.73,1.76Z"/>
      </g>
    </g>
  </g>
</svg>