<?xml version="1.0" encoding="UTF-8"?>
<svg id="Capa_2" data-name="Capa 2" xmlns="http://www.w3.org/2000/svg" viewBox="0 0 187.5 107.44">
  <defs>
    <style>
      .cls-1 {
        fill: #95c11f;
      }
    </style>
  </defs>
  <g id="Capa_1-2" data-name="Capa 1">
    <g>
      <path class="cls-1" d="M48.52,85.97h-28.64c-10.96,0-19.89-8.92-19.89-19.89,0-6.97,3.59-13.3,9.49-16.92,0-.1,0-.2,0-.31,0-11.93,9.71-21.64,21.64-21.64,1.97,0,3.9.26,5.78.78,5.91-13.31,19.21-22.08,33.89-22.08,15.89,0,30.01,10.1,35.13,25.13.47,1.39-.27,2.9-1.66,3.38-1.38.47-2.9-.27-3.38-1.66-4.39-12.88-16.48-21.52-30.09-21.52s-25.32,8.44-29.86,21c-.25.68-.76,1.24-1.43,1.53-.66.29-1.42.3-2.1.02-1.99-.83-4.1-1.25-6.28-1.25-9,0-16.31,7.32-16.31,16.32,0,.53.03,1.05.08,1.56.11,1.1-.47,2.14-1.46,2.64-5,2.5-8.11,7.49-8.11,13.02,0,8.03,6.53,14.56,14.56,14.56h28.64c1.47,0,2.66,1.19,2.66,2.66s-1.19,2.66-2.66,2.66Z"/>
      <g>
        <path class="cls-1" d="M164.36,46.27H51.51c-1.38,0-2.49-1.12-2.49-2.5s1.12-2.49,2.49-2.49h112.85c10.01,0,18.15-8.14,18.15-18.14s-8.14-18.14-18.15-18.14c-6.57,0-12.65,3.57-15.85,9.32-.67,1.2-2.19,1.63-3.39.96-1.2-.67-1.63-2.19-.96-3.4,4.08-7.32,11.83-11.87,20.21-11.87,12.76,0,23.14,10.38,23.14,23.13s-10.38,23.13-23.14,23.13Z"/>
        <path class="cls-1" d="M153.18,107.44c-6.9,0-13.28-3.75-16.65-9.78-.67-1.2-.24-2.72.96-3.4,1.2-.67,2.72-.24,3.39.96,2.49,4.45,7.2,7.22,12.29,7.22,7.75,0,14.06-6.31,14.06-14.06s-6.31-14.06-14.06-14.06H55.87c-1.38,0-2.5-1.12-2.5-2.5s1.12-2.5,2.5-2.5h97.31c10.51,0,19.05,8.55,19.05,19.05s-8.55,19.05-19.05,19.05Z"/>
        <path class="cls-1" d="M142.1,60.94H36.92c-1.38,0-2.5-1.12-2.5-2.5s1.12-2.5,2.5-2.5h105.18c1.38,0,2.49,1.12,2.49,2.5s-1.12,2.5-2.49,2.5Z"/>
      </g>
    </g>
  </g>
</svg>