<?xml version="1.0" encoding="UTF-8"?>
<svg id="Capa_2" xmlns="http://www.w3.org/2000/svg" version="1.1" viewBox="0 0 170.8 167">
  <!-- Generator: Adobe Illustrator 29.4.0, SVG Export Plug-In . SVG Version: 2.1.0 Build 152)  -->
  <defs>
    <style>
      .st0 {
        fill: #95c11f;
      }
    </style>
  </defs>
  <g id="Capa_1-2">
    <g>
      <path class="st0" d="M81.9,167h-.2c-16.6-1.2-35.4-16.2-44.8-35.6-8.4-17.3-7.6-34.7,2.1-49,15.9-23.3,16.1-29.7,16-30.7-.5-.6-.6-1.4-.4-2.2.3-1.1,1.3-1.8,2.4-1.8,6.1,0,9.5,3.8,11.2,8,11.1-22.8,7.9-37.9,7.9-38.1-.2-1,.2-2,1-2.6.8-.6,1.9-.6,2.8,0,39.4,26.1,47.8,46.8,49.5,55.7,5.2-4.1,7.3-8.8,7.4-8.9.3-.8,1-1.3,1.8-1.4.8-.2,1.6,0,2.2.7,16.3,16.3,23.6,33.4,21.7,50.9-3.5,32.2-36.6,53.8-38,54.7-.9.6-2,.5-2.8,0-34.4-25.2-38.3-51.9-37.9-64.3-22.2,24.2-.8,59.4.2,61,.5.8.5,1.8,0,2.6-.4.8-1.3,1.2-2.1,1.2h0Z"/>
      <g>
        <path class="st0" d="M51.6,26c-.5.5-1.1.7-1.8.7h-21.2c-1.4,0-2.5-1.1-2.5-2.5s1.1-2.5,2.5-2.5h21.2c1.4,0,2.5,1.1,2.5,2.5s-.3,1.3-.7,1.8h0Z"/>
        <path class="st0" d="M41,36.6c-.5.5-1.1.7-1.8.7-1.4,0-2.5-1.1-2.5-2.5V13.6c0-1.4,1.1-2.5,2.5-2.5s2.5,1.1,2.5,2.5v21.2c0,.7-.3,1.3-.7,1.8h0Z"/>
      </g>
      <g>
        <path class="st0" d="M170.1,37c-.4.5-1.1.7-1.8.7h-21.2c-1.4,0-2.5-1.1-2.5-2.5s1.1-2.5,2.5-2.5h21.2c1.4,0,2.5,1.1,2.5,2.5s-.3,1.3-.7,1.8h0Z"/>
        <path class="st0" d="M159.5,47.6c-.4.5-1.1.7-1.8.7-1.4,0-2.5-1.1-2.5-2.5v-21.2c0-1.4,1.1-2.5,2.5-2.5s2.5,1.1,2.5,2.5v21.2c0,.7-.3,1.3-.7,1.8h0Z"/>
      </g>
      <g>
        <path class="st0" d="M143.9,14.9c-.4.4-1.1.7-1.8.7h-21.2c-1.4,0-2.5-1.1-2.5-2.5s1.1-2.5,2.5-2.5h21.2c1.4,0,2.5,1.1,2.5,2.5s-.3,1.3-.7,1.8h0Z"/>
        <path class="st0" d="M133.3,25.4c-.4.5-1.1.7-1.8.7-1.4,0-2.5-1.1-2.5-2.5V2.5c0-1.4,1.1-2.5,2.5-2.5s2.5,1.1,2.5,2.5v21.2c0,.7-.3,1.3-.7,1.8h0Z"/>
      </g>
      <g>
        <path class="st0" d="M25.4,48.1c-.5.5-1.1.7-1.8.7H2.5c-1.4,0-2.5-1.1-2.5-2.5s1.1-2.5,2.5-2.5h21.2c1.4,0,2.5,1.1,2.5,2.5s-.3,1.3-.7,1.8h0Z"/>
        <path class="st0" d="M14.9,58.7c-.4.5-1.1.7-1.8.7-1.4,0-2.5-1.1-2.5-2.5v-21.2c0-1.4,1.1-2.5,2.5-2.5s2.5,1.1,2.5,2.5v21.2c0,.7-.3,1.3-.7,1.8h0Z"/>
      </g>
    </g>
  </g>
</svg>