<?xml version="1.0" encoding="UTF-8"?>
<svg id="Capa_2" xmlns="http://www.w3.org/2000/svg" version="1.1" viewBox="0 0 187.5 107.4">
  <!-- Generator: Adobe Illustrator 29.4.0, SVG Export Plug-In . SVG Version: 2.1.0 Build 152)  -->
  <defs>
    <style>
      .st0 {
        fill: #95c11f;
      }

      .st1 {
        fill: #fff;
      }
    </style>
  </defs>
  <path class="st0" d="M102.9,34.9c-58.4,2.1-51.7,48.4-51.7,48.4,0,1.5-1.2,2.7-2.7,2.7h0s-28.6,0-28.6,0C8.9,86,0,77.1,0,66.1s3.6-13.3,9.5-16.9v-.3c0-11.9,9.7-21.6,21.6-21.6s3.9.3,5.8.8c5.9-13.3,19.2-22.1,33.9-22.1s30,10.1,35.1,25.1c.5,1.4-.3,2.9-1.7,3.4"/>
  <path class="st0" d="M164.4,46.3H51.5c-1.4,0-2.5-1.1-2.5-2.5s1.1-2.5,2.5-2.5h112.9c10,0,18.1-8.1,18.1-18.1s-8.1-18.1-18.1-18.1-12.6,3.6-15.9,9.3c-.7,1.2-2.2,1.6-3.4,1s-1.6-2.2-1-3.4C148.2,4.6,156,0,164.4,0c12.8,0,23.1,10.4,23.1,23.1s-10.4,23.1-23.1,23.1h0Z"/>
  <path class="st0" d="M153.2,107.4c-6.9,0-13.3-3.8-16.6-9.8-.7-1.2-.2-2.7,1-3.4,1.2-.7,2.7-.2,3.4,1,2.5,4.4,7.2,7.2,12.3,7.2,7.8,0,14.1-6.3,14.1-14.1s-6.3-14.1-14.1-14.1H55.9c-1.4,0-2.5-1.1-2.5-2.5s1.1-2.5,2.5-2.5h97.3c10.5,0,19.1,8.6,19.1,19.1s-8.6,19.1-19.1,19.1h0Z"/>
  <path class="st0" d="M142.1,60.9H36.9c-1.4,0-2.5-1.1-2.5-2.5s1.1-2.5,2.5-2.5h105.2c1.4,0,2.5,1.1,2.5,2.5s-1.1,2.5-2.5,2.5Z"/>
  <path class="st1" d="M65.1,46.3h-13.6c-1.4,0-2.5-1.1-2.5-2.5s1.1-2.5,2.5-2.5h21.8l-8.2,5Z"/>
  <path class="st1" d="M54,60.9h-17.1c-1.4,0-2.5-1.1-2.5-2.5s1.1-2.5,2.5-2.5h19.5"/>
</svg>