<?xml version="1.0" encoding="UTF-8"?>
<svg id="Capa_2" xmlns="http://www.w3.org/2000/svg" version="1.1" viewBox="0 0 162.1 162.1">
  <!-- Generator: Adobe Illustrator 29.4.0, SVG Export Plug-In . SVG Version: 2.1.0 Build 152)  -->
  <defs>
    <style>
      .st0 {
        fill: #95c11f;
      }

      .st1 {
        fill: #fff;
      }
    </style>
  </defs>
  <path class="st0" d="M81.1,162.1C36.4,162.1,0,125.7,0,81.1S36.4,0,81.1,0s81.1,36.4,81.1,81.1-36.4,81.1-81.1,81.1Z"/>
  <path class="st1" d="M17.1,88.4c-.8,0-1.6-.4-2.1-1.1-.8-1.2-.4-2.7.7-3.5l.6-.4c9.3-6,12.3-8.7,22.7-18.4,1-.9,2.6-.9,3.5,0,1,1,.9,2.6,0,3.5-10.6,10.1-13.9,13-23.4,19l-.5.3c-.4.3-.9.4-1.4.4h0Z"/>
  <path class="st1" d="M63.7,71.6c-11.3,0-26-4.4-29.3-21.5,0-.2,0-.3,0-.5,0-3.6,1.6-5.4,3-6.3,4.4-2.8,11.5.3,12.8.9,4.9,2.6,12.8,5.9,15.7,5.2,2.9-.7,21.1-13.8,37.1-26.1.9-.7,2.1-.7,3,0,.9.6,1.3,1.8.9,2.8-.3,1-8.5,25.9-24.5,35.6-1.2.7-2.7.3-3.4-.8s-.3-2.7.8-3.4c9-5.5,15.5-16.8,19.1-24.6-10.5,7.9-27.8,20.6-31.8,21.5-5.6,1.3-16.8-4.5-19-5.6-2.2-1-6.4-2.2-7.9-1.2-.2.1-.7.4-.7,1.8,4.2,21.2,29.5,16.8,30.6,16.6,1.3-.3,2.7.7,2.9,2,.2,1.4-.6,2.7-2,2.9-2.1.4-4.6.6-7.2.6h0Z"/>
  <path class="st1" d="M105.7,134.7c-6.3,0-10.8-2.2-13.4-6.6-.5,0-1.1.2-1.7.3-6.4,1.3-19.6,4-34.7-5.1-1.2-.7-1.5-2.2-.8-3.4.7-1.2,2.2-1.6,3.4-.8,13.4,8.1,24.9,5.8,31.1,4.5,1.8-.4,3.1-.6,4.2-.6s1.9.6,2.3,1.5c2.2,4.8,7,6.3,15.3,4.7,5.1-.9,13.2-9.8,14.6-15.8-.4-4.7-17.8-27.8-42.7-54.8-.9-1-.9-2.6.1-3.5,1-.9,2.6-.9,3.5.1,20.3,21.9,45.5,52.1,43.9,59.2-1.8,8-11.5,18.3-18.5,19.6-2.3.4-4.5.7-6.5.7h0Z"/>
  <path class="st1" d="M97.2,69.3c-.6,0-1.2-.2-1.7-.7-1-.9-1.1-2.5-.1-3.5,5.6-6,9.7-15.5,12.3-22.8-7.8,8.4-17.8,18.6-18.4,19.2-1,1-2.6,1-3.5,0-1-1-1-2.5,0-3.5.2-.2,20.4-20.8,25.7-27.5.7-.9,2-1.2,3.1-.7,1.1.5,1.6,1.7,1.4,2.8-.2,1-5.7,23.9-16.7,36-.5.5-1.2.8-1.8.8h0Z"/>
</svg>