<?xml version="1.0" encoding="UTF-8"?>
<svg id="Capa_2" data-name="Capa 2" xmlns="http://www.w3.org/2000/svg" viewBox="0 0 163.07 186.4">
  <defs>
    <style>
      .cls-1 {
        fill: #95c11f;
      }
    </style>
  </defs>
  <g id="Capa_1-2" data-name="Capa 1">
    <g>
      <g>
        <path class="cls-1" d="M148.94,186.4c-2.55,0-4.94-.99-6.75-2.8l-42.57-42.57c-1.5-1.5-1.5-3.94,0-5.44l12.64-12.64c1.5-1.5,3.94-1.5,5.45,0l42.57,42.57c1.8,1.8,2.8,4.2,2.8,6.75s-.99,4.94-2.8,6.75l-4.59,4.59c-1.8,1.8-4.2,2.8-6.75,2.8ZM103.96,138.31l41.76,41.76c1.72,1.72,4.72,1.72,6.43,0l4.59-4.59h0c.86-.86,1.33-2,1.33-3.22s-.47-2.36-1.33-3.22l-41.76-41.76-11.02,11.02Z"/>
        <path class="cls-1" d="M103.1,138.13c-.64,0-1.28-.24-1.77-.73l-8.9-8.9c-.98-.98-.98-2.56,0-3.53s2.56-.97,3.53,0l7.13,7.13,5.67-5.67-7.13-7.13c-.98-.98-.98-2.55,0-3.53.98-.98,2.56-.98,3.53,0l8.9,8.9c.47.47.73,1.1.73,1.77s-.26,1.3-.73,1.76l-9.2,9.2c-.49.49-1.13.73-1.77.73Z"/>
        <path class="cls-1" d="M64.85,139.18c-13.62,0-26.43-5.31-36.06-14.94-19.88-19.88-19.88-52.24,0-72.12,9.63-9.63,22.44-14.94,36.06-14.94s26.43,5.31,36.06,14.94h0c9.63,9.63,14.94,22.44,14.94,36.06s-5.31,26.43-14.94,36.06c-9.63,9.63-22.44,14.94-36.06,14.94ZM64.85,42.18c-12.29,0-23.84,4.79-32.53,13.48-17.94,17.94-17.94,47.12,0,65.06,8.69,8.69,20.24,13.47,32.53,13.47s23.84-4.79,32.53-13.47c8.69-8.69,13.48-20.24,13.48-32.53s-4.79-23.84-13.48-32.53h0c-8.69-8.69-20.24-13.48-32.53-13.48Z"/>
        <g>
          <g>
            <path class="cls-1" d="M63.52,111.48c-16.51,0-32.12-7.24-46.41-21.53-.96-.96-.98-2.52-.03-3.5.84-.87,20.88-21.31,48.61-21.56.17,0,.34,0,.5,0,16.51,0,32.12,7.24,46.41,21.53.96.96.98,2.52.03,3.5-.84.87-20.88,21.31-48.61,21.56-.17,0-.34,0-.5,0ZM22.48,88.21c12.81,12.13,26.6,18.28,41.04,18.28.15,0,.3,0,.46,0,21.13-.19,37.89-13.52,43.25-18.33-12.81-12.13-26.6-18.28-41.04-18.28-.15,0-.3,0-.46,0-21.13.19-37.89,13.52-43.25,18.33Z"/>
            <path class="cls-1" d="M64.85,111.48c-12.85,0-23.3-10.45-23.3-23.3s10.45-23.3,23.3-23.3,23.3,10.45,23.3,23.3-10.45,23.3-23.3,23.3ZM64.85,69.88c-10.09,0-18.3,8.21-18.3,18.3s8.21,18.31,18.3,18.31,18.31-8.21,18.31-18.31-8.21-18.3-18.31-18.3Z"/>
          </g>
          <path class="cls-1" d="M76.02,93.18c-1.38,0-2.5-1.12-2.5-2.5,0-6.16-5.01-11.17-11.17-11.17-1.38,0-2.5-1.12-2.5-2.5s1.12-2.5,2.5-2.5c8.91,0,16.16,7.25,16.16,16.16,0,1.38-1.12,2.5-2.5,2.5Z"/>
        </g>
      </g>
      <path class="cls-1" d="M129.96,181.19v-.02H9.87c-2.69,0-4.88-2.19-4.88-4.88V9.87c0-2.69,2.19-4.88,4.88-4.88h113.18c2.69,0,4.88,2.19,4.88,4.88v115.5h.02c0,1.38,1.12,2.5,2.5,2.5s2.5-1.12,2.5-2.5c0-.06-.01-.12-.02-.18V9.87c0-5.44-4.43-9.87-9.87-9.87H9.87C4.43,0,0,4.43,0,9.87v166.42c0,5.44,4.43,9.87,9.87,9.87h120.09v-.02c1.29-.1,2.3-1.16,2.3-2.48s-1.02-2.38-2.3-2.48Z"/>
    </g>
  </g>
</svg>