<?xml version="1.0" encoding="UTF-8"?>
<svg id="Capa_2" xmlns="http://www.w3.org/2000/svg" version="1.1" viewBox="0 0 163.1 186.4">
  <!-- Generator: Adobe Illustrator 29.4.0, SVG Export Plug-In . SVG Version: 2.1.0 Build 152)  -->
  <defs>
    <style>
      .st0 {
        fill: #95c11f;
      }

      .st1 {
        fill: #fff;
      }
    </style>
  </defs>
  <path class="st0" d="M64.8,41.8c25.6,0,46.4,20.8,46.4,46.4s-20.8,46.4-46.4,46.4-46.4-20.8-46.4-46.4,20.8-46.4,46.4-46.4M64.8,34.8c-29.5,0-53.4,23.9-53.4,53.4s23.9,53.4,53.4,53.4,53.4-23.9,53.4-53.4-23.9-53.4-53.4-53.4h0Z"/>
  <g id="Capa_1-2">
    <g>
      <g>
        <path class="st0" d="M148.9,186.4c-2.6,0-4.9-1-6.8-2.8l-42.6-42.6c-1.5-1.5-1.5-3.9,0-5.4l12.6-12.6c1.5-1.5,3.9-1.5,5.4,0l42.6,42.6c1.8,1.8,2.8,4.2,2.8,6.8s-1,4.9-2.8,6.8l-4.6,4.6c-1.8,1.8-4.2,2.8-6.8,2.8h0Z"/>
        <path class="st0" d="M103.1,138.1c-.6,0-1.3-.2-1.8-.7l-8.9-8.9c-1-1-1-2.6,0-3.5s2.6-1,3.5,0l7.1,7.1,5.7-5.7-7.1-7.1c-1-1-1-2.6,0-3.5,1-1,2.6-1,3.5,0l8.9,8.9c.5.5.7,1.1.7,1.8s-.3,1.3-.7,1.8l-9.2,9.2c-.5.5-1.1.7-1.8.7h0Z"/>
        <path class="st0" d="M64.8,139.2c-13.6,0-26.4-5.3-36.1-14.9-19.9-19.9-19.9-52.2,0-72.1,9.6-9.6,22.4-14.9,36.1-14.9s26.4,5.3,36.1,14.9h0c9.6,9.6,14.9,22.4,14.9,36.1s-5.3,26.4-14.9,36.1c-9.6,9.6-22.4,14.9-36.1,14.9ZM64.8,42.2c-12.3,0-23.8,4.8-32.5,13.5-17.9,17.9-17.9,47.1,0,65.1,8.7,8.7,20.2,13.5,32.5,13.5s23.8-4.8,32.5-13.5c8.7-8.7,13.5-20.2,13.5-32.5s-4.8-23.8-13.5-32.5h0c-8.7-8.7-20.2-13.5-32.5-13.5Z"/>
        <g>
          <g>
            <path class="st0" d="M63.5,111.5c-16.5,0-32.1-7.2-46.4-21.5s-1-2.5,0-3.5c.8-.9,20.9-21.3,48.6-21.6h.5c16.5,0,32.1,7.2,46.4,21.5,1,1,1,2.5,0,3.5-.8.9-20.9,21.3-48.6,21.6h-.5ZM22.5,88.2c12.8,12.1,26.6,18.3,41,18.3h.5c21.1-.2,37.9-13.5,43.2-18.3-12.8-12.1-26.6-18.3-41-18.3h-.5c-21.1.2-37.9,13.5-43.2,18.3Z"/>
            <path class="st0" d="M64.8,111.5c-12.8,0-23.3-10.4-23.3-23.3s10.5-23.3,23.3-23.3,23.3,10.4,23.3,23.3-10.4,23.3-23.3,23.3Z"/>
          </g>
          <path class="st1" d="M76,93.2c-1.4,0-2.5-1.1-2.5-2.5,0-6.2-5-11.2-11.2-11.2s-2.5-1.1-2.5-2.5,1.1-2.5,2.5-2.5c8.9,0,16.2,7.2,16.2,16.2s-1.1,2.5-2.5,2.5h0Z"/>
        </g>
      </g>
      <path class="st0" d="M130,181.2h0s-120.1,0-120.1,0c-2.7,0-4.9-2.2-4.9-4.9V9.9c0-2.7,2.2-4.9,4.9-4.9h113.2c2.7,0,4.9,2.2,4.9,4.9v115.5h0c0,1.4,1.1,2.5,2.5,2.5s2.5-1.1,2.5-2.5,0-.1,0-.2V9.9c0-5.4-4.4-9.9-9.9-9.9H9.9C4.4,0,0,4.4,0,9.9v166.4c0,5.4,4.4,9.9,9.9,9.9h120.1c1.3-.1,2.3-1.2,2.3-2.5s-1-2.4-2.3-2.5h0Z"/>
    </g>
  </g>
</svg>