<?xml version="1.0" encoding="UTF-8"?>
<svg id="Capa_2" xmlns="http://www.w3.org/2000/svg" version="1.1" viewBox="0 0 111.1 129.6">
  <!-- Generator: Adobe Illustrator 29.4.0, SVG Export Plug-In . SVG Version: 2.1.0 Build 152)  -->
  <defs>
    <style>
      .st0 {
        fill: #95c11f;
      }

      .st1 {
        fill: #fff;
      }
    </style>
  </defs>
  <path class="st0" d="M57.9,65h9.4c17.1.2,24.1-18.6,11.9-29.9.4-.6.7-1.3.9-2,2.8-7.6-1-16.1-8.7-19-1-7.2-6.6-12.9-13.8-13.9-8.9-1.3-17.2,4.9-18.6,13.8-.9.4-1.8.8-2.5,1.3-6.9,4.5-8.8,13.6-4.3,20.5-11.5,9.2-7.2,28.3,10.5,29.2h10.6v6.7h4.6v-6.7h0Z"/>
  <path class="st0" d="M53.2,71.7H2.3c-1.3,0-2.3,1-2.3,2.3.2,30.6,25,55.4,55.6,55.5,30.6,0,55.4-24.9,55.5-55.5h0c0-1.3-1-2.3-2.3-2.3,0,0-55.6,0-55.6,0ZM63.3,124.3l8.9-8.9c4.6-4.6,4.6-12,0-16.7l-5.4-5.3c-4.6-4.6-12-4.6-16.7,0h0l-4,3.9c-2.8,2.7-7.3,2.7-10.1,0-4.6-4.6-12-4.6-16.6,0l-5.7,5.7c-5.5-7.9-8.6-17.1-9-26.7h101.7c-1.2,24.2-19.2,44.2-43.1,47.9h0Z"/>
  <path class="st1" d="M55.5,14.7c-1.2,0-2.2,1-2.3,2.3v21.2l-5.4-5c-1-.8-2.4-.8-3.3.2-.8.9-.8,2.3.1,3.2l8.6,8v15.9h4.6v-7l8.7-8.2c.9-.9.9-2.3,0-3.3-.9-.9-2.3-.9-3.2,0l-5.5,5.2v-12l8.7-8.3c.9-.9.9-2.4,0-3.3-.9-.9-2.3-.9-3.2,0l-5.5,5.3v-11.6c0-1.3-1.1-2.3-2.4-2.3h0Z"/>
</svg>