<?xml version="1.0" encoding="UTF-8"?>
<svg id="Capa_2" data-name="Capa 2" xmlns="http://www.w3.org/2000/svg" viewBox="0 0 111.09 129.56">
  <defs>
    <style>
      .cls-1 {
        fill: #95c11f;
      }
    </style>
  </defs>
  <g id="Capa_1-2" data-name="Capa 1">
    <g>
      <path class="cls-1" d="M57.86,64.99h9.43c17.14.19,24.14-18.56,11.89-29.9.36-.64.66-1.31.92-2,2.84-7.63-1.03-16.12-8.66-18.96-1-7.21-6.64-12.9-13.84-13.95-8.94-1.31-17.25,4.88-18.56,13.82-.89.36-1.75.8-2.55,1.33-6.86,4.46-8.81,13.65-4.35,20.51-11.53,9.2-7.16,28.32,10.46,29.16h10.63v6.74h4.63v-6.74ZM55.5,14.74c-1.24.02-2.25,1.03-2.27,2.27v21.16l-5.41-5.05c-.96-.85-2.43-.76-3.29.2-.82.93-.77,2.33.11,3.2l8.59,7.97v15.91h-10.5c-13.8-.62-16.39-16.2-6.09-22,1.12-.65,1.51-2.08.87-3.2-.09-.15-.19-.3-.31-.43-3.91-4.08-3.77-10.55.3-14.46,1.26-1.21,2.8-2.07,4.49-2.51.91-.34,1.51-1.2,1.52-2.17.46-6.49,6.09-11.38,12.58-10.92,6.01.43,10.73,5.32,10.94,11.34.06,1,.75,1.85,1.72,2.11,5.44,1.35,8.75,6.86,7.39,12.29-.35,1.4-.99,2.71-1.89,3.84-.7,1.03-.46,2.44.55,3.17,10.69,7.97,6.19,23.26-7.55,22.94h-9.4v-7.03l8.68-8.23c.9-.89.91-2.35.02-3.26-.87-.88-2.28-.91-3.19-.08l-5.51,5.18v-11.95l8.68-8.33c.91-.91.91-2.38,0-3.29-.88-.88-2.29-.91-3.21-.08l-5.48,5.28v-11.6c-.02-1.28-1.08-2.3-2.36-2.27Z"/>
      <path class="cls-1" d="M53.23,71.73H2.31C1.03,71.74,0,72.78,0,74.06c.16,30.61,24.95,55.38,55.56,55.5,30.62-.09,55.42-24.88,55.53-55.5,0-.01,0-.03,0-.04,0-1.27-1.03-2.29-2.3-2.29h-55.56ZM16.59,106.78l6.16-6.16c2.79-2.79,7.31-2.79,10.11,0,2.19,2.23,5.2,3.48,8.33,3.47,5.22.29,8.94-3.99,12.25-7.39,2.79-2.79,7.31-2.79,10.11,0l5.38,5.35c2.79,2.79,2.79,7.31,0,10.11l-12.76,12.76c-15.24.2-29.76-6.46-39.56-18.14ZM63.3,124.31l8.88-8.88c4.57-4.61,4.57-12.04,0-16.65l-5.38-5.35c-4.6-4.6-12.05-4.6-16.65,0h0s-3.95,3.93-3.95,3.93c-2.81,2.72-7.27,2.72-10.08,0-4.61-4.57-12.04-4.57-16.65,0l-5.73,5.73c-5.5-7.87-8.64-17.14-9.04-26.73h101.73c-1.2,24.18-19.21,44.19-43.12,47.95Z"/>
    </g>
  </g>
</svg>