<?xml version="1.0" encoding="UTF-8"?>
<svg id="Capa_2" xmlns="http://www.w3.org/2000/svg" version="1.1" viewBox="0 0 160.8 132.8">
  <!-- Generator: Adobe Illustrator 29.4.0, SVG Export Plug-In . SVG Version: 2.1.0 Build 152)  -->
  <defs>
    <style>
      .st0 {
        fill: #95c11f;
      }
    </style>
  </defs>
  <g id="Capa_1-2">
    <g>
      <path class="st0" d="M35.5,73.3c-1.2,0-2.2-.8-2.6-1.9-.8-2.8-1.2-5.6-1.2-8.5,0-17.1,14-31.1,31.1-31.1s27.5,10.5,30.5,24.8c.3,1.4-.6,2.8-2.1,3.2-.8.1-14.9,1.2-28.7,4.6s-25.7,8.7-26.4,8.9c-.2,0-.5,0-.7,0h0Z"/>
      <path class="st0" d="M62.9,22c-1.5,0-2.7-1.2-2.7-2.7V2.7c0-1.5,1.2-2.7,2.7-2.7s2.7,1.2,2.7,2.7v16.6c0,1.5-1.2,2.7-2.7,2.7h0Z"/>
      <path class="st0" d="M41.1,27.8c-.9,0-1.8-.5-2.3-1.3l-8.3-14.4c-.7-1.3-.3-2.9,1-3.6,1.3-.7,2.9-.3,3.6,1l8.3,14.4c.7,1.3.3,2.9-1,3.6-.4.2-.9.4-1.3.4Z"/>
      <path class="st0" d="M25.1,43.8c-.5,0-.9-.1-1.3-.4l-14.4-8.3c-1.3-.7-1.7-2.4-1-3.6.7-1.3,2.4-1.7,3.6-1l14.4,8.3c1.3.7,1.7,2.4,1,3.6-.5.8-1.4,1.3-2.3,1.3Z"/>
      <path class="st0" d="M19.3,65.5H2.7c-1.5,0-2.7-1.2-2.7-2.7s1.2-2.7,2.7-2.7h16.6c1.5,0,2.7,1.2,2.7,2.7s-1.2,2.7-2.7,2.7Z"/>
      <path class="st0" d="M100.6,43.8c-.9,0-1.8-.5-2.3-1.3-.7-1.3-.3-2.9,1-3.6l14.4-8.3c1.3-.7,2.9-.3,3.6,1,.7,1.3.3,2.9-1,3.6l-14.4,8.3c-.4.2-.9.4-1.3.4Z"/>
      <path class="st0" d="M84.7,27.8c-.4,0-.9-.1-1.3-.4-1.3-.7-1.7-2.4-1-3.6l8.3-14.4c.7-1.3,2.4-1.7,3.6-1,1.3.7,1.7,2.4,1,3.6l-8.3,14.4c-.5.9-1.4,1.3-2.3,1.3Z"/>
      <path class="st0" d="M19.6,104.9c-9.4-6.1-.3-18.1.7-19.2,1.5-1.5,36.8-36.9,138.1-21.7,1.4.2,2.5,1.6,2.2,3s-1.6,2.4-3,2.2C59.4,54.5,24.5,103.8,24.1,104.1c-.5.5-2.1,2-4.5.8Z"/>
      <path class="st0" d="M20.6,127.9c-3.4-18,47.7-63.7,137.5-58.9,1.5,0,2.7,1.2,2.7,2.7s-1.2,2.7-2.7,2.7c-88.1,0-124.2,55.8-124.6,56.3-4.5,4-12.1,1.3-12.9-2.8Z"/>
      <path class="st0" d="M72.1,132.8c-.6,0-13.3-1.2-9.5-7.1,40.8-51.6,93.6-48.7,95.5-48.8,1.5,0,2.6,1.2,2.6,2.7,0,1.5-1.2,2.6-2.7,2.6h0c-.9,0-45,.5-83.8,49.6-.5.7-1.3,1-2.1,1h0Z"/>
      <path class="st0" d="M136.4,132.8c-1.5,0-2.7-1.2-2.7-2.7,0-12.8-21.2-25.3-29.4-29-1.3-.6-1.9-2.2-1.3-3.5s2.2-1.9,3.5-1.3c1.3.6,32.5,15,32.5,33.8s-1.2,2.7-2.7,2.7h0Z"/>
      <path class="st0" d="M158.1,111.2c-1.5,0-2.7-1.2-2.7-2.7,0-10.4-25.7-15.2-34.7-16.1-1.5-.1-2.5-1.4-2.4-2.9.1-1.5,1.5-2.5,2.9-2.4,4.1.4,39.6,4.3,39.6,21.4s-1.2,2.7-2.7,2.7h0Z"/>
    </g>
  </g>
</svg>