<?xml version="1.0" encoding="UTF-8"?>
<svg id="Capa_2" data-name="Capa 2" xmlns="http://www.w3.org/2000/svg" viewBox="0 0 160.76 132.83">
  <defs>
    <style>
      .cls-1 {
        fill: #95c11f;
      }
    </style>
  </defs>
  <g id="Capa_1-2" data-name="Capa 1">
    <g>
      <path class="cls-1" d="M35.51,73.33c-1.16,0-2.23-.77-2.56-1.94-.78-2.76-1.18-5.62-1.18-8.52,0-17.15,13.95-31.11,31.1-31.11,14.71,0,27.53,10.45,30.47,24.84.29,1.44-.63,2.85-2.08,3.15-1.46.29-2.85-.64-3.15-2.08-2.44-11.92-13.06-20.58-25.25-20.58-14.21,0-25.77,11.56-25.77,25.78,0,2.4.33,4.78.98,7.06.4,1.41-.42,2.89-1.84,3.29-.24.07-.49.1-.73.1Z"/>
      <path class="cls-1" d="M62.87,21.97c-1.47,0-2.66-1.19-2.66-2.66V2.66c0-1.47,1.19-2.66,2.66-2.66s2.66,1.19,2.66,2.66v16.64c0,1.47-1.19,2.66-2.66,2.66Z"/>
      <path class="cls-1" d="M41.09,27.81c-.92,0-1.82-.48-2.31-1.33l-8.32-14.41c-.73-1.27-.3-2.9.98-3.64,1.27-.74,2.9-.3,3.64.97l8.32,14.41c.73,1.27.3,2.9-.98,3.64-.42.24-.88.36-1.33.36Z"/>
      <path class="cls-1" d="M25.14,43.75c-.45,0-.91-.11-1.33-.36l-14.41-8.32c-1.27-.73-1.71-2.36-.98-3.64.74-1.27,2.37-1.71,3.64-.97l14.41,8.32c1.27.73,1.71,2.36.98,3.64-.49.85-1.39,1.33-2.31,1.33Z"/>
      <path class="cls-1" d="M19.31,65.54H2.66c-1.47,0-2.66-1.19-2.66-2.66s1.19-2.66,2.66-2.66h16.65c1.47,0,2.66,1.19,2.66,2.66s-1.19,2.66-2.66,2.66Z"/>
      <path class="cls-1" d="M100.6,43.75c-.92,0-1.82-.48-2.31-1.33-.73-1.27-.3-2.9.98-3.64l14.41-8.32c1.28-.74,2.9-.3,3.64.97.73,1.28.3,2.9-.98,3.64l-14.41,8.32c-.42.24-.88.36-1.33.36Z"/>
      <path class="cls-1" d="M84.65,27.81c-.45,0-.91-.11-1.33-.36-1.27-.74-1.71-2.37-.98-3.64l8.32-14.41c.74-1.27,2.37-1.71,3.64-.97,1.27.73,1.71,2.37.98,3.64l-8.32,14.41c-.5.86-1.39,1.33-2.31,1.33Z"/>
      <path class="cls-1" d="M22.27,90.2c-.67,0-1.33-.25-1.85-.75-1.05-1.02-1.09-2.7-.07-3.76,1.45-1.52,36.81-36.94,138.14-21.74,1.45.22,2.46,1.57,2.24,3.03-.22,1.46-1.58,2.45-3.03,2.24C59.42,54.49,24.53,89.05,24.19,89.4c-.52.54-1.22.81-1.91.81Z"/>
      <path class="cls-1" d="M22.27,128.5c-.6,0-1.21-.2-1.71-.62-1.13-.95-1.27-2.63-.33-3.75.46-.55,47.36-55.13,137.86-55.13,1.47,0,2.66,1.19,2.66,2.66s-1.19,2.67-2.66,2.67c-88.05,0-133.33,52.7-133.78,53.23-.53.63-1.28.95-2.04.95Z"/>
      <path class="cls-1" d="M72.12,132.83c-.58,0-1.16-.19-1.65-.58-1.15-.91-1.35-2.59-.43-3.74,40.82-51.55,86.19-51.57,88.09-51.58,1.47.02,2.64,1.22,2.63,2.69-.01,1.46-1.21,2.64-2.67,2.64,0,0,0,0-.03,0-.91,0-44.97.47-83.85,49.56-.52.66-1.31,1.01-2.09,1.01Z"/>
      <path class="cls-1" d="M136.42,132.83c-1.47,0-2.66-1.19-2.66-2.66,0-12.82-21.21-25.28-29.39-29-1.34-.61-1.93-2.19-1.32-3.53.61-1.34,2.19-1.93,3.53-1.32,1.33.6,32.51,15.02,32.51,33.85,0,1.47-1.19,2.66-2.66,2.66Z"/>
      <path class="cls-1" d="M158.09,111.16c-1.47,0-2.66-1.19-2.66-2.66,0-10.41-25.73-15.21-34.74-16.08-1.46-.14-2.54-1.44-2.4-2.91.14-1.46,1.47-2.54,2.91-2.4,4.05.39,39.56,4.28,39.56,21.38,0,1.47-1.19,2.66-2.66,2.66Z"/>
    </g>
  </g>
</svg>