<?xml version="1.0" encoding="UTF-8"?>
<svg id="Capa_2" data-name="Capa 2" xmlns="http://www.w3.org/2000/svg" viewBox="0 0 162.58 163.15">
  <defs>
    <style>
      .cls-1 {
        fill: #1b1b1b;
      }
    </style>
  </defs>
  <g id="Capa_1-2" data-name="Capa 1">
    <g>
      <g>
        <path class="cls-1" d="M88.8,163.15c-1.29,0-2.57-.21-3.81-.62l-57.15-18.96c-1.96-.65-4.14-.49-5.98.43l-18.22,8.94c-1.25.62-2.76.1-3.37-1.15-.61-1.25-.1-2.76,1.15-3.37l18.2-8.93c3.01-1.51,6.59-1.77,9.81-.7l57.15,18.96c1.34.45,2.77.48,4.12.1l2.73-.76c1.65-.45,3.17-1.19,4.53-2.21l57.67-42.83c1.55-1.15,2.25-3.1,1.78-4.98l-.55-2.19c-.36-1.46-1.66-2.47-3.16-2.47-.27,0-.54.08-.77.22l-54.57,33.76c-.77.48-1.74.5-2.54.06l-19.7-10.82c-1.22-.67-1.66-2.2-.99-3.42.67-1.22,2.2-1.66,3.42-.99l18.41,10.12,53.31-32.98c1.03-.64,2.21-.98,3.43-.98,3.82,0,7.13,2.58,8.05,6.29l.55,2.2c.96,3.87-.48,7.88-3.66,10.25l-57.66,42.82c-1.86,1.39-3.94,2.41-6.19,3.03l-2.72.76c-1.07.3-2.16.45-3.25.45Z"/>
        <path class="cls-1" d="M77.37,125.94l-13.37-.47c-1.39-.05-2.48-1.22-2.43-2.61.05-1.39,1.21-2.49,2.61-2.43l13.24.47,32.69-.56c1.79-.03,3.27-1.41,3.43-3.2l.29-3.42c.13-1.51-.95-2.85-2.45-3.04l-63.05-7.99c-1.24-.16-2.51-.03-3.68.36l-36.7,12.51c-1.32.46-2.75-.26-3.2-1.57-.45-1.32.25-2.75,1.57-3.2l36.71-12.52c1.89-.63,3.94-.84,5.92-.58l63.05,7.99c4.2.53,7.2,4.25,6.84,8.47l-.29,3.42c-.38,4.37-3.98,7.72-8.35,7.8l-32.83.56Z"/>
        <path class="cls-1" d="M109.09,110.37c-1,0-1.95-.6-2.34-1.59-.51-1.29.12-2.76,1.41-3.27l24.49-9.72c1.94-.69,3.98-.69,5.84-.04,4.01,1.4,6.71,5.2,6.71,9.45v.79c0,1.39-1.13,2.52-2.52,2.52s-2.52-1.13-2.52-2.52v-.79c0-2.11-1.34-4-3.33-4.7-.78-.27-1.63-.27-2.4,0l-24.4,9.68c-.3.12-.62.18-.93.18Z"/>
      </g>
      <g>
        <path class="cls-1" d="M102.63,17.74h-29.89c-1.39,0-2.52-1.13-2.52-2.52V2.52c0-1.39,1.13-2.52,2.52-2.52h29.89c1.39,0,2.52,1.13,2.52,2.52v12.71c0,1.39-1.13,2.52-2.52,2.52ZM75.26,12.71h24.85v-7.67h-24.85v7.67Z"/>
        <path class="cls-1" d="M137.09,86.47H38.48c-1.39,0-2.52-1.13-2.52-2.52V15.23c0-1.39,1.13-2.52,2.52-2.52h98.61c1.39,0,2.52,1.13,2.52,2.52v68.72c0,1.39-1.13,2.52-2.52,2.52ZM40.99,81.43h93.58V17.74H40.99v63.69Z"/>
        <path class="cls-1" d="M99.13,50.54h-22.69c-1.39,0-2.52-1.13-2.52-2.52v-11.11c0-1.39,1.13-2.52,2.52-2.52h22.69c1.39,0,2.52,1.13,2.52,2.52v11.11c0,1.39-1.13,2.52-2.52,2.52ZM78.96,45.5h17.65v-6.07h-17.65v6.07Z"/>
        <path class="cls-1" d="M76.44,44.98h-37.96c-1.39,0-2.52-1.13-2.52-2.52s1.13-2.52,2.52-2.52h37.96c1.39,0,2.52,1.13,2.52,2.52s-1.13,2.52-2.52,2.52Z"/>
        <path class="cls-1" d="M137.09,44.98h-37.96c-1.39,0-2.52-1.13-2.52-2.52s1.13-2.52,2.52-2.52h37.96c1.39,0,2.52,1.13,2.52,2.52s-1.13,2.52-2.52,2.52Z"/>
      </g>
    </g>
  </g>
</svg>