<?xml version="1.0" encoding="UTF-8"?>
<svg id="Capa_2" xmlns="http://www.w3.org/2000/svg" version="1.1" viewBox="0 0 160.5 177">
  <!-- Generator: Adobe Illustrator 29.4.0, SVG Export Plug-In . SVG Version: 2.1.0 Build 152)  -->
  <defs>
    <style>
      .st0 {
        fill: #95c11f;
      }
    </style>
  </defs>
  <g id="Capa_1-2">
    <g>
      <path class="st0" d="M153.9,177h-37.3c-3.6,0-6.6-2.9-6.6-6.6v-22.5H37.6v20.4c0,3.6-3,6.6-6.6,6.6H14.2c-3.6,0-6.6-2.9-6.6-6.6v-41.7c0-3.6,2.9-6.6,6.6-6.6h18.4v-23H10.1c-3.6,0-6.6-2.9-6.6-6.6v-20.9c0-3.6,2.9-6.6,6.6-6.6h54.9V26.5c0-3.6,2.9-6.6,6.6-6.6h82.4c3.6,0,6.6,2.9,6.6,6.6v50c0,3.6-2.9,6.6-6.6,6.6h-22.5v43.4h22.5c3.6,0,6.6,2.9,6.6,6.6v37.3c0,3.6-2.9,6.6-6.6,6.6h0Z"/>
      <path class="st0" d="M37.1,47H9.9c-5.4,0-9.9-4.4-9.9-9.9V9.9C0,4.4,4.4,0,9.9,0h27.2c5.4,0,9.9,4.4,9.9,9.9v27.2c0,5.4-4.4,9.9-9.9,9.9Z"/>
    </g>
  </g>
</svg>