<?xml version="1.0" encoding="UTF-8"?>
<svg id="Capa_2" data-name="Capa 2" xmlns="http://www.w3.org/2000/svg" viewBox="0 0 160.5 176.97">
  <defs>
    <style>
      .cls-1 {
        fill: #95c11f;
      }
    </style>
  </defs>
  <g id="Capa_1-2" data-name="Capa 1">
    <g>
      <path class="cls-1" d="M153.94,176.97h-37.3c-3.62,0-6.56-2.94-6.56-6.57v-22.51H37.56v20.43c0,3.62-2.95,6.57-6.57,6.57H14.21c-3.62,0-6.56-2.94-6.56-6.57v-41.7c0-3.62,2.94-6.57,6.56-6.57h18.36v-22.95H10.05c-3.62,0-6.56-2.94-6.56-6.56v-20.95c0-3.62,2.94-6.57,6.56-6.57h54.91V26.52c0-3.62,2.94-6.56,6.56-6.56h82.42c3.62,0,6.56,2.94,6.56,6.56v50.03c0,3.62-2.94,6.56-6.56,6.56h-22.52v43.43h22.52c3.62,0,6.56,2.94,6.56,6.57v37.3c0,3.62-2.94,6.57-6.56,6.57ZM35.06,142.89h77.51c1.38,0,2.5,1.12,2.5,2.5v25.01c0,.86.7,1.57,1.56,1.57h37.3c.86,0,1.56-.7,1.56-1.57v-37.3c0-.86-.7-1.57-1.56-1.57h-25.02c-1.38,0-2.5-1.12-2.5-2.5v-48.43c0-1.38,1.12-2.5,2.5-2.5h25.02c.86,0,1.56-.7,1.56-1.56V26.52c0-.86-.7-1.56-1.56-1.56h-82.42c-.86,0-1.56.7-1.56,1.56v39.01c0,1.38-1.12,2.5-2.5,2.5H10.05c-.86,0-1.56.7-1.56,1.57v20.95c0,.86.7,1.56,1.56,1.56h25.02c1.38,0,2.5,1.12,2.5,2.5v27.95c0,1.38-1.12,2.5-2.5,2.5H14.21c-.86,0-1.56.7-1.56,1.57v41.7c0,.86.7,1.57,1.56,1.57h16.79c.87,0,1.57-.7,1.57-1.57v-22.93c0-1.38,1.12-2.5,2.5-2.5Z"/>
      <path class="cls-1" d="M37.1,46.97H9.87c-5.44,0-9.87-4.43-9.87-9.87V9.87C0,4.43,4.43,0,9.87,0h27.23c5.44,0,9.87,4.43,9.87,9.87v27.23c0,5.44-4.43,9.87-9.87,9.87ZM9.87,4.99c-2.69,0-4.88,2.19-4.88,4.88v27.23c0,2.69,2.19,4.88,4.88,4.88h27.23c2.69,0,4.88-2.19,4.88-4.88V9.87c0-2.69-2.19-4.88-4.88-4.88H9.87Z"/>
    </g>
  </g>
</svg>