<?xml version="1.0" encoding="UTF-8"?>
<svg id="Capa_2" xmlns="http://www.w3.org/2000/svg" version="1.1" viewBox="0 0 162.6 163.1">
  <!-- Generator: Adobe Illustrator 29.4.0, SVG Export Plug-In . SVG Version: 2.1.0 Build 152)  -->
  <defs>
    <style>
      .st0 {
        fill: #fff;
      }

      .st1 {
        fill: #1b1b1b;
      }

      .st2 {
        fill: #1d1d1b;
      }
    </style>
  </defs>
  <polyline class="st2" points="7.6 113 46.9 99.7 109.3 108.4 134.6 97.6 139.6 99.9 142.3 105.3 155 100.1 158.3 102.8 160.1 107.8 157.5 114.5 94.1 160.2 87.7 160.2 24 140.2 3.1 149.9"/>
  <path class="st0" d="M88.8,163.1c-1.3,0-2.6-.2-3.8-.6l-57.2-19c-2-.6-4.1-.5-6,.4l-18.2,8.9c-1.2.6-2.8.1-3.4-1.1-.6-1.2,0-2.8,1.1-3.4l18.2-8.9c3-1.5,6.6-1.8,9.8-.7l57.2,19c1.3.4,2.8.5,4.1.1l2.7-.8c1.7-.4,3.2-1.2,4.5-2.2l57.7-42.8c1.6-1.2,2.2-3.1,1.8-5l-.6-2.2c-.4-1.5-1.7-2.5-3.2-2.5s-.5,0-.8.2l-54.6,33.8c-.8.5-1.7.5-2.5,0l-19.7-10.8c-1.2-.7-1.7-2.2-1-3.4.7-1.2,2.2-1.7,3.4-1l18.4,10.1,53.3-33c1-.6,2.2-1,3.4-1,3.8,0,7.1,2.6,8.1,6.3l.6,2.2c1,3.9-.5,7.9-3.7,10.2l-57.7,42.8c-1.9,1.4-3.9,2.4-6.2,3l-2.7.8c-1.1.3-2.2.4-3.2.4h0Z"/>
  <path class="st0" d="M77.4,125.9l-13.4-.5c-1.4,0-2.5-1.2-2.4-2.6s1.2-2.5,2.6-2.4l13.2.5,32.7-.6c1.8,0,3.3-1.4,3.4-3.2l.3-3.4c.1-1.5-.9-2.8-2.4-3l-63-8c-1.2-.2-2.5,0-3.7.4l-36.7,12.5c-1.3.5-2.8-.3-3.2-1.6-.4-1.3.2-2.8,1.6-3.2l36.7-12.5c1.9-.6,3.9-.8,5.9-.6l63,8c4.2.5,7.2,4.2,6.8,8.5l-.3,3.4c-.4,4.4-4,7.7-8.3,7.8l-32.8.6h0Z"/>
  <path class="st0" d="M109.1,110.4c-1,0-1.9-.6-2.3-1.6-.5-1.3.1-2.8,1.4-3.3l24.5-9.7c1.9-.7,4-.7,5.8,0,4,1.4,6.7,5.2,6.7,9.4v.8c0,1.4-1.1,2.5-2.5,2.5s-2.5-1.1-2.5-2.5v-.8c0-2.1-1.3-4-3.3-4.7-.8-.3-1.6-.3-2.4,0l-24.4,9.7c-.3.1-.6.2-.9.2h0Z"/>
  <path class="st1" d="M102.6,17.7h-29.9c-1.4,0-2.5-1.1-2.5-2.5V2.5c0-1.4,1.1-2.5,2.5-2.5h29.9c1.4,0,2.5,1.1,2.5,2.5v12.7c0,1.4-1.1,2.5-2.5,2.5h0ZM75.3,12.7h24.8v-7.7h-24.8v7.7Z"/>
  <g>
    <rect class="st1" x="79" y="39.4" width="17.6" height="6.1"/>
    <path class="st1" d="M73.9,39.9v-3c0-1.4,1.1-2.5,2.5-2.5h22.7c1.4,0,2.5,1.1,2.5,2.5v3h38V15.2c0-1.4-1.1-2.5-2.5-2.5H38.5c-1.4,0-2.5,1.1-2.5,2.5v24.7h38Z"/>
    <path class="st1" d="M101.7,45v3c0,1.4-1.1,2.5-2.5,2.5h-22.7c-1.4,0-2.5-1.1-2.5-2.5v-3h-38v39c0,1.4,1.1,2.5,2.5,2.5h98.6c1.4,0,2.5-1.1,2.5-2.5v-39h-38Z"/>
  </g>
</svg>