<?xml version="1.0" encoding="UTF-8"?>
<svg id="Capa_2" xmlns="http://www.w3.org/2000/svg" version="1.1" viewBox="0 0 133.1 130.3">
  <!-- Generator: Adobe Illustrator 29.4.0, SVG Export Plug-In . SVG Version: 2.1.0 Build 152)  -->
  <defs>
    <style>
      .st0 {
        fill: #95c11f;
      }

      .st1 {
        fill: #fff;
      }
    </style>
  </defs>
  <path class="st0" d="M120.2,130.3H2.5c-1.4,0-2.5-1.1-2.5-2.4-.4-13.1,18.5-16.2,23.7-16.8,5.9-9.1,11.7-15,30.3-14.5,15.1.4,25.7,9.2,29.7,13.3,3.9-3.3,13-9.6,23.7-6.3,14.2,4.3,15.2,23.3,15.3,24.1,0,.7-.2,1.4-.7,1.9-.5.5-1.1.8-1.8.8h0Z"/>
  <path class="st0" d="M99.9,82.9c-10.3,0-19.9-4.7-31.4-20.1-.7-.9-.7-2.2,0-3.1.4-.6,11.2-14.1,27.6-13.6,12.7.4,25.1,9,36.6,25.6.5.7.6,1.5.3,2.3-.3.8-.9,1.3-1.7,1.6-3,.8-5.8,1.7-8.5,2.5-8.5,2.6-15.9,4.8-22.9,4.8h0Z"/>
  <path class="st0" d="M32.5,55.5c-.4,0-.8,0-1.2-.3C13.5,45.7,6.6,35.2,21.2,6.7c.4-.7,1-1.2,1.8-1.3.8-.1,1.6.1,2.2.7,26.6,25.3,9.5,48.2,9.3,48.4-.5.6-1.2,1-2,1h0Z"/>
  <path class="st0" d="M57.6,51.1c-1.6,0-2.6-.1-2.8-.1-.5,0-1-.3-1.4-.6-1.4.2-2.6-.8-2.8-2.2-.1-.9-2.8-21.7,10.4-36.8C74.4-3.8,102.1.5,103.3.7c.7.1,1.3.5,1.7,1.1s.5,1.3.4,1.9c-.2.8-4.2,19.7-17.8,34.3-10.9,11.8-24.2,13.1-30,13.1Z"/>
  <path class="st0" d="M53.8,101.6c0,0-.2,0-.2,0-1.7-.2-2.7-1.6-4.1-5.6-4.8-14.3-7.3-43.8,13.7-63.5,1-1,2.6-.9,3.6,0,.9,1,.9,2.6,0,3.6-23.3,22-13.7,56-11.4,60.7,0,0,0,0,0,0,1.2.7,1.6,2.3.9,3.5-.5.8-1.4,1.3-2.3,1.3Z"/>
  <path class="st0" d="M49.3,86.2c-.4,0-.8,0-1.1-.3-1.2-.6-1.8-2.1-1.1-3.4.2-.3,15.5-30.4,48.8-23.5,1.4.3,2.2,1.6,1.9,3-.3,1.4-1.6,2.2-3,2-29.6-6.2-43.1,20.5-43.2,20.8-.4.9-1.3,1.4-2.3,1.4Z"/>
  <path class="st0" d="M48.7,69.2c-.4,0-.8,0-1.2-.3-22.8-12.9-23.1-28.9-23.1-29.6,0-1.4,1.1-2.5,2.5-2.5h0c1.4,0,2.5,1.1,2.5,2.5,0,.6.5,13.9,20.5,25.2,1.2.7,1.6,2.2,1,3.4-.5.8-1.3,1.3-2.2,1.3Z"/>
  <path class="st1" d="M51.2,49.1c2.6-5.9,6.5-11.7,11.9-16.7,1-1,2.6-.9,3.6,0,.9,1,.9,2.6,0,3.6-4.8,4.5-8.2,9.5-10.5,14.7"/>
  <path class="st1" d="M68.4,62c7.2-3.5,16.4-5.3,27.5-3,1.4.3,2.2,1.6,1.9,3-.3,1.4-1.6,2.2-3,2-9.4-2-17.2-.6-23.5,2.2"/>
  <path class="st1" d="M30.3,54.2c-5.8-8-5.9-14.5-5.9-15,0-1.4,1.1-2.5,2.5-2.5h0c1.4,0,2.5,1.1,2.5,2.5,0,.4.2,6,5.7,13.1"/>
</svg>