<?xml version="1.0" encoding="UTF-8"?>
<svg id="Capa_2" data-name="Capa 2" xmlns="http://www.w3.org/2000/svg" viewBox="0 0 133.11 130.26">
  <defs>
    <style>
      .cls-1 {
        fill: #95c11f;
      }
    </style>
  </defs>
  <g id="Capa_1-2" data-name="Capa 1">
    <g>
      <path class="cls-1" d="M120.2,130.26H2.52c-1.36,0-2.47-1.07-2.52-2.43-.45-13.12,18.51-16.24,23.72-16.85,5.9-9.1,11.66-14.99,30.29-14.51,15.13.36,25.66,9.24,29.7,13.31,3.87-3.32,12.98-9.57,23.71-6.29,14.17,4.33,15.25,23.33,15.29,24.14.03.69-.22,1.36-.69,1.86-.48.5-1.13.78-1.82.78ZM5.41,125.22h111.96c-.77-4.75-3.32-14.45-11.41-16.93-10.94-3.35-20.42,6.66-20.52,6.76-.49.53-1.17.83-1.93.8-.73-.02-1.41-.36-1.87-.92-.11-.13-10.88-13.04-27.74-13.44-17.04-.39-21.21,4.76-26.58,13.21-.42.67-1.14,1.1-1.93,1.16-.19.01-17.24,1.56-19.97,9.35Z"/>
      <path class="cls-1" d="M53.78,101.57c-.08,0-.16,0-.24-.01-1.69-.18-2.72-1.61-4.08-5.64-4.8-14.29-7.32-43.76,13.66-63.53,1.01-.95,2.61-.9,3.56.1.95,1.01.91,2.61-.1,3.56-23.3,21.96-13.69,55.96-11.36,60.74.01,0,.02.01.03.02,1.19.72,1.58,2.26.86,3.46-.46.77-1.42,1.3-2.33,1.3Z"/>
      <path class="cls-1" d="M49.33,86.17c-.37,0-.75-.08-1.11-.26-1.25-.62-1.76-2.13-1.14-3.37.15-.3,15.48-30.44,48.79-23.5,1.36.28,2.24,1.62,1.95,2.98-.28,1.36-1.62,2.23-2.98,1.95-29.56-6.15-43.12,20.53-43.25,20.8-.44.89-1.33,1.4-2.26,1.4Z"/>
      <path class="cls-1" d="M48.72,69.16c-.42,0-.84-.1-1.23-.32-22.8-12.86-23.08-28.89-23.08-29.57,0-1.39,1.12-2.52,2.52-2.52h0c1.38,0,2.51,1.12,2.52,2.5,0,.59.47,13.9,20.51,25.2,1.21.68,1.64,2.22.96,3.43-.46.82-1.32,1.28-2.2,1.28Z"/>
      <path class="cls-1" d="M99.87,82.86c-10.28,0-19.87-4.74-31.41-20.06-.68-.91-.68-2.16.02-3.06.45-.58,11.21-14.09,27.6-13.63,12.74.36,25.05,8.97,36.58,25.61.46.67.57,1.52.3,2.29-.28.77-.9,1.35-1.69,1.57-2.98.84-5.79,1.68-8.46,2.49-8.54,2.58-15.9,4.8-22.94,4.8ZM73.74,61.39c16.59,21.21,27.13,18.03,47.62,11.85,1.65-.5,3.35-1.01,5.11-1.53-9.93-13.37-20.19-20.28-30.52-20.57-11.02-.33-19.18,7.06-22.21,10.25Z"/>
      <path class="cls-1" d="M32.53,55.47c-.4,0-.81-.1-1.18-.3C13.52,45.69,6.62,35.16,21.2,6.74c.36-.71,1.04-1.2,1.82-1.33.79-.13,1.58.11,2.16.66,26.62,25.27,9.53,48.2,9.35,48.43-.49.64-1.24.98-2,.98ZM24.14,12.15c-10.42,21.69-6.16,29.71,7.55,37.47,2.87-5.07,8.86-20.08-7.55-37.47Z"/>
      <path class="cls-1" d="M57.62,51.14c-1.61,0-2.62-.11-2.78-.13-.54-.06-1.03-.3-1.4-.64-1.36.18-2.63-.78-2.82-2.15-.12-.88-2.85-21.69,10.39-36.77C74.42-3.81,102.11.52,103.28.71c.68.11,1.28.49,1.67,1.06.39.57.53,1.27.39,1.94-.16.8-4.18,19.65-17.75,34.29-10.88,11.75-24.25,13.14-29.97,13.14ZM55.47,46.01c.87.08,16.55,1.39,28.43-11.44,9.7-10.47,14.23-23.65,15.82-29.21-7-.64-25.61-1.2-34.92,9.41-9.82,11.18-9.66,26.44-9.33,31.24Z"/>
    </g>
  </g>
</svg>