<?xml version="1.0" encoding="UTF-8" standalone="no"?>
<svg
   id="Capa_2"
   version="1.1"
   viewBox="0 0 148.4 126.8"
   sodipodi:docname="c_af646f5b.svg"
   inkscape:version="1.4 (86a8ad7, 2024-10-11)"
   xmlns:inkscape="http://www.inkscape.org/namespaces/inkscape"
   xmlns:sodipodi="http://sodipodi.sourceforge.net/DTD/sodipodi-0.dtd"
   xmlns="http://www.w3.org/2000/svg"
   xmlns:svg="http://www.w3.org/2000/svg">
  <sodipodi:namedview
     id="namedview3"
     pagecolor="#ffffff"
     bordercolor="#000000"
     borderopacity="0.25"
     inkscape:showpageshadow="2"
     inkscape:pageopacity="0.0"
     inkscape:pagecheckerboard="0"
     inkscape:deskcolor="#d1d1d1"
     inkscape:zoom="6.4274446"
     inkscape:cx="74.213008"
     inkscape:cy="63.400002"
     inkscape:window-width="1920"
     inkscape:window-height="1017"
     inkscape:window-x="1912"
     inkscape:window-y="-8"
     inkscape:window-maximized="1"
     inkscape:current-layer="Capa_2" />
  <!-- Generator: Adobe Illustrator 29.4.0, SVG Export Plug-In . SVG Version: 2.1.0 Build 152)  -->
  <defs
     id="defs1">
    <style
       id="style1">
      .st0 {
        fill: #95c11f;
      }
    </style>
  </defs>
  <g
     id="g2">
    <path
       class="st0"
       d="M 74.2,0 C 49.8,0 41.1,18.7 41.1,36.1 c 0,34.7 30,63.4 31.3,64.6 0.5,0.5 1.1,0.7 1.7,0.7 v 0 c 0.6,0 1.2,-0.2 1.7,-0.7 1.3,-1.2 31.9325,-30.005782 31.3,-64.6 C 106.78883,19.080859 98.6,0 74.2,0 Z m 0,56.2 C 62.9,56.2 53.7,47 53.7,35.7 c 0,-11.3 9.2,-20.5 20.5,-20.5 11.3,0 20.5,9.2 20.5,20.5 0,11.3 -9.2,20.5 -20.5,20.5 z"
       id="path1"
       sodipodi:nodetypes="sscsscsssssss" />
    <path
       class="st0"
       d="M74.2,20.3c-8.5,0-15.5,6.9-15.5,15.5s6.9,15.5,15.5,15.5,15.5-6.9,15.5-15.5-6.9-15.5-15.5-15.5Z"
       id="path2" />
  </g>
  <path
     class="st0"
     d="M145.9,126.8H2.5c-.8,0-1.5-.4-2-1-.5-.6-.6-1.4-.4-2.2L22.3,45.9c.3-1.1,1.3-1.8,2.4-1.8h10.6c1.4,0,2.5,1.1,2.5,2.5s-1.1,2.5-2.5,2.5h-8.7L5.9,121.8h136.7l-20.8-72.7h-9.7c-1.4,0-2.5-1.1-2.5-2.5s1.1-2.5,2.5-2.5h11.6c1.1,0,2.1.7,2.4,1.8l22.2,77.7c.2.8,0,1.6-.4,2.2-.5.6-1.2,1-2,1h0Z"
     id="path3" />
</svg>
