<?xml version="1.0" encoding="UTF-8"?>
<svg id="Capa_2" data-name="Capa 2" xmlns="http://www.w3.org/2000/svg" viewBox="0 0 148.38 126.79">
  <defs>
    <style>
      .cls-1 {
        fill: #95c11f;
      }
    </style>
  </defs>
  <g id="Capa_1-2" data-name="Capa 1">
    <g>
      <g>
        <path class="cls-1" d="M74.19,101.43c-.62,0-1.24-.23-1.73-.69-1.28-1.21-31.32-29.96-31.32-64.61C41.14,18.67,49.82,0,74.19,0s33.05,18.67,33.05,36.14c0,34.65-30.04,63.4-31.32,64.61-.49.46-1.11.69-1.73.69ZM74.19,5.04c-25.28,0-28.01,21.75-28.01,31.1,0,27.83,21.66,52.54,28.01,59.19,6.35-6.65,28.01-31.36,28.01-59.19,0-9.35-2.73-31.1-28.01-31.1Z"/>
        <path class="cls-1" d="M74.19,56.22c-11.3,0-20.49-9.19-20.49-20.49s9.19-20.49,20.49-20.49,20.49,9.19,20.49,20.49-9.19,20.49-20.49,20.49ZM74.19,20.27c-8.52,0-15.46,6.93-15.46,15.46s6.93,15.46,15.46,15.46,15.46-6.93,15.46-15.46-6.93-15.46-15.46-15.46Z"/>
      </g>
      <path class="cls-1" d="M145.86,126.79H2.52c-.79,0-1.53-.37-2.01-1-.48-.63-.63-1.45-.41-2.21L22.3,45.86c.31-1.08,1.3-1.83,2.42-1.83h10.58c1.39,0,2.52,1.13,2.52,2.52s-1.13,2.52-2.52,2.52h-8.68L5.86,121.75h136.67l-20.77-72.69h-9.68c-1.39,0-2.52-1.13-2.52-2.52s1.13-2.52,2.52-2.52h11.58c1.12,0,2.11.74,2.42,1.83l22.21,77.72c.22.76.06,1.58-.41,2.21-.48.63-1.22,1-2.01,1Z"/>
    </g>
  </g>
</svg>