<?xml version="1.0" encoding="UTF-8"?>
<svg id="Capa_2" data-name="Capa 2" xmlns="http://www.w3.org/2000/svg" viewBox="0 0 164.73 134.14">
  <defs>
    <style>
      .cls-1 {
        fill: #f59e00;
      }
    </style>
  </defs>
  <g id="Capa_1-2" data-name="Capa 1">
    <g>
      <g>
        <path class="cls-1" d="M26.14,134.14c-.87,0-1.68-.45-2.13-1.19-.98-1.6-24.01-39.46-24.01-53.06,0-14.41,11.73-26.14,26.14-26.14s26.14,11.73,26.14,26.14c0,13.61-23.03,51.46-24.01,53.06-.45.74-1.26,1.19-2.13,1.19ZM26.14,58.73c-11.66,0-21.15,9.49-21.15,21.15,0,9.16,13.73,34.33,21.15,46.91,7.42-12.58,21.15-37.75,21.15-46.91,0-11.66-9.49-21.15-21.15-21.15Z"/>
        <path class="cls-1" d="M26.14,94.96c-8.31,0-15.08-6.76-15.08-15.07s6.76-15.07,15.08-15.07,15.07,6.76,15.07,15.07-6.76,15.07-15.07,15.07ZM26.14,69.8c-5.56,0-10.08,4.52-10.08,10.08s4.52,10.08,10.08,10.08,10.08-4.52,10.08-10.08-4.52-10.08-10.08-10.08Z"/>
      </g>
      <g>
        <path class="cls-1" d="M143.16,65.8h0c-.87,0-1.68-.45-2.13-1.19-1.99-3.26-19.43-32.12-19.43-43.04,0-11.89,9.67-21.56,21.56-21.56s21.56,9.67,21.56,21.56c0,10.92-17.45,39.78-19.43,43.04-.45.74-1.26,1.19-2.13,1.19ZM143.16,4.99c-9.14,0-16.57,7.43-16.57,16.57,0,7.12,10.53,26.56,16.57,36.87,6.04-10.31,16.57-29.76,16.57-36.87,0-9.14-7.43-16.57-16.57-16.57Z"/>
        <path class="cls-1" d="M143.16,34.2c-6.97,0-12.64-5.67-12.64-12.64s5.67-12.64,12.64-12.64,12.64,5.67,12.64,12.64-5.67,12.64-12.64,12.64ZM143.16,13.92c-4.22,0-7.65,3.43-7.65,7.65s3.43,7.65,7.65,7.65,7.65-3.43,7.65-7.65-3.43-7.65-7.65-7.65Z"/>
      </g>
      <path class="cls-1" d="M135.87,134.14H26.14c-1.38,0-2.5-1.12-2.5-2.5s1.12-2.5,2.5-2.5h109.73c6.67,0,12.09-5.42,12.09-12.09v-5c0-6.67-5.42-12.09-12.09-12.09h-51.39c-1.38,0-2.5-1.12-2.5-2.5s1.12-2.5,2.5-2.5h51.39c9.42,0,17.08,7.66,17.08,17.08v5c0,9.42-7.66,17.08-17.08,17.08Z"/>
      <path class="cls-1" d="M84.48,99.97c-9.42,0-17.08-7.66-17.08-17.08v-4.99c0-9.42,7.66-17.08,17.08-17.08h58.68c1.38,0,2.5,1.12,2.5,2.5s-1.12,2.5-2.5,2.5h-58.68c-6.67,0-12.09,5.42-12.09,12.09v4.99c0,6.67,5.42,12.09,12.09,12.09,1.38,0,2.5,1.12,2.5,2.5s-1.12,2.5-2.5,2.5Z"/>
    </g>
  </g>
</svg>