<?xml version="1.0" encoding="UTF-8"?>
<svg id="Capa_2" data-name="Capa 2" xmlns="http://www.w3.org/2000/svg" viewBox="0 0 167.49 167.49">
  <defs>
    <style>
      .cls-1 {
        fill: #95c11f;
      }
    </style>
  </defs>
  <g id="Capa_1-2" data-name="Capa 1">
    <g>
      <path class="cls-1" d="M83.75,167.49C37.57,167.49,0,129.92,0,83.75S37.57,0,83.75,0s83.74,37.57,83.74,83.75-37.57,83.74-83.74,83.74ZM83.75,5.04C40.34,5.04,5.04,40.34,5.04,83.75s35.31,78.71,78.71,78.71,78.71-35.31,78.71-78.71S127.15,5.04,83.75,5.04Z"/>
      <g>
        <path class="cls-1" d="M132.25,38.3c-1.44-1.54-2.95-3.01-4.53-4.4-5.35-4.72-11.45-8.61-18.11-11.43-2.01-.85-4.07-1.61-6.18-2.26-6.22-1.93-12.83-2.97-19.68-2.97-4.28,0-8.46.42-12.51,1.2-2.06.39-4.08.88-6.07,1.46-9.11,2.66-17.42,7.21-24.47,13.21-1.35,1.15-2.65,2.33-3.9,3.58-12.07,12.05-19.56,28.7-19.56,47.06,0,7.98,1.42,15.64,4,22.74.92,2.52,2,4.96,3.2,7.32,11,21.61,33.44,36.45,59.3,36.45.1,0,.2,0,.3,0,1.79,0,3.56-.1,5.32-.25,10.48-.88,20.28-4.18,28.82-9.37,1.52-.92,2.99-1.92,4.43-2.96,7.75-5.61,14.25-12.84,19-21.2,1.11-1.96,2.13-3.98,3.04-6.06,3.59-8.17,5.6-17.19,5.6-26.67,0-17.56-6.85-33.54-18.01-45.45ZM142.81,100.9c-.93,3.2-2.11,6.3-3.52,9.27-4.21,8.82-10.47,16.47-18.14,22.37-1.4,1.07-2.85,2.09-4.34,3.04-8.58,5.49-18.6,8.92-29.36,9.56-1.22.07-2.45.12-3.7.12-.59,0-1.17-.03-1.76-.04-25.14-.71-46.55-16.58-55.39-38.78-.96-2.41-1.79-4.88-2.44-7.43-1.25-4.88-1.92-10-1.92-15.26,0-16.21,6.32-30.97,16.6-41.97,1.25-1.34,2.56-2.63,3.93-3.85,7.57-6.78,16.83-11.7,27.06-14.08,4.48-1.04,9.13-1.61,13.92-1.61,7.04,0,13.79,1.2,20.1,3.39,6.36,2.21,12.25,5.43,17.48,9.47,1.7,1.31,3.32,2.72,4.87,4.2,11.73,11.21,19.06,26.99,19.06,44.46,0,5.95-.87,11.7-2.45,17.15Z"/>
        <g>
          <path class="cls-1" d="M36.91,89.34c10.76-9.5,11.68-27.22,10.79-32.26-.09-.52-.18-1.09-.28-1.71-.61-3.82-1.56-9.64-4.64-17.45-1.37,1.22-2.67,2.51-3.93,3.85,2.3,6.34,3.08,11.14,3.6,14.4.11.66.2,1.25.3,1.79.63,3.57-.04,19.55-9.16,27.6-4.16,3.67-7.23,8.69-9.42,13.45.65,2.55,1.48,5.02,2.44,7.43,1.93-5.48,5.23-12.61,10.32-17.1Z"/>
          <path class="cls-1" d="M133.34,82.57c-1.95-3.68-8.14-5.29-14.13-6.84-2.35-.61-5.56-1.45-6.21-1.96-3.38-3.33-18.55-3.87-21.31-3.93-1.17-1.14-3.26-6.25-4.78-11.66,2.21-2.38,8.93-8.87,20.35-13.74,5.32-2.27,12.27-3.94,18.93-5.14-1.55-1.48-3.18-2.88-4.87-4.2-5.69,1.18-11.38,2.72-16.03,4.7-15.34,6.54-22.82,15.77-23.13,16.16-.5.62-.67,1.44-.47,2.21,4.36,16.7,8.29,16.7,9.57,16.7,4.94,0,16.5,1.17,18.21,2.5,1.37,1.35,3.98,2.07,8.48,3.24,3.51.91,10.04,2.61,10.95,4.33.65,1.22,1.55,2.62,2.6,4.25,2.81,4.36,6.65,10.34,6.65,14.98,0,1.64.44,3.73,1.14,6.01,1.42-2.97,2.59-6.07,3.52-9.27-1.11-5.15-4.49-10.41-7.08-14.44-.99-1.53-1.84-2.86-2.38-3.89ZM91.26,69.82h.04-.04Z"/>
          <path class="cls-1" d="M122.23,124.06c.33-.26.59-.47.75-.63,1.31-1.31,1-2.67-.46-9.2-1.17-5.23-2.78-12.39-2.78-17.24,0-3.77-1.66-5.86-3.06-6.95-3.65-2.84-9.14-1.92-10.63-1.59h-17.46c-.59,0-1.17.21-1.62.59l-12.79,10.79c-.16.13-.3.29-.42.45-.73,1.01-7.05,10.1-4.68,17.05l.35,1.02c4,11.75,6.49,18.03,8.88,19.61.7.68,2.1,3.56,3.67,7.24.59.02,1.17.04,1.76.04,1.24,0,2.47-.05,3.7-.12-2.25-5.45-4.55-10.16-6.17-11.22-1.77-1.54-5.77-13.3-7.08-17.17l-.35-1.03c-1.25-3.67,2.27-9.96,3.83-12.24l11.84-9.99h16.83c.2,0,.41-.03.6-.07,1.17-.28,4.88-.78,6.65.6.27.22,1.11.88,1.11,2.98,0,5.41,1.68,12.89,2.9,18.34.42,1.87.88,3.93,1.07,5.1-1.85,1.48-5.5,5.03-3.02,11.64.36.95.74,2.15,1.14,3.5,1.49-.95,2.94-1.97,4.34-3.04-.26-.82-.51-1.57-.76-2.22-1.31-3.48.13-4.94,1.85-6.25Z"/>
        </g>
      </g>
    </g>
  </g>
</svg>