<?xml version="1.0" encoding="UTF-8"?>
<svg id="Capa_2" xmlns="http://www.w3.org/2000/svg" version="1.1" viewBox="0 0 167.5 167.5">
  <!-- Generator: Adobe Illustrator 29.4.0, SVG Export Plug-In . SVG Version: 2.1.0 Build 152)  -->
  <defs>
    <style>
      .st0 {
        fill: #95c11f;
      }

      .st1 {
        fill: #fff;
      }
    </style>
  </defs>
  <g id="Capa_1-2">
    <g>
      <path class="st0" d="M83.8,167.5C37.6,167.5,0,129.9,0,83.8S37.6,0,83.8,0s83.7,37.6,83.7,83.8-37.6,83.7-83.7,83.7h0ZM83.7,19c-43.4,0-63.8,33.6-63.8,63.4,0,43.4,29.6,65.4,66.2,65.4s62.2-39.3,62.1-63c0-33.8-21.1-65.9-64.5-65.9Z"/>
      <g>
        <g>
          <path class="st0" d="M36.9,89.3c10.8-9.5,11.7-27.2,10.8-32.3,0-.5-.2-1.1-.3-1.7-.6-3.8-1.6-9.6-4.6-17.5-.7.6-15.6,10.9-21.7,33.5s5,33.8,5.5,35c1.9-5.5,5.2-12.6,10.3-17.1h0Z"/>
          <path class="st0" d="M145.3,106.4v-8.1l1.9-10.3v-12.1l-4.4-15-10-17.6-6.6-4c-1.6-1.5-3.2-2.9-4.9-4.2-5.7,1.2-11.4,2.7-16,4.7-15.3,6.5-22.8,15.8-23.1,16.2-.5.6-.7,1.4-.5,2.2,4.4,16.7,8.3,16.7,9.6,16.7,4.9,0,16.5,1.2,18.2,2.5,1.4,1.3,4,2.1,8.5,3.2,3.5.9,10,2.6,10.9,4.3.6,1.2,1.6,2.6,2.6,4.2,2.8,4.4,6.6,10.3,6.6,15s.4,3.7,1.1,6l6-3.7ZM91.3,69.8h0,0Z"/>
          <path class="st0" d="M121.1,132.5c-.3-.8-.5-1.6-.8-2.2-1.3-3.5.1-4.9,1.8-6.2h0c.3-.3.6-.5.8-.6,1.3-1.3,1-2.7-.5-9.2-1.2-5.2-2.8-12.4-2.8-17.2s-1.7-5.9-3.1-6.9c-3.7-2.8-9.1-1.9-10.6-1.6h-17.5c-.6,0-1.2.2-1.6.6l-12.8,10.8c-.2.1-.3.3-.4.4-.7,1-7.1,10.1-4.7,17l.3,1c4,11.8,6.5,18,8.9,19.6.7.7,2.1,3.6,3.7,7.2l11.5,2.6,28.5-12.3-.8-3Z"/>
        </g>
        <path class="st1" d="M132.2,38.3c-1.4-1.5-2.9-3-4.5-4.4-5.3-4.7-11.4-8.6-18.1-11.4-2-.9-4.1-1.6-6.2-2.3-6.2-1.9-12.8-3-19.7-3s-8.5.4-12.5,1.2c-2.1.4-4.1.9-6.1,1.5-9.1,2.7-17.4,7.2-24.5,13.2-1.3,1.2-2.7,2.3-3.9,3.6-12.1,12-19.6,28.7-19.6,47.1s1.4,15.6,4,22.7c.9,2.5,2,5,3.2,7.3,11,21.6,33.4,36.4,59.3,36.4h.3c1.8,0,3.6-.1,5.3-.2,10.5-.9,20.3-4.2,28.8-9.4,1.5-.9,3-1.9,4.4-3,7.8-5.6,14.2-12.8,19-21.2,1.1-2,2.1-4,3-6.1,3.6-8.2,5.6-17.2,5.6-26.7,0-17.6-6.9-33.5-18-45.5h0ZM142.8,100.9c-.9,3.2-2.1,6.3-3.5,9.3-4.2,8.8-10.5,16.5-18.1,22.4-1.4,1.1-2.8,2.1-4.3,3-8.6,5.5-18.6,8.9-29.4,9.6-1.2,0-2.4.1-3.7.1s-1.2,0-1.8,0c-25.1-.7-46.5-16.6-55.4-38.8-1-2.4-1.8-4.9-2.4-7.4-1.2-4.9-1.9-10-1.9-15.3,0-16.2,6.3-31,16.6-42,1.2-1.3,2.6-2.6,3.9-3.8,7.6-6.8,16.8-11.7,27.1-14.1,4.5-1,9.1-1.6,13.9-1.6,7,0,13.8,1.2,20.1,3.4,6.4,2.2,12.2,5.4,17.5,9.5,1.7,1.3,3.3,2.7,4.9,4.2,11.7,11.2,19.1,27,19.1,44.5s-.9,11.7-2.4,17.2h0Z"/>
      </g>
    </g>
  </g>
  <path class="st0" d="M101.3,145.6"/>
</svg>