<?xml version="1.0" encoding="UTF-8"?>
<svg id="Capa_2" data-name="Capa 2" xmlns="http://www.w3.org/2000/svg" viewBox="0 0 129.75 162.07">
  <defs>
    <style>
      .cls-1 {
        fill: #95c11f;
      }
    </style>
  </defs>
  <g id="Capa_1-2" data-name="Capa 1">
    <g>
      <path class="cls-1" d="M64.87,162.07c-.73,0-1.42-.31-1.9-.86l-44.37-50.88C6.65,98.22,0,82.04,0,64.87,0,29.1,29.1,0,64.87,0s64.87,29.1,64.87,64.87c0,17.17-6.65,33.35-18.72,45.57l-44.26,50.76c-.48.55-1.17.86-1.9.86ZM64.87,5.04C31.88,5.04,5.04,31.88,5.04,64.87c0,15.83,6.13,30.76,17.26,42.04l42.57,48.81,42.46-48.7c11.24-11.39,17.37-26.32,17.37-42.15,0-32.99-26.84-59.84-59.83-59.84Z"/>
      <g>
        <path class="cls-1" d="M38.84,51.85c2.33,0,3.34.78,4.86,1.95,1.77,1.37,3.98,3.08,8.15,3.08s6.38-1.71,8.15-3.08c1.52-1.18,2.53-1.95,4.86-1.95s3.33.78,4.85,1.95c1.77,1.37,3.98,3.08,8.14,3.08s6.38-1.71,8.15-3.08c1.52-1.18,2.53-1.95,4.86-1.95s3.34.78,4.87,1.96c.8.62,1.71,1.28,2.82,1.85-.56-2.89-1.56-5.6-2.81-8.19-1.28-.58-2.84-.99-4.88-.99-4.17,0-6.38,1.71-8.15,3.08-1.52,1.18-2.53,1.96-4.86,1.96s-3.33-.78-4.85-1.95c-1.77-1.37-3.98-3.08-8.15-3.08s-6.38,1.71-8.15,3.08c-1.52,1.18-2.53,1.96-4.86,1.96s-3.34-.78-4.86-1.95c-1.77-1.37-3.98-3.08-8.15-3.08-2.02,0-3.57.41-4.84.98-1.24,2.58-2.24,5.29-2.81,8.18,1.1-.56,2-1.23,2.79-1.84,1.52-1.18,2.52-1.95,4.86-1.95Z"/>
        <path class="cls-1" d="M82.72,70.67c-1.52,1.18-2.53,1.96-4.86,1.96s-3.33-.78-4.85-1.96c-1.77-1.37-3.98-3.08-8.15-3.08s-6.38,1.71-8.15,3.08c-1.52,1.18-2.53,1.96-4.86,1.96s-3.34-.78-4.86-1.96c-1.77-1.37-3.98-3.08-8.15-3.08-3.58,0-5.68,1.26-7.33,2.48.44,1.86.96,3.7,1.69,5.43.26-.2.54-.39.79-.58,1.52-1.18,2.52-1.96,4.86-1.96s3.34.78,4.86,1.96c1.77,1.37,3.98,3.08,8.15,3.08s6.38-1.71,8.15-3.08c1.52-1.18,2.53-1.96,4.86-1.96s3.33.78,4.85,1.96c1.77,1.37,3.98,3.08,8.14,3.08s6.38-1.71,8.15-3.08c1.52-1.18,2.53-1.96,4.86-1.96s3.34.78,4.87,1.96c.25.19.54.4.81.6.73-1.73,1.25-3.57,1.69-5.43-1.66-1.23-3.76-2.5-7.36-2.5-4.17,0-6.38,1.71-8.15,3.08Z"/>
        <path class="cls-1" d="M64.87,96.59c-14.24,0-26.47-8.71-31.67-21.08-1.17.87-2.55,1.75-4.53,2.2,6.02,14.05,19.98,23.92,36.21,23.92s30.18-9.87,36.2-23.92c-1.99-.44-3.37-1.32-4.53-2.19-5.2,12.36-17.43,21.07-31.67,21.07Z"/>
        <path class="cls-1" d="M99.22,62.24c0,2.71-.39,5.32-.99,7.85.26.2.55.39.79.58,1.21.93,2.26,1.49,3.74,1.74.88-3.27,1.5-6.63,1.5-10.17,0-1.84-.3-3.6-.54-5.37-2.2-.03-3.83-.53-5.16-1.21.42,2.13.67,4.33.67,6.58Z"/>
        <path class="cls-1" d="M31.51,70.07c-.59-2.53-.99-5.13-.99-7.83,0-2.26.25-4.46.67-6.6-1.32.68-2.96,1.19-5.16,1.22-.25,1.77-.54,3.53-.54,5.37,0,3.54.62,6.9,1.5,10.17,1.47-.25,2.51-.8,3.71-1.73.25-.19.54-.4.81-.6Z"/>
        <path class="cls-1" d="M34,47.46c5.55-11.53,17.24-19.57,30.87-19.57s25.33,8.04,30.88,19.58c1.34.6,2.37,1.38,3.27,2.09,1.14.88,2.15,1.41,3.48,1.69-4.8-16.34-19.75-28.39-37.63-28.39s-32.83,12.04-37.63,28.38c1.32-.28,2.32-.8,3.45-1.68.91-.71,1.95-1.49,3.31-2.1Z"/>
        <path class="cls-1" d="M95.75,47.47c1.24,2.58,2.24,5.29,2.81,8.19,1.32.68,2.96,1.18,5.16,1.21-.27-1.93-.68-3.79-1.21-5.63-1.33-.28-2.34-.81-3.48-1.69-.91-.7-1.93-1.48-3.27-2.09Z"/>
        <path class="cls-1" d="M34,47.46c-1.35.61-2.39,1.39-3.31,2.1-1.13.87-2.13,1.4-3.45,1.68-.54,1.83-.95,3.7-1.21,5.63,2.2-.03,3.84-.54,5.16-1.22.57-2.89,1.57-5.6,2.81-8.18Z"/>
        <path class="cls-1" d="M99.02,70.67c-.24-.19-.53-.39-.79-.58-.44,1.86-.96,3.7-1.69,5.43,1.17.86,2.55,1.74,4.53,2.19.72-1.69,1.2-3.5,1.68-5.3-1.48-.24-2.53-.8-3.74-1.74Z"/>
        <path class="cls-1" d="M31.51,70.07c-.27.2-.56.41-.81.6-1.2.93-2.24,1.49-3.71,1.73.48,1.8.96,3.6,1.68,5.29,1.99-.45,3.37-1.33,4.53-2.2-.73-1.73-1.25-3.57-1.69-5.43Z"/>
      </g>
    </g>
  </g>
</svg>