<?xml version="1.0" encoding="UTF-8" standalone="no"?>
<svg
   id="Capa_2"
   version="1.1"
   viewBox="0 0 129.8 162.1"
   sodipodi:docname="c_b40e6d46.svg"
   inkscape:version="1.4 (86a8ad7, 2024-10-11)"
   xmlns:inkscape="http://www.inkscape.org/namespaces/inkscape"
   xmlns:sodipodi="http://sodipodi.sourceforge.net/DTD/sodipodi-0.dtd"
   xmlns="http://www.w3.org/2000/svg"
   xmlns:svg="http://www.w3.org/2000/svg">
  <sodipodi:namedview
     id="namedview4"
     pagecolor="#ffffff"
     bordercolor="#000000"
     borderopacity="0.25"
     inkscape:showpageshadow="2"
     inkscape:pageopacity="0.0"
     inkscape:pagecheckerboard="0"
     inkscape:deskcolor="#d1d1d1"
     inkscape:zoom="5.0277605"
     inkscape:cx="64.840002"
     inkscape:cy="81.050003"
     inkscape:window-width="1920"
     inkscape:window-height="1017"
     inkscape:window-x="1912"
     inkscape:window-y="-8"
     inkscape:window-maximized="1"
     inkscape:current-layer="Capa_2" />
  <!-- Generator: Adobe Illustrator 29.4.0, SVG Export Plug-In . SVG Version: 2.1.0 Build 152)  -->
  <defs
     id="defs1">
    <style
       id="style1">
      .st0 {
        fill: #95c11f;
      }
    </style>
  </defs>
  <g
     id="g3">
    <path
       class="st0"
       d="M98.6,55.7s0,0,0,0c-.4-1.9-.9-3.7-1.6-5.5s-.8-1.8-1.2-2.7c-5.5-11.5-17.2-19.6-30.9-19.6s-25.3,8-30.9,19.6h0s0,0,0,0c1.3-.6,2.8-1,4.8-1,4.2,0,6.4,1.7,8.1,3.1,1.5,1.2,2.5,1.9,4.9,1.9s3.3-.8,4.9-2c1.8-1.4,4-3.1,8.2-3.1s6.4,1.7,8.1,3.1c1.5,1.2,2.5,1.9,4.9,1.9s3.3-.8,4.9-2c1.8-1.4,4-3.1,8.1-3.1s3.6.4,4.9,1c1.2,2.6,2.2,5.3,2.8,8.2-1.1-.6-2-1.2-2.8-1.8-1.5-1.2-2.5-2-4.9-2s-3.3.8-4.9,2c-1.8,1.4-4,3.1-8.2,3.1s-6.4-1.7-8.1-3.1c-1.5-1.2-2.5-2-4.9-2s-3.3.8-4.9,2c-1.8,1.4-4,3.1-8.2,3.1s-6.4-1.7-8.1-3.1c-1.5-1.2-2.5-2-4.9-2h0c-2.3,0-3.3.8-4.9,2-.8.6-1.7,1.3-2.8,1.8-.4,2.1-.7,4.3-.7,6.6s.4,5.3,1,7.8h0s0,0,0,0c1.6-1.2,3.7-2.5,7.3-2.5s6.4,1.7,8.1,3.1c1.5,1.2,2.5,2,4.9,2s3.3-.8,4.9-2c1.8-1.4,4-3.1,8.1-3.1s6.4,1.7,8.2,3.1c1.5,1.2,2.5,2,4.8,2s3.3-.8,4.9-2h0c1.8-1.4,4-3.1,8.2-3.1s5.7,1.3,7.4,2.5c.6-2.5,1-5.1,1-7.8h0c0-2.2-.2-4.5-.7-6.6,0,0,0,0,0,0Z"
       id="path1" />
    <path
       class="st0"
       d="M96.5,75.5c-.3-.2-.6-.4-.8-.6-1.5-1.2-2.5-2-4.9-2s-3.3.8-4.9,2c-1.8,1.4-4,3.1-8.2,3.1s-6.4-1.7-8.1-3.1c-1.5-1.2-2.5-2-4.9-2s-3.3.8-4.9,2c-1.8,1.4-4,3.1-8.2,3.1s-6.4-1.7-8.1-3.1c-1.5-1.2-2.5-2-4.9-2s-3.3.8-4.9,2c-.2.2-.5.4-.8.6,0,0,0,0,0,0h0c5.2,12.4,17.4,21.1,31.7,21.1h0c14.2,0,26.5-8.7,31.7-21.1,0,0,0,0,0,0,0,0,0,0,0,0Z"
       id="path2" />
    <path
       class="st0"
       d="M 64.9,0 C 29.1,0 0.41628082,29.10242 0,64.9 -0.19889571,82.003803 6.7,98.2 18.6,110.4 L 63,161.3 c 0.5,0.5 1.2,0.9 1.9,0.9 v 0 c 0.7,0 1.4,-0.3 1.9,-0.9 l 44.3,-50.8 C 123.2,98.3 129.8,82.1 129.8,64.9 129.7,29.1 100.6,0 64.9,0 Z m 37.9,72.4 v 0 c -0.5,1.8 -1,3.6 -1.7,5.3 v 0 c -6,14.1 -20,23.9 -36.2,23.9 -16.2,0 -30.2,-9.9 -36.2,-23.9 v 0 C 28,75.9 27.5,74.2 27.1,72.4 26.2,69.1 25.6,65.8 25.6,62.2 c 0,-3.6 0.3,-3.6 0.5,-5.4 v 0 c 0.3,-1.9 0.7,-3.8 1.2,-5.6 4.8,-16.3 19.8,-28.4 37.6,-28.4 17.8,0 32.8,12 37.6,28.4 v 0 c 0.5,1.8 0.9,3.7 1.2,5.6 0.2,1.8 0.5,3.5 0.5,5.4 0,3.5 -0.6,6.9 -1.5,10.2 z"
       id="path3"
       sodipodi:nodetypes="ssccsscccscsssssscssscssscscc" />
  </g>
  <path
     class="st0"
     d="M96.9,75.8"
     id="path4" />
</svg>
