<?xml version="1.0" encoding="UTF-8" standalone="no"?>
<svg
   id="Capa_2"
   version="1.1"
   viewBox="0 0 164.7 134.1"
   sodipodi:docname="c_b79e35eb.svg"
   inkscape:version="1.4 (86a8ad7, 2024-10-11)"
   xmlns:inkscape="http://www.inkscape.org/namespaces/inkscape"
   xmlns:sodipodi="http://sodipodi.sourceforge.net/DTD/sodipodi-0.dtd"
   xmlns="http://www.w3.org/2000/svg"
   xmlns:svg="http://www.w3.org/2000/svg">
  <sodipodi:namedview
     id="namedview4"
     pagecolor="#ffffff"
     bordercolor="#000000"
     borderopacity="0.25"
     inkscape:showpageshadow="2"
     inkscape:pageopacity="0.0"
     inkscape:pagecheckerboard="0"
     inkscape:deskcolor="#d1d1d1"
     inkscape:zoom="8.594959"
     inkscape:cx="143.80522"
     inkscape:cy="58.348155"
     inkscape:window-width="1920"
     inkscape:window-height="1017"
     inkscape:window-x="1912"
     inkscape:window-y="-8"
     inkscape:window-maximized="1"
     inkscape:current-layer="Capa_2" />
  <!-- Generator: Adobe Illustrator 29.4.0, SVG Export Plug-In . SVG Version: 2.1.0 Build 152)  -->
  <defs
     id="defs1">
    <style
       id="style1">
      .st0 {
        fill: #f59e00;
      }
    </style>
  </defs>
  <g
     id="g1">
    <circle
       class="st0"
       cx="26.1"
       cy="79.9"
       r="10.1"
       id="circle1" />
    <path
       class="st0"
       d="M26.1,58.7h0c-11.7,0-21.2,9.5-21.2,21.2s11.8,31.2,19.5,44.1c.7,1.3,2.6,1.2,3.3,0,7.6-13.2,19.5-35.6,19.5-44.1s-9.5-21.2-21.1-21.2ZM26.1,95c-8.3,0-15.1-6.8-15.1-15.1s6.8-15.1,15.1-15.1,15.1,6.8,15.1,15.1-6.8,15.1-15.1,15.1Z"
       id="path1" />
  </g>
  <g
     id="g2">
    <circle
       class="st0"
       cx="143.2"
       cy="21.5"
       r="7.7"
       id="circle2" />
    <path
       class="st0"
       d="m 143.2,5 c -9.1,0 -16.6,7.4 -16.6,16.6 0,9.2 9.01309,25.659998 14.43461,36.426945 0.66012,1.310975 2.97071,1.427781 3.64904,0.116348 C 150.40688,47.078488 159.8,28.1 159.8,21.6 159.8,15.1 152.4,5 143.2,5 Z m 0,29.2 c -7,0 -12.6,-5.7 -12.6,-12.6 0,-6.9 5.7,-12.6 12.6,-12.6 6.9,0 12.6,5.7 12.6,12.6 0,6.9 -5.7,12.6 -12.6,12.6 z"
       id="path2"
       sodipodi:nodetypes="sssssssssss" />
  </g>
  <path
     class="st0"
     d="M135.9,134.1H26.1c-1.4,0-2.5-1.1-2.5-2.5s1.1-2.5,2.5-2.5h109.7c6.7,0,12.1-5.4,12.1-12.1v-5c0-6.7-5.4-12.1-12.1-12.1h-51.4c-1.4,0-2.5-1.1-2.5-2.5s1.1-2.5,2.5-2.5h51.4c9.4,0,17.1,7.7,17.1,17.1v5c0,9.4-7.7,17.1-17.1,17.1h0Z"
     id="path3" />
  <path
     class="st0"
     d="M84.5,100c-9.4,0-17.1-7.7-17.1-17.1v-5c0-9.4,7.7-17.1,17.1-17.1h58.7c1.4,0,2.5,1.1,2.5,2.5s-1.1,2.5-2.5,2.5h-58.7c-6.7,0-12.1,5.4-12.1,12.1v5c0,6.7,5.4,12.1,12.1,12.1s2.5,1.1,2.5,2.5-1.1,2.5-2.5,2.5h0Z"
     id="path4" />
</svg>
