<?xml version="1.0" encoding="UTF-8"?>
<svg id="Capa_2" data-name="Capa 2" xmlns="http://www.w3.org/2000/svg" viewBox="0 0 161.1 148.88">
  <defs>
    <style>
      .cls-1 {
        fill: #95c11f;
      }
    </style>
  </defs>
  <g id="Capa_1-2" data-name="Capa 1">
    <g>
      <g>
        <path class="cls-1" d="M87.98,148.88c-1.27,0-2.54-.2-3.78-.61l-56.63-18.79c-1.94-.64-4.1-.48-5.93.43l-18.06,8.85c-1.24.62-2.73.09-3.34-1.14-.61-1.24-.1-2.73,1.14-3.34l18.04-8.85c2.98-1.49,6.52-1.76,9.71-.7l56.63,18.79c1.33.44,2.74.47,4.09.1l2.7-.75c1.63-.45,3.13-1.18,4.49-2.19l57.14-42.44c1.53-1.14,2.23-3.08,1.77-4.94l-.55-2.17c-.36-1.45-1.65-2.45-3.13-2.45-.27,0-.53.07-.76.22l-54.07,33.45c-.77.47-1.73.5-2.51.06l-19.52-10.73c-1.21-.66-1.65-2.18-.98-3.39.66-1.21,2.18-1.65,3.39-.98l18.24,10.03,52.82-32.68c1.02-.63,2.19-.97,3.39-.97,3.79,0,7.06,2.56,7.98,6.23l.55,2.18c.95,3.83-.48,7.81-3.63,10.15l-57.14,42.43c-1.85,1.38-3.92,2.39-6.14,3l-2.69.75c-1.06.3-2.14.44-3.23.44Z"/>
        <path class="cls-1" d="M76.66,112l-13.25-.47c-1.38-.05-2.45-1.2-2.41-2.58.05-1.35,1.16-2.41,2.49-2.41.03,0,.06,0,.09,0l13.12.46,32.4-.55c1.78-.03,3.24-1.4,3.39-3.17l.29-3.39c.13-1.5-.94-2.82-2.43-3.01l-62.47-7.91c-1.22-.15-2.48-.03-3.64.35l-36.37,12.4c-1.3.46-2.72-.25-3.17-1.56-.45-1.3.25-2.72,1.56-3.17l36.38-12.4c1.88-.63,3.91-.83,5.87-.58l62.47,7.91c4.16.52,7.14,4.21,6.78,8.39l-.29,3.39c-.38,4.33-3.94,7.65-8.28,7.73l-32.54.55Z"/>
        <path class="cls-1" d="M108.09,96.58c-.99,0-1.93-.6-2.32-1.57-.51-1.28.12-2.73,1.4-3.24l24.26-9.63c1.92-.68,3.95-.68,5.78-.04,3.97,1.39,6.65,5.15,6.65,9.37v.79c0,1.38-1.12,2.5-2.5,2.5s-2.5-1.12-2.5-2.5v-.79c0-2.09-1.33-3.97-3.3-4.66-.77-.27-1.62-.27-2.38,0l-24.17,9.6c-.3.12-.62.18-.92.18Z"/>
      </g>
      <g>
        <path class="cls-1" d="M75.09,38.33c-25.62,0-46.57-4.83-47.82-5.12-1.34-.32-2.17-1.66-1.86-3,.32-1.34,1.67-2.17,3-1.86.43.1,43.38,9.99,80.82,1.51,1.34-.3,2.68.54,2.99,1.88.3,1.35-.54,2.68-1.88,2.99-11.8,2.67-23.97,3.6-35.25,3.6Z"/>
        <path class="cls-1" d="M89.57,53.34s-.07,0-.11,0c-18.37-.8-29.79-15.39-30.27-16.01-.84-1.09-.63-2.65.46-3.49,1.09-.85,2.66-.64,3.5.45.1.13,10.53,13.37,26.53,14.07,1.38.06,2.44,1.23,2.38,2.6-.06,1.34-1.16,2.39-2.49,2.39Z"/>
        <path class="cls-1" d="M71.08,38.3c-.58,0-1.17-.2-1.64-.62-1.04-.91-1.14-2.48-.24-3.52.5-.57,12.32-13.98,23.56-16.79,1.33-.34,2.69.48,3.02,1.82.34,1.34-.48,2.69-1.81,3.02-9.71,2.43-20.89,15.11-21.01,15.23-.49.56-1.18.85-1.88.85Z"/>
        <path class="cls-1" d="M75.32,71.62c-6.63,0-12.5-1.45-17.56-4.36-9.74-5.6-16-16.3-18.62-31.82-.03-.19-.04-.38-.03-.58.05-.76,1.37-18.82,13.29-28.69C58.44,1.17,66.05-.8,75.05.29c14.93,1.83,26.31,5.51,36.35,8.76,11.41,3.69,20.43,6.62,29.47,4.75.85-.17,1.73.1,2.32.73.59.63.82,1.52.6,2.36-6.19,23.24-22.5,41.39-44.74,49.78-8.74,3.3-16.66,4.94-23.72,4.94ZM44.12,34.92c2.38,13.8,7.81,23.23,16.13,28.01,9.1,5.23,21.56,4.92,37.03-.92,19.53-7.37,34.15-22.83,40.6-42.73-8.86.74-17.47-2.05-28.02-5.46-9.82-3.18-20.96-6.79-35.42-8.56-7.56-.93-13.9.67-18.84,4.75-9.54,7.88-11.28,22.73-11.49,24.92Z"/>
      </g>
    </g>
  </g>
</svg>