<?xml version="1.0" encoding="UTF-8"?>
<svg id="Capa_2" data-name="Capa 2" xmlns="http://www.w3.org/2000/svg" viewBox="0 0 178.37 151.33">
  <defs>
    <style>
      .cls-1 {
        fill: #95c11f;
      }
    </style>
  </defs>
  <g id="Capa_1-2" data-name="Capa 1">
    <g>
      <path class="cls-1" d="M66.92,133.61c-.43,0-.86-.11-1.25-.33-1.03-.6-1.49-1.84-1.11-2.96l16.43-48.51h-18.62c-.82,0-1.59-.4-2.06-1.08-.47-.68-.57-1.54-.27-2.31l16.25-42.05c.5-1.29,1.95-1.93,3.23-1.43,1.29.5,1.92,1.94,1.43,3.23l-14.94,38.65h18.46c.8,0,1.56.38,2.03,1.04.47.65.59,1.49.34,2.25l-13.55,40.01,49.69-56.41-26.59-.3c-.85,0-1.65-.46-2.1-1.19-.45-.73-.49-1.64-.11-2.41l14.66-29.81h-22.39c-1.38,0-2.49-1.12-2.49-2.5s1.12-2.49,2.49-2.49h26.4c.86,0,1.66.44,2.12,1.18.46.73.5,1.65.12,2.42l-14.68,29.86,28.07.32c.97.01,1.85.59,2.25,1.48.39.89.24,1.93-.41,2.66l-61.52,69.84c-.49.55-1.17.85-1.87.85Z"/>
      <g>
        <g>
          <path class="cls-1" d="M151.35,116.7c-.45,0-.9-.12-1.31-.37-1.17-.73-1.53-2.26-.8-3.44,16.04-25.87,13.73-58.98-5.75-82.39C122.76,5.59,87.9-2.05,58.72,11.93c-1.24.6-2.73.07-3.33-1.17-.59-1.24-.07-2.73,1.17-3.33C87.82-7.54,125.14.64,147.32,27.3c20.85,25.07,23.33,60.52,6.16,88.21-.47.76-1.29,1.18-2.12,1.18Z"/>
          <g>
            <polygon class="cls-1" points="141.05 89.62 145.89 88.4 151.86 112.27 175.24 104.57 176.8 109.31 148.33 118.69 141.05 89.62"/>
            <path class="cls-1" d="M147.44,120.29l-7.91-31.58,7.26-1.83,5.95,23.78,23.29-7.67,2.33,7.12-30.93,10.18ZM142.56,90.52l6.65,26.56,26.01-8.57-.78-2.37-23.46,7.73-6-23.96-2.42.61Z"/>
          </g>
        </g>
        <g>
          <path class="cls-1" d="M89.2,151.33c-21.92,0-43.38-9.56-58.14-27.3-20.86-25.07-23.33-60.52-6.16-88.21.73-1.17,2.26-1.53,3.44-.81,1.17.73,1.53,2.27.8,3.44-16.04,25.86-13.73,58.97,5.75,82.39,20.72,24.91,55.58,32.55,84.76,18.57,1.24-.6,2.73-.07,3.33,1.17s.07,2.73-1.17,3.33c-10.45,5.01-21.59,7.42-32.61,7.42Z"/>
          <g>
            <polygon class="cls-1" points="37.33 61.71 32.48 62.93 26.51 39.06 3.13 46.76 1.57 42.02 30.04 32.64 37.33 61.71"/>
            <path class="cls-1" d="M31.57,64.45l-5.95-23.78-23.28,7.67-2.34-7.11,30.93-10.19,7.91,31.58-7.26,1.83ZM27.39,37.45l5.99,23.96,2.42-.61-6.65-26.56L3.15,42.81l.78,2.37,23.46-7.73Z"/>
          </g>
        </g>
      </g>
    </g>
  </g>
</svg>