<?xml version="1.0" encoding="UTF-8"?>
<svg id="Capa_2" xmlns="http://www.w3.org/2000/svg" version="1.1" viewBox="0 0 161.1 148.9">
  <!-- Generator: Adobe Illustrator 29.4.0, SVG Export Plug-In . SVG Version: 2.1.0 Build 152)  -->
  <defs>
    <style>
      .st0 {
        fill: #95c11f;
      }

      .st1 {
        fill: #fff;
      }
    </style>
  </defs>
  <polyline class="st0" points="6.3 99.7 44.5 86.5 108.2 94.2 133.7 83.9 139.4 86.3 140.9 90.9 152.3 86 156.3 89.1 158.2 94.6 150.8 104 95.9 144.4 86.5 146.2 23.7 126.4 6.3 134.8"/>
  <path class="st0" d="M75.3,71.6c-6.6,0-12.5-1.4-17.6-4.4-9.7-5.6-16-16.3-18.6-31.8,0-.2,0-.4,0-.6,0-.8,1.4-18.8,13.3-28.7C58.4,1.2,66.1-.8,75.1.3c14.9,1.8,26.3,5.5,36.3,8.8,11.4,3.7,20.4,6.6,29.5,4.8.9-.2,1.7.1,2.3.7.6.6.8,1.5.6,2.4-6.2,23.2-22.5,41.4-44.7,49.8-8.7,3.3-16.7,4.9-23.7,4.9h0Z"/>
  <path class="st1" d="M88,148.9c-1.3,0-2.5-.2-3.8-.6l-56.6-18.8c-1.9-.6-4.1-.5-5.9.4l-18.1,8.9c-1.2.6-2.7,0-3.3-1.1-.6-1.2,0-2.7,1.1-3.3l18-8.8c3-1.5,6.5-1.8,9.7-.7l56.6,18.8c1.3.4,2.7.5,4.1.1l2.7-.8c1.6-.4,3.1-1.2,4.5-2.2l57.1-42.4c1.5-1.1,2.2-3.1,1.8-4.9l-.6-2.2c-.4-1.4-1.6-2.4-3.1-2.4s-.5,0-.8.2l-54.1,33.4c-.8.5-1.7.5-2.5,0l-19.5-10.7c-1.2-.7-1.7-2.2-1-3.4.7-1.2,2.2-1.7,3.4-1l18.2,10,52.8-32.7c1-.6,2.2-1,3.4-1,3.8,0,7.1,2.6,8,6.2l.6,2.2c.9,3.8-.5,7.8-3.6,10.2l-57.1,42.4c-1.8,1.4-3.9,2.4-6.1,3l-2.7.8c-1.1.3-2.1.4-3.2.4h0Z"/>
  <path class="st1" d="M76.7,112l-13.2-.5c-1.4,0-2.5-1.2-2.4-2.6,0-1.3,1.2-2.4,2.5-2.4h0l13.1.5,32.4-.6c1.8,0,3.2-1.4,3.4-3.2l.3-3.4c.1-1.5-.9-2.8-2.4-3l-62.5-7.9c-1.2-.2-2.5,0-3.6.3l-36.4,12.4c-1.3.5-2.7-.2-3.2-1.6-.4-1.3.2-2.7,1.6-3.2l36.4-12.4c1.9-.6,3.9-.8,5.9-.6l62.5,7.9c4.2.5,7.1,4.2,6.8,8.4l-.3,3.4c-.4,4.3-3.9,7.7-8.3,7.7l-32.5.6h0Z"/>
  <path class="st1" d="M108.1,96.6c-1,0-1.9-.6-2.3-1.6-.5-1.3.1-2.7,1.4-3.2l24.3-9.6c1.9-.7,3.9-.7,5.8,0,4,1.4,6.6,5.2,6.6,9.4v.8c0,1.4-1.1,2.5-2.5,2.5s-2.5-1.1-2.5-2.5v-.8c0-2.1-1.3-4-3.3-4.7-.8-.3-1.6-.3-2.4,0l-24.2,9.6c-.3.1-.6.2-.9.2h0Z"/>
  <path class="st1" d="M75.1,38.3c-25.6,0-46.6-4.8-47.8-5.1-1.3-.3-2.2-1.7-1.9-3,.3-1.3,1.7-2.2,3-1.9.4.1,43.4,10,80.8,1.5,1.3-.3,2.7.5,3,1.9.3,1.3-.5,2.7-1.9,3-11.8,2.7-24,3.6-35.2,3.6Z"/>
  <path class="st1" d="M89.6,53.3h-.1c-18.4-.8-29.8-15.4-30.3-16-.8-1.1-.6-2.7.5-3.5,1.1-.8,2.7-.6,3.5.5,0,.1,10.5,13.4,26.5,14.1,1.4,0,2.4,1.2,2.4,2.6,0,1.3-1.2,2.4-2.5,2.4h0Z"/>
  <path class="st1" d="M71.1,38.3c-.6,0-1.2-.2-1.6-.6-1-.9-1.1-2.5-.2-3.5.5-.6,12.3-14,23.6-16.8,1.3-.3,2.7.5,3,1.8.3,1.3-.5,2.7-1.8,3-9.7,2.4-20.9,15.1-21,15.2-.5.6-1.2.8-1.9.8h0Z"/>
  <path class="st0" d="M39.1,35.4c-6.6-1.1-11.3-2.1-11.9-2.2-1.3-.3-2.2-1.7-1.9-3,.3-1.3,1.7-2.2,3-1.9.1,0,4.4,1,11.3,2.1"/>
  <path class="st0" d="M39.1,35.4"/>
</svg>