<?xml version="1.0" encoding="UTF-8"?>
<svg id="Capa_2" xmlns="http://www.w3.org/2000/svg" version="1.1" viewBox="0 0 178.4 151.3">
  <!-- Generator: Adobe Illustrator 29.4.0, SVG Export Plug-In . SVG Version: 2.1.0 Build 152)  -->
  <defs>
    <style>
      .st0 {
        fill: #95c11f;
      }
    </style>
  </defs>
  <g id="Capa_1-2">
    <g>
      <path class="st0" d="M66.9,133.6c-.4,0-.9-.1-1.2-.3-1-.6-1.5-1.8-1.1-3l16.4-48.5h-18.6c-.8,0-1.6-.4-2.1-1.1s-.6-1.5-.3-2.3l16.2-42c.5-1.3,1.9-1.9,3.2-1.4,1.3.5,1.9,1.9,1.4,3.2l-14.9,38.7h18.5c.8,0,1.6.4,2,1,.5.7.6,1.5.3,2.2l-13.6,40,49.7-56.4-26.6-.3c-.8,0-1.7-.5-2.1-1.2s-.5-1.6-.1-2.4l14.7-29.8h-22.4c-1.4,0-2.5-1.1-2.5-2.5s1.1-2.5,2.5-2.5h26.4c.9,0,1.7.4,2.1,1.2.5.7.5,1.6.1,2.4l-14.7,29.9,28.1.3c1,0,1.9.6,2.2,1.5.4.9.2,1.9-.4,2.7l-61.5,69.8c-.5.6-1.2.9-1.9.9h0Z"/>
      <g>
        <g>
          <path class="st0" d="M151.4,116.7c-.4,0-.9-.1-1.3-.4-1.2-.7-1.5-2.3-.8-3.4,16-25.9,13.7-59-5.8-82.4C122.8,5.6,87.9-2,58.7,11.9c-1.2.6-2.7,0-3.3-1.2-.6-1.2,0-2.7,1.2-3.3C87.8-7.5,125.1.6,147.3,27.3c20.9,25.1,23.3,60.5,6.2,88.2-.5.8-1.3,1.2-2.1,1.2h0Z"/>
          <g>
            <polygon class="st0" points="141.1 89.6 145.9 88.4 151.9 112.3 175.2 104.6 176.8 109.3 148.3 118.7 141.1 89.6"/>
            <path class="st0" d="M147.4,120.3l-7.9-31.6,7.3-1.8,5.9,23.8,23.3-7.7,2.3,7.1-30.9,10.2h0ZM142.6,90.5l6.6,26.6,26-8.6-.8-2.4-23.5,7.7-6-24-2.4.6h0Z"/>
          </g>
        </g>
        <g>
          <path class="st0" d="M89.2,151.3c-21.9,0-43.4-9.6-58.1-27.3-20.9-25.1-23.3-60.5-6.2-88.2.7-1.2,2.3-1.5,3.4-.8,1.2.7,1.5,2.3.8,3.4-16,25.9-13.7,59,5.8,82.4,20.7,24.9,55.6,32.6,84.8,18.6,1.2-.6,2.7,0,3.3,1.2s0,2.7-1.2,3.3c-10.4,5-21.6,7.4-32.6,7.4Z"/>
          <g>
            <polygon class="st0" points="37.3 61.7 32.5 62.9 26.5 39.1 3.1 46.8 1.6 42 30 32.6 37.3 61.7"/>
            <path class="st0" d="M31.6,64.4l-6-23.8-23.3,7.7L0,41.2l30.9-10.2,7.9,31.6-7.3,1.8h0ZM27.4,37.5l6,24,2.4-.6-6.6-26.6L3.2,42.8l.8,2.4,23.5-7.7Z"/>
          </g>
        </g>
      </g>
    </g>
  </g>
  <path class="st0" d="M76.1,36.8l3.8-9c.7-1.6,2.7-2.7,4.4-2.7h4.9l-2,5h-3.4c0,0-2.9,8.2-2.9,8.2l-4.8-1.4Z"/>
  <polygon class="st0" points="83.8 26.4 111.1 27.5 96.8 60.1 127.2 61.4 68.4 128 83.2 79.3 63.3 79.3 83.8 26.4"/>
</svg>