<?xml version="1.0" encoding="UTF-8"?>
<svg id="Capa_2" data-name="Capa 2" xmlns="http://www.w3.org/2000/svg" viewBox="0 0 167.49 167.57">
  <defs>
    <style>
      .cls-1 {
        fill: #95c11f;
      }
    </style>
  </defs>
  <g id="Capa_1-2" data-name="Capa 1">
    <g>
      <g>
        <g>
          <path class="cls-1" d="M145.23,64.87c-.63,0-1.25-.23-1.74-.71L83.75,5.98l-59.74,58.18c-.99.96-2.57.94-3.53-.05-.96-.99-.94-2.57.05-3.53L82,.71c.96-.94,2.52-.94,3.48,0l61.48,59.88c.99.96,1.01,2.54.05,3.53-.49.5-1.14.75-1.79.75Z"/>
          <path class="cls-1" d="M128.5,86.69H39c-1.38,0-2.5-1.12-2.5-2.5v-26.63c0-1.38,1.12-2.5,2.5-2.5s2.5,1.12,2.5,2.5v24.13h84.51v-24.13c0-1.38,1.12-2.5,2.5-2.5s2.5,1.12,2.5,2.5v26.63c0,1.38-1.12,2.5-2.5,2.5Z"/>
        </g>
        <path class="cls-1" d="M124.84,45.02c-1.38,0-2.5-1.12-2.5-2.5V4.99h-11.21v21.75c0,1.38-1.12,2.5-2.5,2.5s-2.5-1.12-2.5-2.5V2.5C106.14,1.12,107.26,0,108.64,0h16.2C126.22,0,127.34,1.12,127.34,2.5v40.02c0,1.38-1.12,2.5-2.5,2.5Z"/>
      </g>
      <path class="cls-1" d="M162.45,83.86c0,.79-.1,1.55-.12,2.33h.78c1.39,0,2.52,1.13,2.52,2.52,0,1.39-1.13,2.52-2.52,2.52h-1.04c-1.01,10.77-4.17,20.91-9.09,29.99,1.04.23,1.81.39,1.84.4,1.36.29,2.23,1.63,1.94,2.99-.29,1.36-1.63,2.23-2.99,1.94-.19-.04-1.57-.34-3.54-.78-5.49,8.68-12.61,16.2-20.96,22.15.71.38,1.24.67,1.49.81.83.46,1.29,1.32,1.29,2.2,0,.41-.1.83-.32,1.22-.68,1.21-2.21,1.65-3.43.97-.96-.54-2.34-1.27-3.87-2.05-11.9,7.23-25.82,11.48-40.73,11.47-17.67,0-33.95-5.94-47.1-15.82-.07.89-.11,1.43-.11,1.46-.09,1.39-1.29,2.44-2.68,2.35-.58-.04-1.05-.35-1.46-.71,14.19,11.07,31.98,17.74,51.34,17.75,46.18.02,83.76-37.53,83.78-83.71h-5.04Z"/>
      <path class="cls-1" d="M31.9,142.89c-4.95-4.35-9.39-9.27-13.12-14.72l.03.82c.03,1.4-1.03,2.56-2.41,2.62-1.39.06-2.56-1.02-2.62-2.41l-.42-10.37c-5.28-10.57-8.32-22.44-8.31-35.03H0c-.01,26.68,12.57,50.44,32.06,65.8-.38-.47-.63-1.07-.59-1.74.02-.28.14-2.12.42-4.96Z"/>
      <path class="cls-1" d="M89.16,131.57c-1.63-1.05-3.04-1.95-4.25-2.6-1.72-.91-3.41-7.44-4.32-10.95-1.17-4.5-1.89-7.11-3.24-8.48-1.33-1.7-2.49-13.27-2.49-18.21,0-1.08-.13-4.02-9.98-7.52h-10.69c-3.07,2.95-9.49,10.03-14.39,21.53-4.85,11.37-7.06,28.99-7.89,37.54,1.52,1.34,3.1,2.6,4.72,3.82.46-5.69,2.5-26.97,7.8-39.39,4.88-11.43,11.37-18.14,13.75-20.35,5.4,1.52,10.52,3.61,11.66,4.79.06,2.75.6,17.92,3.93,21.31.51.66,1.35,3.87,1.96,6.22,1.55,5.99,3.16,12.18,6.84,14.13,1.03.55,2.36,1.4,3.89,2.39,4.89,3.15,11.59,7.46,17.7,7.46,4.29,0,14.07,4.57,20.32,7.8,1.65-1,3.26-2.04,4.83-3.16-4.75-2.56-18.54-9.68-25.14-9.68-4.63,0-10.61-3.85-14.97-6.66ZM69.82,91.33v.04s0-.03,0-.04Z"/>
      <path class="cls-1" d="M32.37,149.82c-.1-.08-.21-.15-.31-.23.09.11.21.14.31.23Z"/>
      <path class="cls-1" d="M128.31,153.12c1.21.68,2.75.24,3.43-.97.22-.39.32-.81.32-1.22,0-.88-.46-1.74-1.29-2.2-.25-.14-.78-.43-1.49-.81-1.57,1.12-3.18,2.15-4.83,3.16,1.53.79,2.9,1.52,3.87,2.05Z"/>
      <path class="cls-1" d="M36.51,148.18s.04-.57.11-1.46c-1.62-1.22-3.2-2.49-4.72-3.82-.27,2.84-.4,4.68-.42,4.96-.05.67.2,1.27.59,1.74.1.08.21.15.31.23.41.36.87.67,1.46.71,1.39.09,2.59-.96,2.68-2.35Z"/>
      <path class="cls-1" d="M120.43,118.78c-1.17-.19-3.23-.66-5.1-1.08-5.46-1.23-12.93-2.91-18.34-2.91-2.1,0-2.76-.84-2.98-1.11-1.38-1.77-.88-5.48-.6-6.65.05-.2.07-.4.07-.6v-16.83s4.88-5.77,4.88-5.77h-6.59s-2.72,3.22-2.72,3.22c-.38.46-.59,1.03-.6,1.63v17.46c-.34,1.5-1.27,6.99,1.58,10.63,1.09,1.39,3.18,3.06,6.95,3.06,4.85,0,12.01,1.61,17.24,2.79,6.53,1.47,7.89,1.77,9.2.46.16-.16.37-.42.63-.75,1.31-1.72,2.77-3.16,6.25-1.85,4.71,1.77,14.62,4.09,19.94,5.28.95-1.5,1.91-2.99,2.75-4.55-4.4-.97-15.98-3.59-20.92-5.45-6.61-2.48-10.17,1.17-11.64,3.01Z"/>
      <path class="cls-1" d="M149.5,83.85h-12.28c4.11,2.3,11.07,5.04,17.09,7.22.27.1.56.15.85.15h6.91c.16-1.66.21-3.34.26-5.03h-6.73c-2.01-.73-4.1-1.53-6.11-2.33Z"/>
      <path class="cls-1" d="M163.12,91.22c1.39,0,2.52-1.12,2.52-2.52,0-1.39-1.13-2.52-2.52-2.52h-.78c-.05,1.69-.1,3.38-.26,5.04h1.04Z"/>
      <path class="cls-1" d="M153.78,126.54c1.36.29,2.7-.58,2.99-1.94.29-1.36-.58-2.7-1.94-2.99-.03,0-.79-.17-1.84-.4-.85,1.56-1.81,3.05-2.75,4.55,1.97.44,3.36.74,3.54.78Z"/>
      <path class="cls-1" d="M27.28,97.54c0-.67-.08-1.3-.25-1.89-.67-2.28-.68-7.2-.49-11.85h-5.05c-.19,4.86-.16,10.34.71,13.28.74,2.46-3.78,10.28-8.45,16.05-.39.48-.59,1.06-.56,1.69l.16,4.01c1.62,3.24,3.39,6.38,5.42,9.35l-.52-12.62c2.82-3.58,9.02-12.13,9.02-18.01Z"/>
      <path class="cls-1" d="M13.78,129.19c.06,1.39,1.23,2.47,2.62,2.41,1.39-.06,2.44-1.22,2.41-2.62l-.03-.82c-2.03-2.97-3.81-6.11-5.42-9.35l.42,10.37Z"/>
      <path class="cls-1" d="M58.16,81.76c-.77-.2-1.59-.03-2.21.47-.1.08-.75.61-1.77,1.59h10.69c-1.89-.67-4.02-1.35-6.71-2.06Z"/>
      <path class="cls-1" d="M167.49,84.19c0,1.39-1.13,2.52-2.52,2.52H2.52C1.13,86.71,0,85.58,0,84.19s1.13-2.52,2.52-2.52h162.45c1.39,0,2.52,1.13,2.52,2.52Z"/>
    </g>
  </g>
</svg>