<?xml version="1.0" encoding="UTF-8"?>
<svg id="Capa_2" xmlns="http://www.w3.org/2000/svg" version="1.1" viewBox="0 0 167.5 167.6">
  <!-- Generator: Adobe Illustrator 29.4.0, SVG Export Plug-In . SVG Version: 2.1.0 Build 152)  -->
  <defs>
    <style>
      .st0 {
        fill: #95c11f;
      }
    </style>
  </defs>
  <g id="Capa_1-2">
    <g>
      <g>
        <g>
          <path class="st0" d="M145.2,64.9c-.6,0-1.2-.2-1.7-.7L83.8,6l-59.7,58.2c-1,1-2.6.9-3.5,0-1-1-.9-2.6,0-3.5L82,.7c1-.9,2.5-.9,3.5,0l61.5,59.9c1,1,1,2.5,0,3.5-.5.5-1.1.8-1.8.8h0Z"/>
          <path class="st0" d="M128.5,86.7H39c-1.4,0-2.5-1.1-2.5-2.5v-37.6c0-1.4,1.1-2.5,2.5-2.5s2.5,1.1,2.5,2.5v35.1h84.5v-35.1c0-1.4,1.1-2.5,2.5-2.5s2.5,1.1,2.5,2.5v37.6c0,1.4-1.1,2.5-2.5,2.5h0Z"/>
        </g>
        <path class="st0" d="M111.1,26.7c0,1.4-1.1,2.5-2.5,2.5s-2.5-1.1-2.5-2.5V2.5c0-1.4,1.1-2.5,2.5-2.5h16.2c1.4,0,2.5,1.1,2.5,2.5v40c0,1.4-1.1,2.5-2.5,2.5s-2.5-1.1-2.5-2.5"/>
      </g>
      <path class="st0" d="M162.4,83.9c0,.8-.1,1.6-.1,2.3h.8c1.4,0,2.5,1.1,2.5,2.5s-1.1,2.5-2.5,2.5h-1c-1,10.8-4.2,20.9-9.1,30,1,.2,1.8.4,1.8.4,1.4.3,2.2,1.6,1.9,3s-1.6,2.2-3,1.9c-.2,0-1.6-.3-3.5-.8-5.5,8.7-12.6,16.2-21,22.2.7.4,1.2.7,1.5.8.8.5,1.3,1.3,1.3,2.2s-.1.8-.3,1.2c-.7,1.2-2.2,1.6-3.4,1-1-.5-2.3-1.3-3.9-2.1-11.9,7.2-25.8,11.5-40.7,11.5-17.7,0-34-5.9-47.1-15.8,0,.9-.1,1.4-.1,1.5,0,1.4-1.3,2.4-2.7,2.4-.6,0-1-.4-1.5-.7,14.2,11.1,32,17.7,51.3,17.8,46.2,0,83.8-37.5,83.8-83.7h-5,0Z"/>
      <path class="st0" d="M31.9,142.9c-4.9-4.4-9.4-9.3-13.1-14.7v.8c0,1.4-1,2.6-2.4,2.6-1.4,0-2.6-1-2.6-2.4l-.4-10.4c-5.3-10.6-8.3-22.4-8.3-35H0c0,26.7,12.6,50.4,32.1,65.8-.4-.5-.6-1.1-.6-1.7,0-.3.1-2.1.4-5h0Z"/>
      <path class="st0" d="M37.9,149.8l19.5,12.1,21,3.2,31.6-4.4,14.6-9.6c1.7-1,3.3-2,4.8-3.2-4.8-2.6-18.5-9.7-25.1-9.7s-10.6-3.9-15-6.7h0c-1.6-1-3-1.9-4.2-2.6-1.7-.9-3.4-7.4-4.3-10.9-1.2-4.5-1.9-7.1-3.2-8.5-1.3-1.7-2.5-13.3-2.5-18.2s-.1-4-10-7.5h-10.7c-3.1,2.9-9.5,10-14.4,21.5-4.8,11.4-7.1,29-7.9,37.5,1.5,1.3,3.1,2.6,4.7,3.8M69.8,91.3"/>
      <path class="st0" d="M32.4,149.8c0,0-.2-.1-.3-.2,0,.1.2.1.3.2Z"/>
      <path class="st0" d="M128.3,153.1c1.2.7,2.8.2,3.4-1,.2-.4.3-.8.3-1.2,0-.9-.5-1.7-1.3-2.2-.2-.1-.8-.4-1.5-.8-1.6,1.1-3.2,2.1-4.8,3.2,1.5.8,2.9,1.5,3.9,2.1h0Z"/>
      <path class="st0" d="M36.5,148.2s0-.6.1-1.5c-1.6-1.2-3.2-2.5-4.7-3.8-.3,2.8-.4,4.7-.4,5,0,.7.2,1.3.6,1.7,0,0,.2.1.3.2.4.4.9.7,1.5.7,1.4,0,2.6-1,2.7-2.4h0Z"/>
      <path class="st0" d="M156.8,118.8l2.6-6.7,4.4-24.6-5.9-3.3-59.6-.4h-6.6l-2.7,3.2c-.4.5-.6,1-.6,1.6v17.5c-.3,1.5-1.3,7,1.6,10.6,1.1,1.4,3.2,3.1,6.9,3.1s12,1.6,17.2,2.8c6.5,1.5,7.9,1.8,9.2.5s.4-.4.6-.8c1.3-1.7,2.8-3.2,6.2-1.8,4.7,1.8,14.6,4.1,19.9,5.3.9-1.5,1.9-3,2.8-4.6"/>
      <path class="st0" d="M149.5,83.8h-12.3c4.1,2.3,11.1,5,17.1,7.2.3,0,.6.2.9.2h6.9c.2-1.7.2-3.3.3-5h-6.7c-2-.7-4.1-1.5-6.1-2.3h0Z"/>
      <path class="st0" d="M163.1,91.2c1.4,0,2.5-1.1,2.5-2.5s-1.1-2.5-2.5-2.5h-.8c0,1.7-.1,3.4-.3,5,0,0,1,0,1,0Z"/>
      <path class="st0" d="M153.8,126.5c1.4.3,2.7-.6,3-1.9.3-1.4-.6-2.7-1.9-3,0,0-.8-.2-1.8-.4-.9,1.6-1.8,3.1-2.8,4.6,2,.4,3.4.7,3.5.8Z"/>
      <path class="st0" d="M12,121.2c1.6,3.2,4.8,4,6.8,7l-.5-12.6c2.8-3.6,9-12.1,9-18h0c0-.7,0-1.3-.2-1.9-.7-2.3-.7-7.2-.5-11.8h-5l-18.9.4,4.7,27,4.7,10.1Z"/>
      <path class="st0" d="M13.8,129.2c0,1.4,1.2,2.5,2.6,2.4s2.4-1.2,2.4-2.6v-.8c-2.1-3-3.8-6.1-5.5-9.3l.4,10.4h0Z"/>
      <path class="st0" d="M58.2,81.8c-.8-.2-1.6,0-2.2.5,0,0-.8.6-1.8,1.6h10.7c-1.9-.7-4-1.3-6.7-2.1Z"/>
      <path class="st0" d="M167.5,84.2c0,1.4-1.1,2.5-2.5,2.5H2.5c-1.4,0-2.5-1.1-2.5-2.5s1.1-2.5,2.5-2.5h162.5c1.4,0,2.5,1.1,2.5,2.5Z"/>
    </g>
  </g>
  <polygon class="st0" points="38.8 47.3 83.7 2.5 128.3 46.1 128.5 86.7 106.1 84.2 38.8 83.8 38.8 47.3"/>
</svg>