<?xml version="1.0" encoding="UTF-8"?>
<svg id="Capa_2" data-name="Capa 2" xmlns="http://www.w3.org/2000/svg" viewBox="0 0 162.57 178.26">
  <defs>
    <style>
      .cls-1 {
        fill: #95c11f;
      }
    </style>
  </defs>
  <g id="Capa_1-2" data-name="Capa 1">
    <g>
      <g>
        <path class="cls-1" d="M88.78,178.26c-1.28,0-2.56-.2-3.81-.62l-57.15-18.96c-1.96-.65-4.14-.49-5.98.43l-18.22,8.94c-1.25.61-2.76.09-3.37-1.15-.61-1.25-.1-2.76,1.15-3.37l18.2-8.93c3.01-1.51,6.59-1.77,9.8-.7l57.15,18.96c1.34.44,2.76.48,4.12.1l2.73-.76c1.64-.45,3.16-1.19,4.53-2.21l57.66-42.82c1.55-1.15,2.24-3.1,1.78-4.98l-.55-2.19c-.36-1.46-1.66-2.47-3.16-2.47-.27,0-.54.07-.77.22l-54.57,33.76c-.77.48-1.74.5-2.54.06l-19.7-10.82c-1.22-.67-1.66-2.2-.99-3.42.67-1.22,2.2-1.67,3.42-.99l18.41,10.12,53.31-32.98c1.02-.64,2.21-.98,3.43-.98,3.82,0,7.13,2.58,8.05,6.28l.56,2.2c.96,3.87-.48,7.88-3.66,10.25l-57.66,42.82c-1.86,1.39-3.95,2.41-6.19,3.02l-2.72.75c-1.07.3-2.16.45-3.26.45Z"/>
        <path class="cls-1" d="M77.36,141.05l-13.37-.47c-1.39-.05-2.48-1.22-2.43-2.61.05-1.39,1.25-2.48,2.61-2.43l13.24.47,32.69-.56c1.79-.03,3.27-1.41,3.43-3.2l.3-3.42c.13-1.51-.95-2.84-2.45-3.04l-63.04-7.98c-1.24-.16-2.51-.03-3.68.36l-36.7,12.51c-1.32.45-2.75-.25-3.2-1.57-.45-1.32.26-2.75,1.57-3.2l36.71-12.51c1.9-.63,3.94-.83,5.92-.58l63.04,7.98c4.2.53,7.2,4.25,6.84,8.47l-.3,3.42c-.38,4.37-3.98,7.72-8.35,7.8l-32.83.56Z"/>
        <path class="cls-1" d="M109.08,125.49c-1,0-1.95-.6-2.34-1.59-.51-1.29.12-2.76,1.41-3.27l24.49-9.72c1.94-.69,3.98-.69,5.83-.04,4.01,1.4,6.71,5.21,6.71,9.45v.79c0,1.39-1.13,2.52-2.52,2.52s-2.52-1.13-2.52-2.52v-.79c0-2.11-1.34-4-3.33-4.7-.77-.27-1.63-.27-2.4,0l-24.4,9.68c-.3.12-.62.18-.93.18Z"/>
      </g>
      <g>
        <path class="cls-1" d="M81.29,105.66h-.02c-29.04-.09-52.66-23.79-52.66-52.83S52.24.09,81.28,0c29.05.09,52.68,23.79,52.68,52.83s-23.62,52.74-52.66,52.83ZM81.28,5.04c-26.25.08-47.62,21.52-47.62,47.79s21.37,47.7,47.63,47.79c26.26-.09,47.63-21.53,47.63-47.79S107.54,5.12,81.28,5.04Z"/>
        <path class="cls-1" d="M81.28,105.57c-.41,0-.82-.1-1.19-.3-17.23-9.26-29.74-31.32-29.74-52.44S62.86,9.65,80.09.39c.74-.4,1.64-.4,2.38,0,17.23,9.27,29.74,31.32,29.74,52.44s-12.51,43.17-29.74,52.44c-.37.2-.78.3-1.19.3ZM81.28,5.49c-15.08,8.8-25.9,28.45-25.9,47.34s10.82,38.54,25.9,47.33c15.08-8.8,25.9-28.45,25.9-47.33s-10.82-38.54-25.9-47.34Z"/>
        <path class="cls-1" d="M131.43,55.35H31.13c-1.39,0-2.52-1.13-2.52-2.52s1.13-2.52,2.52-2.52h100.3c1.39,0,2.52,1.13,2.52,2.52s-1.13,2.52-2.52,2.52Z"/>
        <path class="cls-1" d="M81.28,105.57c-1.39,0-2.52-1.13-2.52-2.52V2.52c0-1.39,1.13-2.52,2.52-2.52s2.52,1.13,2.52,2.52v100.53c0,1.39-1.13,2.52-2.52,2.52Z"/>
      </g>
    </g>
  </g>
</svg>