<?xml version="1.0" encoding="UTF-8"?>
<svg id="Capa_2" xmlns="http://www.w3.org/2000/svg" version="1.1" viewBox="0 0 162.6 178.3">
  <!-- Generator: Adobe Illustrator 29.4.0, SVG Export Plug-In . SVG Version: 2.1.0 Build 152)  -->
  <defs>
    <style>
      .st0 {
        fill: #95c11f;
      }

      .st1 {
        fill: #fff;
      }
    </style>
  </defs>
  <polyline class="st0" points="6.2 128 45.7 115.5 109.8 123.1 134 113.7 140.8 115.5 142.5 119.7 152.8 115.6 156.7 115.8 159.7 120.8 159.7 125.5 134 145.4 96.4 174.7 85.6 174.7 25 155.9 6.2 163.9"/>
  <circle class="st0" cx="81.3" cy="52.8" r="52.2"/>
  <g id="Capa_1-2">
    <g>
      <g>
        <path class="st1" d="M88.8,178.3c-1.3,0-2.6-.2-3.8-.6l-57.2-19c-2-.6-4.1-.5-6,.4l-18.2,8.9c-1.2.6-2.8,0-3.4-1.1-.6-1.2,0-2.8,1.1-3.4l18.2-8.9c3-1.5,6.6-1.8,9.8-.7l57.2,19c1.3.4,2.8.5,4.1.1l2.7-.8c1.6-.4,3.2-1.2,4.5-2.2l57.7-42.8c1.6-1.2,2.2-3.1,1.8-5l-.6-2.2c-.4-1.5-1.7-2.5-3.2-2.5s-.5,0-.8.2l-54.6,33.8c-.8.5-1.7.5-2.5,0l-19.7-10.8c-1.2-.7-1.7-2.2-1-3.4.7-1.2,2.2-1.7,3.4-1l18.4,10.1,53.3-33c1-.6,2.2-1,3.4-1,3.8,0,7.1,2.6,8.1,6.3l.6,2.2c1,3.9-.5,7.9-3.7,10.2l-57.7,42.8c-1.9,1.4-3.9,2.4-6.2,3l-2.7.8c-1.1.3-2.2.4-3.3.4h0Z"/>
        <path class="st1" d="M77.4,141.1l-13.4-.5c-1.4,0-2.5-1.2-2.4-2.6s1.2-2.5,2.6-2.4l13.2.5,32.7-.6c1.8,0,3.3-1.4,3.4-3.2l.3-3.4c.1-1.5-.9-2.8-2.4-3l-63-8c-1.2-.2-2.5,0-3.7.4l-36.7,12.5c-1.3.4-2.8-.2-3.2-1.6-.4-1.3.3-2.8,1.6-3.2l36.7-12.5c1.9-.6,3.9-.8,5.9-.6l63,8c4.2.5,7.2,4.2,6.8,8.5l-.3,3.4c-.4,4.4-4,7.7-8.3,7.8,0,0-32.8.6-32.8.6Z"/>
        <path class="st1" d="M109.1,125.5c-1,0-1.9-.6-2.3-1.6-.5-1.3.1-2.8,1.4-3.3l24.5-9.7c1.9-.7,4-.7,5.8,0,4,1.4,6.7,5.2,6.7,9.4v.8c0,1.4-1.1,2.5-2.5,2.5s-2.5-1.1-2.5-2.5v-.8c0-2.1-1.3-4-3.3-4.7-.8-.3-1.6-.3-2.4,0l-24.4,9.7c-.3.1-.6.2-.9.2h0Z"/>
      </g>
      <g>
        <path class="st1" d="M81.3,105.7h0c-29,0-52.7-23.8-52.7-52.8S52.2,0,81.3,0c29.1,0,52.7,23.8,52.7,52.8s-23.6,52.7-52.7,52.8h0ZM81.3,5c-26.2,0-47.6,21.5-47.6,47.8s21.4,47.7,47.6,47.8c26.3,0,47.6-21.5,47.6-47.8S107.5,5.1,81.3,5Z"/>
        <path class="st1" d="M81.3,105.6c-.4,0-.8,0-1.2-.3-17.2-9.3-29.7-31.3-29.7-52.4S62.9,9.6,80.1.4c.7-.4,1.6-.4,2.4,0,17.2,9.3,29.7,31.3,29.7,52.4s-12.5,43.2-29.7,52.4c-.4.2-.8.3-1.2.3ZM81.3,5.5c-15.1,8.8-25.9,28.5-25.9,47.3s10.8,38.5,25.9,47.3c15.1-8.8,25.9-28.4,25.9-47.3s-10.8-38.5-25.9-47.3Z"/>
        <path class="st1" d="M131.4,55.3H31.1c-1.4,0-2.5-1.1-2.5-2.5s1.1-2.5,2.5-2.5h100.3c1.4,0,2.5,1.1,2.5,2.5s-1.1,2.5-2.5,2.5h0Z"/>
        <path class="st1" d="M81.3,105.6c-1.4,0-2.5-1.1-2.5-2.5V2.5c0-1.4,1.1-2.5,2.5-2.5s2.5,1.1,2.5,2.5v100.5c0,1.4-1.1,2.5-2.5,2.5Z"/>
      </g>
    </g>
  </g>
</svg>