<?xml version="1.0" encoding="UTF-8" standalone="no"?>
<svg
   id="Capa_2"
   data-name="Capa 2"
   viewBox="0 0 158.86 151.93"
   version="1.1"
   sodipodi:docname="c_d13a4420.svg"
   inkscape:version="1.4 (86a8ad7, 2024-10-11)"
   xmlns:inkscape="http://www.inkscape.org/namespaces/inkscape"
   xmlns:sodipodi="http://sodipodi.sourceforge.net/DTD/sodipodi-0.dtd"
   xmlns="http://www.w3.org/2000/svg"
   xmlns:svg="http://www.w3.org/2000/svg">
  <sodipodi:namedview
     id="namedview13"
     pagecolor="#ffffff"
     bordercolor="#000000"
     borderopacity="0.25"
     inkscape:showpageshadow="2"
     inkscape:pageopacity="0.0"
     inkscape:pagecheckerboard="0"
     inkscape:deskcolor="#d1d1d1"
     inkscape:zoom="2.6821564"
     inkscape:cx="133.10186"
     inkscape:cy="57.602905"
     inkscape:window-width="1920"
     inkscape:window-height="1017"
     inkscape:window-x="1912"
     inkscape:window-y="-8"
     inkscape:window-maximized="1"
     inkscape:current-layer="Capa_1-2" />
  <defs
     id="defs1">
    <style
       id="style1">
      .cls-1 {
        fill: #36a9e1;
      }
    </style>
  </defs>
  <g
     id="Capa_1-2"
     data-name="Capa 1">
    <g
       id="g13">
      <g
         id="g7">
        <path
           class="cls-1"
           d="M75.97,0C34.08,0,0,34.08,0,75.96c0,25.97,13.1,48.92,33.03,62.63,1.37.94,2.77,1.84,4.21,2.69,5.56,3.31,11.58,5.92,17.93,7.73,1.59.46,3.21.87,4.84,1.22,5.15,1.11,10.48,1.7,15.96,1.7,1.43,0,2.84-.05,4.25-.13l-.37-4.98c-1.29.07-2.58.11-3.88.11-5.04,0-9.95-.54-14.7-1.54-1.64-.35-3.25-.76-4.84-1.22-5.83-1.67-11.36-4.07-16.48-7.1-1.44-.85-2.84-1.74-4.21-2.69-18.56-12.82-30.75-34.22-30.75-58.43C4.99,36.83,36.83,4.99,75.97,4.99c18.69,0,35.69,7.27,48.38,19.12l3.53-3.53C114.28,7.83,96.03,0,75.97,0Z"
           id="path1" />
        <path
           class="cls-1"
           d="M131.51,24.22s-.07-.07-.1-.11l-3.53,3.53s.07.07.1.11c5.58,6.01,10.12,13,13.36,20.66,1.44-.82,3.06-1.34,4.79-1.48-3.51-8.44-8.49-16.12-14.63-22.71Z"
           id="path2" />
        <path
           class="cls-1"
           d="M146.7,70.34c.15,1.86.24,3.73.24,5.63,0,6.89-.99,13.56-2.84,19.86-.47,1.6-1,3.18-1.58,4.74-2.64,7.11-6.39,13.68-11.03,19.51,1.42.91,2.64,2.12,3.55,3.54,5.19-6.42,9.37-13.7,12.26-21.6.57-1.56,1.1-3.14,1.57-4.74,1.98-6.76,3.05-13.92,3.05-21.31,0-2.19-.11-4.36-.29-6.51-1.39.58-2.92.91-4.52.91-.14,0-.28-.02-.42-.02Z"
           id="path3" />
        <path
           class="cls-1"
           d="M19.69,75.96c0,19.03,9.51,35.88,24.01,46.07,1.36.96,2.76,1.85,4.21,2.69,3.81,2.2,7.91,3.97,12.22,5.24l1.26-4.83c-3.79-1.13-7.4-2.68-10.77-4.61-1.45-.83-2.85-1.72-4.21-2.68-13.13-9.3-21.73-24.59-21.73-41.87,0-7.16,1.48-13.97,4.14-20.17-1.63-.53-3.1-1.41-4.33-2.54-3.08,6.95-4.8,14.63-4.8,22.71Z"
           id="path4" />
        <path
           class="cls-1"
           d="M114.06,41.67c8.2,9.09,13.2,21.12,13.2,34.3,0,2.66-.21,5.27-.6,7.82,1.74.09,3.38.55,4.84,1.31.49-2.97.75-6.02.75-9.13,0-14.55-5.55-27.83-14.65-37.83-.03-.04-.07-.07-.1-.11l-3.53,3.53s.07.07.1.11Z"
           id="path5" />
        <path
           class="cls-1"
           d="M75.97,19.69c-14.56,0-27.85,5.56-37.85,14.67,1.49.83,2.77,1.97,3.77,3.33,9.07-8.08,21.01-13.01,34.08-13.01s25.35,5.06,34.46,13.35l3.53-3.53c-10.02-9.19-23.36-14.81-37.99-14.81Z"
           id="path6" />
        <path
           class="cls-1"
           d="M75.97,39.38c-20.17,0-36.59,16.41-36.59,36.59,0,12.1,5.91,22.85,14.99,29.51l2.7-4.2c-7.71-5.77-12.7-14.97-12.7-25.31,0-17.42,14.17-31.6,31.6-31.6,7.83,0,14.99,2.87,20.52,7.6l3.54-3.54c-6.44-5.63-14.85-9.06-24.06-9.06Z"
           id="path7" />
      </g>
      <path
         class="cls-1"
         d="m 79.81,68.65 3.63,-3.63 c -2.13,-1.46 -4.71,-2.32 -7.48,-2.32 -7.32,0 -13.27,5.96 -13.27,13.27 0,7.31 5.96,13.28 13.27,13.28 7.31,0 13.28,-5.96 13.28,-13.28 0,-2.75 -0.84,-5.3 -2.27,-7.42 l -3.64,3.64"
         id="path8"
         sodipodi:nodetypes="ccsssscc" />
      <path
         class="cls-1"
         d="M140.02,11.96c-.98-.98-2.56-.98-3.53,0l-8.62,8.62-3.53,3.53-10.39,10.39-3.53,3.53-10.41,10.41-3.54,3.54-13.04,13.04-3.63,3.63-5.13,5.13c-.98.98-.98,2.56,0,3.53.49.49,1.13.73,1.77.73s1.28-.24,1.77-.73l5.11-5.11,3.64-3.64,13.04-13.04,3.53-3.53,10.41-10.41,3.53-3.53,10.39-10.39,3.53-3.53,8.62-8.62c.98-.97.98-2.55,0-3.53Z"
         id="path9" />
      <path
         class="cls-1"
         d="m 147.12,46.88 c -0.33,0 -0.66,0.02 -0.98,0.05 -1.73,0.14 -3.36,0.66 -4.79,1.48 -3.56,2.02 -5.97,5.84 -5.97,10.21 0,6.33 5.04,11.5 11.32,11.72 0.14,0 0.28,0.02 0.42,0.02 1.6,0 3.13,-0.32 4.52,-0.91 4.24,-1.77 7.22,-5.96 7.22,-10.84 0,-6.48 -5.27,-11.74 -11.74,-11.74 z"
         id="path10"
         sodipodi:nodetypes="cccscscscc" />
      <path
         class="cls-1"
         d="m 135.04,123.61 c -0.92,-1.42 -2.13,-2.63 -3.55,-3.54 -1.83,-1.17 -3.99,-1.86 -6.31,-1.86 -6.48,0 -11.74,5.27 -11.74,11.74 0,6.47 5.27,11.74 11.74,11.74 6.47,0 11.74,-5.27 11.74,-11.74 0,-2.34 -0.69,-4.51 -1.88,-6.34 z"
         id="path11"
         sodipodi:nodetypes="ccssssc" />
      <path
         class="cls-1"
         d="m 131.49,85.09 c -1.46,-0.77 -3.1,-1.22 -4.84,-1.31 -0.2,0 -0.39,-0.03 -0.59,-0.03 -6.48,0 -11.74,5.27 -11.74,11.74 0,6.47 5.27,11.74 11.74,11.74 6.47,0 11.74,-5.27 11.74,-11.74 0,-4.52 -2.56,-8.44 -6.31,-10.4 z"
         id="path12"
         sodipodi:nodetypes="ccssssc" />
      <path
         class="cls-1"
         d="m 41.88,37.69 c -1,-1.36 -2.28,-2.5 -3.77,-3.33 -1.68,-0.94 -3.62,-1.47 -5.68,-1.47 -6.48,0 -11.74,5.27 -11.74,11.74 0,3.41 1.47,6.48 3.8,8.63 1.23,1.13 2.7,2.01 4.33,2.54 1.14,0.37 2.35,0.57 3.61,0.57 6.48,0 11.74,-5.27 11.74,-11.74 0,-2.6 -0.86,-4.99 -2.29,-6.94 z"
         id="path13"
         sodipodi:nodetypes="ccssccssc" />
    </g>
  </g>
</svg>
