<?xml version="1.0" encoding="UTF-8"?>
<svg id="Capa_2" data-name="Capa 2" xmlns="http://www.w3.org/2000/svg" viewBox="0 0 158.86 151.93">
  <defs>
    <style>
      .cls-1 {
        fill: #36a9e1;
      }
    </style>
  </defs>
  <g id="Capa_1-2" data-name="Capa 1">
    <g>
      <g>
        <path class="cls-1" d="M75.97,0C34.08,0,0,34.08,0,75.96c0,25.97,13.1,48.92,33.03,62.63,1.37.94,2.77,1.84,4.21,2.69,5.56,3.31,11.58,5.92,17.93,7.73,1.59.46,3.21.87,4.84,1.22,5.15,1.11,10.48,1.7,15.96,1.7,1.43,0,2.84-.05,4.25-.13l-.37-4.98c-1.29.07-2.58.11-3.88.11-5.04,0-9.95-.54-14.7-1.54-1.64-.35-3.25-.76-4.84-1.22-5.83-1.67-11.36-4.07-16.48-7.1-1.44-.85-2.84-1.74-4.21-2.69-18.56-12.82-30.75-34.22-30.75-58.43C4.99,36.83,36.83,4.99,75.97,4.99c18.69,0,35.69,7.27,48.38,19.12l3.53-3.53C114.28,7.83,96.03,0,75.97,0Z"/>
        <path class="cls-1" d="M131.51,24.22s-.07-.07-.1-.11l-3.53,3.53s.07.07.1.11c5.58,6.01,10.12,13,13.36,20.66,1.44-.82,3.06-1.34,4.79-1.48-3.51-8.44-8.49-16.12-14.63-22.71Z"/>
        <path class="cls-1" d="M146.7,70.34c.15,1.86.24,3.73.24,5.63,0,6.89-.99,13.56-2.84,19.86-.47,1.6-1,3.18-1.58,4.74-2.64,7.11-6.39,13.68-11.03,19.51,1.42.91,2.64,2.12,3.55,3.54,5.19-6.42,9.37-13.7,12.26-21.6.57-1.56,1.1-3.14,1.57-4.74,1.98-6.76,3.05-13.92,3.05-21.31,0-2.19-.11-4.36-.29-6.51-1.39.58-2.92.91-4.52.91-.14,0-.28-.02-.42-.02Z"/>
        <path class="cls-1" d="M19.69,75.96c0,19.03,9.51,35.88,24.01,46.07,1.36.96,2.76,1.85,4.21,2.69,3.81,2.2,7.91,3.97,12.22,5.24l1.26-4.83c-3.79-1.13-7.4-2.68-10.77-4.61-1.45-.83-2.85-1.72-4.21-2.68-13.13-9.3-21.73-24.59-21.73-41.87,0-7.16,1.48-13.97,4.14-20.17-1.63-.53-3.1-1.41-4.33-2.54-3.08,6.95-4.8,14.63-4.8,22.71Z"/>
        <path class="cls-1" d="M114.06,41.67c8.2,9.09,13.2,21.12,13.2,34.3,0,2.66-.21,5.27-.6,7.82,1.74.09,3.38.55,4.84,1.31.49-2.97.75-6.02.75-9.13,0-14.55-5.55-27.83-14.65-37.83-.03-.04-.07-.07-.1-.11l-3.53,3.53s.07.07.1.11Z"/>
        <path class="cls-1" d="M75.97,19.69c-14.56,0-27.85,5.56-37.85,14.67,1.49.83,2.77,1.97,3.77,3.33,9.07-8.08,21.01-13.01,34.08-13.01s25.35,5.06,34.46,13.35l3.53-3.53c-10.02-9.19-23.36-14.81-37.99-14.81Z"/>
        <path class="cls-1" d="M75.97,39.38c-20.17,0-36.59,16.41-36.59,36.59,0,12.1,5.91,22.85,14.99,29.51l2.7-4.2c-7.71-5.77-12.7-14.97-12.7-25.31,0-17.42,14.17-31.6,31.6-31.6,7.83,0,14.99,2.87,20.52,7.6l3.54-3.54c-6.44-5.63-14.85-9.06-24.06-9.06Z"/>
      </g>
      <path class="cls-1" d="M84.25,75.97c0,4.57-3.72,8.29-8.29,8.29s-8.29-3.72-8.29-8.29,3.72-8.28,8.29-8.28c1.39,0,2.7.35,3.85.96l3.63-3.63c-2.13-1.46-4.71-2.32-7.48-2.32-7.32,0-13.27,5.96-13.27,13.27s5.96,13.28,13.27,13.28,13.28-5.96,13.28-13.28c0-2.75-.84-5.3-2.27-7.42l-3.64,3.64c.58,1.13.92,2.42.92,3.78Z"/>
      <path class="cls-1" d="M140.02,11.96c-.98-.98-2.56-.98-3.53,0l-8.62,8.62-3.53,3.53-10.39,10.39-3.53,3.53-10.41,10.41-3.54,3.54-13.04,13.04-3.63,3.63-5.13,5.13c-.98.98-.98,2.56,0,3.53.49.49,1.13.73,1.77.73s1.28-.24,1.77-.73l5.11-5.11,3.64-3.64,13.04-13.04,3.53-3.53,10.41-10.41,3.53-3.53,10.39-10.39,3.53-3.53,8.62-8.62c.98-.97.98-2.55,0-3.53Z"/>
      <path class="cls-1" d="M147.12,46.88c-.33,0-.66.02-.98.05-1.73.14-3.36.66-4.79,1.48-3.56,2.02-5.97,5.84-5.97,10.21,0,6.33,5.04,11.5,11.32,11.72.14,0,.28.02.42.02,1.6,0,3.13-.32,4.52-.91,4.24-1.77,7.22-5.96,7.22-10.84,0-6.48-5.27-11.74-11.74-11.74ZM150.99,64.13c-1.1.77-2.43,1.23-3.88,1.23-.34,0-.67-.03-.99-.08-3.25-.48-5.76-3.28-5.76-6.67,0-2.24,1.11-4.23,2.8-5.46,1.11-.81,2.48-1.29,3.95-1.29.3,0,.6.03.89.07,3.3.44,5.86,3.27,5.86,6.68,0,2.28-1.14,4.29-2.87,5.52Z"/>
      <path class="cls-1" d="M135.04,123.61c-.92-1.42-2.13-2.63-3.55-3.54-1.83-1.17-3.99-1.86-6.31-1.86-6.48,0-11.74,5.27-11.74,11.74s5.27,11.74,11.74,11.74,11.74-5.27,11.74-11.74c0-2.34-.69-4.51-1.88-6.34ZM125.18,136.71c-3.72,0-6.75-3.03-6.75-6.75s3.03-6.75,6.75-6.75c1.08,0,2.11.26,3.02.72,1.54.77,2.74,2.12,3.33,3.75.26.71.4,1.48.4,2.28,0,3.72-3.03,6.75-6.75,6.75Z"/>
      <path class="cls-1" d="M131.49,85.09c-1.46-.77-3.1-1.22-4.84-1.31-.2,0-.39-.03-.59-.03-6.48,0-11.74,5.27-11.74,11.74s5.27,11.74,11.74,11.74,11.74-5.27,11.74-11.74c0-4.52-2.56-8.44-6.31-10.4ZM126.06,102.24c-3.72,0-6.75-3.03-6.75-6.75s2.8-6.5,6.31-6.73c.14,0,.29-.02.43-.02,1.64,0,3.15.59,4.32,1.57,1.49,1.24,2.43,3.1,2.43,5.18,0,3.72-3.03,6.75-6.75,6.75Z"/>
      <path class="cls-1" d="M41.88,37.69c-1-1.36-2.28-2.5-3.77-3.33-1.68-.94-3.62-1.47-5.68-1.47-6.48,0-11.74,5.27-11.74,11.74,0,3.41,1.47,6.48,3.8,8.63,1.23,1.13,2.7,2.01,4.33,2.54,1.14.37,2.35.57,3.61.57,6.48,0,11.74-5.27,11.74-11.74,0-2.6-.86-4.99-2.29-6.94ZM32.43,51.38c-.47,0-.93-.05-1.38-.14-1.72-.36-3.19-1.37-4.16-2.77-.76-1.09-1.21-2.41-1.21-3.84,0-3.72,3.03-6.75,6.75-6.75.66,0,1.29.1,1.89.27,1.68.49,3.08,1.61,3.94,3.09.58,1,.92,2.15.92,3.38,0,3.72-3.03,6.75-6.75,6.75Z"/>
    </g>
  </g>
</svg>