<?xml version="1.0" encoding="UTF-8"?>
<svg id="Capa_2" data-name="Capa 2" xmlns="http://www.w3.org/2000/svg" viewBox="0 0 166.17 172.78">
  <defs>
    <style>
      .cls-1 {
        fill: #95c11f;
      }
    </style>
  </defs>
  <g id="Capa_1-2" data-name="Capa 1">
    <g>
      <path class="cls-1" d="M83.15,84.42c-11.37-.26-32.65-6.01-32.65-25.96,0-23.35,29.34-56.22,30.59-57.61,1.02-1.13,2.98-1.13,3.99,0,1.25,1.39,30.59,34.26,30.59,57.61,0,19.95-21.28,25.7-32.53,25.96ZM83.09,6.76c-6.59,7.81-27.22,33.72-27.22,51.7,0,19.74,26.16,20.56,27.28,20.59.99-.03,27.15-.91,27.15-20.59,0-18-20.62-43.89-27.22-51.7Z"/>
      <path class="cls-1" d="M83.09,140.88c-.51,0-1.03-.15-1.47-.44l-42.53-27.91c-1.24-.81-1.59-2.48-.77-3.72.82-1.24,2.48-1.58,3.72-.77l41.05,26.94,41.05-26.94c1.24-.81,2.9-.47,3.72.77.81,1.24.47,2.9-.77,3.72l-42.53,27.91c-.45.29-.96.44-1.47.44Z"/>
      <path class="cls-1" d="M38.21,138.61c-3.31,0-6.92-.78-10.77-2.64C7.16,126.18.32,89.08.04,87.51c-.19-1.04.26-2.1,1.13-2.69.73-.5,18.14-11.98,45.75-.25,8.81,3.74,14.43,9.2,16.7,16.21,3.5,10.77-2.29,21.23-2.99,22.43-3.14,6.24-11.09,15.41-22.43,15.41ZM5.7,88.4c1.62,7.44,8.61,35.27,24.06,42.73,16.68,8.05,25.73-9.65,26.11-10.41.03-.06.06-.12.1-.18h0c.05-.09,5.43-9.29,2.53-18.15-1.78-5.45-6.39-9.79-13.68-12.89-20.63-8.77-34.65-3.4-39.12-1.11Z"/>
      <path class="cls-1" d="M127.97,138.61c-11.35,0-19.3-9.16-22.44-15.41-.7-1.2-6.49-11.66-2.99-22.43,2.28-7.01,7.9-12.47,16.7-16.21,27.61-11.73,45.02-.25,45.75.25.88.6,1.32,1.65,1.13,2.69-.28,1.57-7.12,38.67-27.39,48.46-3.86,1.86-7.46,2.64-10.77,2.64ZM110.29,120.72c.39.78,9.53,18.41,26.11,10.41,15.48-7.47,22.45-35.3,24.07-42.73-4.47-2.28-18.49-7.66-39.12,1.11-7.3,3.1-11.9,7.44-13.68,12.89-2.9,8.85,2.48,18.06,2.53,18.15.03.06.07.12.1.18Z"/>
      <path class="cls-1" d="M83.09,172.78c-1.48,0-2.69-1.2-2.69-2.69V50.49c0-1.48,1.2-2.69,2.69-2.69s2.69,1.2,2.69,2.69v119.61c0,1.48-1.2,2.69-2.69,2.69Z"/>
    </g>
  </g>
</svg>