<?xml version="1.0" encoding="UTF-8"?>
<svg id="Capa_2" xmlns="http://www.w3.org/2000/svg" version="1.1" viewBox="0 0 166.2 172.8">
  <!-- Generator: Adobe Illustrator 29.4.0, SVG Export Plug-In . SVG Version: 2.1.0 Build 152)  -->
  <defs>
    <style>
      .st0 {
        fill: #95c11f;
      }

      .st1 {
        fill: #fff;
      }
    </style>
  </defs>
  <path class="st0" d="M83.2,84.4c-11.4-.3-32.7-6-32.7-26S79.8,2.2,81.1.8c1-1.1,3-1.1,4,0,1.2,1.4,30.6,34.3,30.6,57.6s-21.3,25.7-32.5,26h0Z"/>
  <path class="st0" d="M83.1,140.9c-.5,0-1-.1-1.5-.4l-42.5-27.9c-1.2-.8-1.6-2.5-.8-3.7s2.5-1.6,3.7-.8l41,26.9,41.1-26.9c1.2-.8,2.9-.5,3.7.8.8,1.2.5,2.9-.8,3.7l-42.5,27.9c-.4.3-1,.4-1.5.4h0Z"/>
  <path class="st0" d="M38.2,138.6c-3.3,0-6.9-.8-10.8-2.6C7.2,126.2.3,89.1,0,87.5c-.2-1,.3-2.1,1.1-2.7.7-.5,18.1-12,45.7-.2,8.8,3.7,14.4,9.2,16.7,16.2,3.5,10.8-2.3,21.2-3,22.4-3.1,6.2-11.1,15.4-22.4,15.4h0Z"/>
  <path class="st0" d="M128,138.6c-11.3,0-19.3-9.2-22.4-15.4-.7-1.2-6.5-11.7-3-22.4,2.3-7,7.9-12.5,16.7-16.2,27.6-11.7,45-.2,45.8.2.9.6,1.3,1.7,1.1,2.7-.3,1.6-7.1,38.7-27.4,48.5-3.9,1.9-7.5,2.6-10.8,2.6h0Z"/>
  <path class="st0" d="M83.1,172.8c-1.5,0-2.7-1.2-2.7-2.7V50.5c0-1.5,1.2-2.7,2.7-2.7s2.7,1.2,2.7,2.7v119.6c0,1.5-1.2,2.7-2.7,2.7h0Z"/>
  <path class="st1" d="M104.4,121l19.7-13c1.2-.8,2.9-.5,3.7.8.8,1.2.5,2.9-.8,3.7l-20.1,13.2"/>
  <path class="st1" d="M59,125.6l-19.9-13c-1.2-.8-1.6-2.5-.8-3.7s2.5-1.6,3.7-.8l19.5,12.8"/>
  <path class="st1" d="M80.4,83.5v-33c0-1.5,1.2-2.7,2.7-2.7s2.7,1.2,2.7,2.7v32.8l-5.4.2Z"/>
  <path class="st1" d="M58.6,125.3"/>
</svg>