<?xml version="1.0" encoding="UTF-8"?>
<svg id="Capa_2" data-name="Capa 2" xmlns="http://www.w3.org/2000/svg" viewBox="0 0 167.64 167.5">
  <defs>
    <style>
      .cls-1 {
        fill: #95c11f;
      }
    </style>
  </defs>
  <g id="Capa_1-2" data-name="Capa 1">
    <g>
      <g>
        <path class="cls-1" d="M98.83,83.75c0-7.32-5.96-13.27-13.28-13.27v4.99c4.57,0,8.29,3.72,8.29,8.28s-3.72,8.29-8.29,8.29v4.99c7.32,0,13.28-5.96,13.28-13.28Z"/>
        <path class="cls-1" d="M119.27,83.75c0-18.59-15.13-33.71-33.72-33.71v4.99c15.84,0,28.73,12.89,28.73,28.73s-12.88,28.73-28.73,28.73v4.99c18.59,0,33.72-15.13,33.72-33.71Z"/>
        <path class="cls-1" d="M140.98,83.75c0-30.56-24.86-55.42-55.42-55.42v4.99c27.81,0,50.43,22.62,50.43,50.43s-22.62,50.43-50.43,50.43v4.99c30.56,0,55.42-24.86,55.42-55.42Z"/>
      </g>
      <path class="cls-1" d="M83.9,0c-.06,0-.12,0-.19,0v5.04c.06,0,.12,0,.19,0,43.4,0,78.71,35.31,78.71,78.71s-35.31,78.71-78.71,78.71c-.06,0-.12,0-.19,0v5.04c.06,0,.12,0,.19,0,46.18,0,83.75-37.57,83.75-83.74S130.08,0,83.9,0Z"/>
      <path class="cls-1" d="M83.71,162.45c-.79,0-1.55-.1-2.33-.12v.78c0,1.39-1.13,2.52-2.52,2.52s-2.52-1.13-2.52-2.52v-1.04c-10.77-1.01-20.91-4.17-29.99-9.09-.23,1.04-.39,1.81-.4,1.84-.29,1.36-1.63,2.23-2.99,1.94-1.36-.29-2.23-1.63-1.94-2.99.04-.19.34-1.57.78-3.54-8.68-5.49-16.2-12.61-22.15-20.96-.38.71-.67,1.24-.81,1.49-.46.83-1.32,1.29-2.2,1.29-.41,0-.83-.1-1.22-.32-1.21-.68-1.65-2.21-.97-3.43.54-.96,1.27-2.34,2.05-3.87-7.23-11.9-11.48-25.82-11.47-40.73,0-17.67,5.94-33.95,15.82-47.1-.89-.07-1.43-.11-1.46-.11-1.39-.09-2.44-1.29-2.35-2.68.04-.58.35-1.05.71-1.46C6.68,46.57,0,64.36,0,83.71c-.02,46.18,37.53,83.76,83.71,83.78h0v-5.04h0Z"/>
      <path class="cls-1" d="M24.68,31.9c4.35-4.95,9.27-9.39,14.72-13.12l-.82.03c-1.4.03-2.56-1.03-2.62-2.41-.06-1.39,1.02-2.56,2.41-2.62l10.37-.42c10.57-5.28,22.44-8.32,35.03-8.31h0V0h0C57.1-.01,33.34,12.57,17.98,32.06c.47-.38,1.07-.63,1.74-.59.28.02,2.12.14,4.96.42Z"/>
      <path class="cls-1" d="M36,89.16c1.05-1.63,1.95-3.04,2.6-4.25.91-1.72,7.44-3.41,10.95-4.32,4.5-1.17,7.11-1.89,8.48-3.24,1.7-1.33,13.27-2.49,18.21-2.49,1.08,0,4.02-.13,7.52-9.98v-10.69c-2.95-3.07-10.03-9.49-21.53-14.39-11.37-4.85-28.99-7.06-37.54-7.89-1.34,1.52-2.6,3.1-3.82,4.72,5.69.46,26.97,2.5,39.39,7.8,11.43,4.88,18.14,11.37,20.35,13.75-1.52,5.4-3.61,10.52-4.79,11.66-2.75.06-17.92.6-21.31,3.93-.66.51-3.87,1.35-6.22,1.96-5.99,1.55-12.18,3.16-14.13,6.84-.55,1.03-1.4,2.36-2.39,3.89-3.15,4.89-7.46,11.59-7.46,17.7,0,4.29-4.57,14.07-7.8,20.32,1,1.65,2.04,3.26,3.16,4.83,2.56-4.75,9.68-18.54,9.68-25.14,0-4.63,3.85-10.61,6.66-14.97ZM76.24,69.82h-.04s.03,0,.04,0Z"/>
      <path class="cls-1" d="M17.75,32.37c.08-.1.15-.21.23-.31-.11.09-.14.21-.23.31Z"/>
      <path class="cls-1" d="M14.45,128.31c-.68,1.21-.24,2.75.97,3.43.39.22.81.32,1.22.32.88,0,1.74-.46,2.2-1.29.14-.25.43-.78.81-1.49-1.12-1.57-2.15-3.18-3.16-4.83-.79,1.53-1.52,2.9-2.05,3.87Z"/>
      <path class="cls-1" d="M19.39,36.51s.57.04,1.46.11c1.22-1.62,2.49-3.2,3.82-4.72-2.84-.27-4.68-.4-4.96-.42-.67-.05-1.27.2-1.74.59-.08.1-.15.21-.23.31-.36.41-.67.87-.71,1.46-.09,1.39.96,2.59,2.35,2.68Z"/>
      <path class="cls-1" d="M48.79,120.43c.19-1.17.66-3.23,1.08-5.1,1.23-5.46,2.91-12.93,2.91-18.34,0-2.1.84-2.76,1.11-2.98,1.77-1.38,5.48-.88,6.65-.6.2.05.4.07.6.07h16.83s5.77,4.88,5.77,4.88v-6.59s-3.22-2.72-3.22-2.72c-.46-.38-1.03-.59-1.63-.6h-17.46c-1.5-.34-6.99-1.27-10.63,1.58-1.39,1.09-3.06,3.18-3.06,6.95,0,4.85-1.61,12.01-2.79,17.24-1.47,6.53-1.77,7.89-.46,9.2.16.16.42.37.75.63,1.72,1.31,3.16,2.77,1.85,6.25-1.77,4.71-4.09,14.62-5.28,19.94,1.5.95,2.99,1.91,4.55,2.75.97-4.4,3.59-15.98,5.45-20.92,2.48-6.61-1.17-10.17-3.01-11.64Z"/>
      <path class="cls-1" d="M83.72,149.5v-12.28c-2.3,4.11-5.04,11.07-7.22,17.09-.1.27-.15.56-.15.85v6.91c1.66.16,3.34.21,5.03.26v-6.73c.73-2.01,1.53-4.1,2.33-6.11Z"/>
      <path class="cls-1" d="M76.35,163.12c0,1.39,1.12,2.52,2.52,2.52s2.52-1.13,2.52-2.52v-.78c-1.69-.05-3.38-.1-5.04-.26v1.04Z"/>
      <path class="cls-1" d="M41.03,153.78c-.29,1.36.58,2.7,1.94,2.99,1.36.29,2.7-.58,2.99-1.94,0-.03.17-.79.4-1.84-1.56-.85-3.05-1.81-4.55-2.75-.44,1.97-.74,3.36-.78,3.54Z"/>
      <path class="cls-1" d="M70.03,27.28c.67,0,1.3-.08,1.89-.25,2.28-.67,7.2-.68,11.85-.49v-5.05c-4.86-.19-10.34-.16-13.28.71-2.46.74-10.28-3.78-16.05-8.45-.48-.39-1.06-.59-1.69-.56l-4.01.16c-3.24,1.62-6.38,3.39-9.35,5.42l12.62-.52c3.58,2.82,12.13,9.02,18.01,9.02Z"/>
      <path class="cls-1" d="M38.38,13.78c-1.39.06-2.47,1.23-2.41,2.62.06,1.39,1.22,2.44,2.62,2.41l.82-.03c2.97-2.03,6.11-3.81,9.35-5.42l-10.37.42Z"/>
      <path class="cls-1" d="M85.81,58.16c.2-.77.03-1.59-.47-2.21-.08-.1-.61-.75-1.59-1.77v10.69c.67-1.89,1.35-4.02,2.06-6.71Z"/>
      <path class="cls-1" d="M83.38,167.49c-1.39,0-2.52-1.13-2.52-2.52V2.52C80.86,1.13,81.99,0,83.38,0s2.52,1.13,2.52,2.52v162.45c0,1.39-1.13,2.52-2.52,2.52Z"/>
    </g>
  </g>
</svg>