<?xml version="1.0" encoding="UTF-8"?>
<svg id="Capa_2" xmlns="http://www.w3.org/2000/svg" version="1.1" viewBox="0 0 167.6 167.5">
  <!-- Generator: Adobe Illustrator 29.4.0, SVG Export Plug-In . SVG Version: 2.1.0 Build 152)  -->
  <defs>
    <style>
      .st0 {
        fill: #95c11f;
      }
    </style>
  </defs>
  <g id="Capa_1-2">
    <g>
      <g>
        <path class="st0" d="M98.8,83.8c0-7.3-6-13.3-13.3-13.3v5c4.6,0,8.3,3.7,8.3,8.3s-3.7,8.3-8.3,8.3v5c7.3,0,13.3-6,13.3-13.3Z"/>
        <path class="st0" d="M119.3,83.8c0-18.6-15.1-33.7-33.7-33.7v5c15.8,0,28.7,12.9,28.7,28.7s-12.9,28.7-28.7,28.7v5c18.6,0,33.7-15.1,33.7-33.7h0Z"/>
        <path class="st0" d="M141,83.8c0-30.6-24.9-55.4-55.4-55.4v5c27.8,0,50.4,22.6,50.4,50.4s-22.6,50.4-50.4,50.4v5c30.6,0,55.4-24.9,55.4-55.4h0Z"/>
      </g>
      <path class="st0" d="M83.9,0h-.2v5h.2c43.4,0,78.7,35.3,78.7,78.7s-35.3,78.7-78.7,78.7h-.2v5h.2c46.2,0,83.7-37.6,83.7-83.7S130.1,0,83.9,0Z"/>
      <path class="st0" d="M83.7,162.4c-.8,0-1.6-.1-2.3-.1v.8c0,1.4-1.1,2.5-2.5,2.5s-2.5-1.1-2.5-2.5v-1c-10.8-1-20.9-4.2-30-9.1-.2,1-.4,1.8-.4,1.8-.3,1.4-1.6,2.2-3,1.9s-2.2-1.6-1.9-3c0-.2.3-1.6.8-3.5-8.7-5.5-16.2-12.6-22.1-21-.4.7-.7,1.2-.8,1.5-.5.8-1.3,1.3-2.2,1.3s-.8-.1-1.2-.3c-1.2-.7-1.6-2.2-1-3.4.5-1,1.3-2.3,2-3.9-7.2-11.9-11.5-25.8-11.5-40.7,0-17.7,5.9-34,15.8-47.1-.9,0-1.4-.1-1.5-.1-1.4,0-2.4-1.3-2.4-2.7,0-.6.4-1,.7-1.5C6.7,46.6,0,64.4,0,83.7c0,46.2,37.5,83.8,83.7,83.8h0v-5h0Z"/>
      <path class="st0" d="M24.7,31.9c4.4-4.9,9.3-9.4,14.7-13.1h-.8c-1.4,0-2.6-1-2.6-2.4,0-1.4,1-2.6,2.4-2.6l10.4-.4c10.6-5.3,22.4-8.3,35-8.3h0V0h0C57.1,0,33.3,12.6,18,32.1c.5-.4,1.1-.6,1.7-.6.3,0,2.1.1,5,.4h0Z"/>
      <path class="st0" d="M11.8,44.6L2.5,77.7l1.7,24.9,12.2,22c1,1.7,2,3.3,3.2,4.8,2.6-4.8,9.7-18.5,9.7-25.1s3.8-10.6,6.7-15h0c1-1.7,2-3.1,2.6-4.3.9-1.7,7.4-3.4,11-4.3,4.5-1.2,7.1-1.9,8.5-3.2,1.7-1.3,13.3-2.5,18.2-2.5s4-.1,7.5-10v-10.7c-2.9-3.1-10-9.5-21.5-14.4-11.4-4.8-29-7.1-37.5-7.9-1.3,1.5-2.6,3.1-3.8,4.7l-9,8ZM76.2,69.8h0,0Z"/>
      <path class="st0" d="M17.8,32.4c0,0,.1-.2.2-.3-.1,0-.1.2-.2.3Z"/>
      <path class="st0" d="M14.4,128.3c-.7,1.2-.2,2.8,1,3.4.4.2.8.3,1.2.3.9,0,1.7-.5,2.2-1.3.1-.2.4-.8.8-1.5-1.1-1.6-2.1-3.2-3.2-4.8-.8,1.5-1.5,2.9-2.1,3.9h0Z"/>
      <path class="st0" d="M19.4,36.5s.6,0,1.5.1c1.2-1.6,2.5-3.2,3.8-4.7-2.8-.3-4.7-.4-5-.4-.7,0-1.3.2-1.7.6,0,0-.1.2-.2.3-.4.4-.7.9-.7,1.5,0,1.4,1,2.6,2.4,2.7h0Z"/>
      <path class="st0" d="M83.7,98.4v-6.6l-3.2-2.7c-.5-.4-1-.6-1.6-.6h-17.5c-1.5-.3-7-1.3-10.6,1.6-1.4,1.1-3.1,3.2-3.1,6.9s-1.6,12-2.8,17.2c-1.5,6.5-1.8,7.9-.5,9.2.2.2.4.4.8.6,1.7,1.3,3.2,2.8,1.8,6.2-1.8,4.7-4.1,14.6-5.3,19.9,1.5.9,3,1.9,4.5,2.8l7.6,6.4,16,2.7,10.9,2.9,2.5-17.1.4-49.5Z"/>
      <path class="st0" d="M83.7,149.5v-12.3c-2.3,4.1-5,11.1-7.2,17.1,0,.3-.2.6-.2.9v6.9c1.7.2,3.3.2,5,.3v-6.7c.7-2,1.5-4.1,2.3-6.1h0Z"/>
      <path class="st0" d="M76.3,163.1c0,1.4,1.1,2.5,2.5,2.5s2.5-1.1,2.5-2.5v-.8c-1.7,0-3.4-.1-5-.3,0,0,0,1,0,1Z"/>
      <path class="st0" d="M41,153.8c-.3,1.4.6,2.7,1.9,3,1.4.3,2.7-.6,3-1.9,0,0,.2-.8.4-1.8-1.6-.9-3-1.8-4.5-2.8-.4,2-.7,3.4-.8,3.5Z"/>
      <path class="st0" d="M48.7,13.4c-3.2,1.6-6.4,3.4-9.3,5.4l12.6-.5c3.6,2.8,12.1,9,18,9h0c.7,0,1.3,0,1.9-.2,2.3-.7,7.2-.7,11.8-.5v-5l-.4-19.1-27.7,5.4-7,5.5Z"/>
      <path class="st0" d="M38.4,13.8c-1.4,0-2.5,1.2-2.4,2.6s1.2,2.4,2.6,2.4h.8c3-2.1,6.1-3.8,9.4-5.5l-10.4.4h0Z"/>
      <path class="st0" d="M85.8,58.2c.2-.8,0-1.6-.5-2.2,0,0-.6-.8-1.6-1.8v10.7c.7-1.9,1.3-4,2.1-6.7Z"/>
      <path class="st0" d="M83.4,167.5c-1.4,0-2.5-1.1-2.5-2.5V2.5c0-1.4,1.1-2.5,2.5-2.5s2.5,1.1,2.5,2.5v162.5c0,1.4-1.1,2.5-2.5,2.5Z"/>
    </g>
  </g>
</svg>