<?xml version="1.0" encoding="UTF-8"?>
<svg id="Capa_2" xmlns="http://www.w3.org/2000/svg" version="1.1" viewBox="0 0 162.1 162.1">
  <!-- Generator: Adobe Illustrator 29.4.0, SVG Export Plug-In . SVG Version: 2.1.0 Build 152)  -->
  <defs>
    <style>
      .st0 {
        fill: #95c11f;
      }

      .st1 {
        fill: #fff;
      }
    </style>
  </defs>
  <path class="st0" d="M81.1,162.1C36.4,162.1,0,125.7,0,81.1S36.4,0,81.1,0s81.1,36.4,81.1,81.1-36.4,81.1-81.1,81.1Z"/>
  <path class="st1" d="M79.1,131.8h-.2c-1.1,0-2.1-.9-2.3-2l-15.6-85.7-11.5,42.2c-.3,1.1-1.3,1.8-2.4,1.8h-19.1c-1.4,0-2.5-1.1-2.5-2.5s1.1-2.5,2.5-2.5h17.2l13.9-50.9c.3-1.1,1.3-1.9,2.5-1.8,1.2,0,2.1.9,2.3,2l15.8,86.8,19-58c.3-1,1.2-1.7,2.3-1.7,1,0,2,.6,2.4,1.5l9.8,23.2h20.9c1.4,0,2.5,1.1,2.5,2.5s-1.1,2.5-2.5,2.5h-22.6c-1,0-1.9-.6-2.3-1.5l-7.9-18.6-20,61c-.3,1-1.3,1.7-2.4,1.7h0Z"/>
</svg>