<?xml version="1.0" encoding="UTF-8"?>
<svg id="Capa_2" data-name="Capa 2" xmlns="http://www.w3.org/2000/svg" viewBox="0 0 162.1 162.1">
  <defs>
    <style>
      .cls-1 {
        fill: #95c11f;
      }
    </style>
  </defs>
  <g id="Capa_1-2" data-name="Capa 1">
    <g>
      <path class="cls-1" d="M79.05,131.78c-.06,0-.11,0-.17,0-1.14-.08-2.08-.92-2.28-2.04l-15.62-85.68-11.52,42.16c-.3,1.08-1.28,1.84-2.41,1.84h-19.08c-1.38,0-2.49-1.12-2.49-2.49s1.11-2.49,2.49-2.49h17.17l13.91-50.9c.31-1.12,1.27-1.94,2.51-1.83,1.16.05,2.14.9,2.35,2.04l15.83,86.8,19-57.96c.32-.99,1.22-1.67,2.26-1.71,1.04-.07,2,.56,2.4,1.52l9.82,23.17h20.9c1.38,0,2.49,1.12,2.49,2.49s-1.11,2.49-2.49,2.49h-22.55c-1,0-1.9-.6-2.3-1.52l-7.87-18.57-19.99,60.97c-.34,1.03-1.3,1.72-2.37,1.72Z"/>
      <path class="cls-1" d="M81.05,162.1C36.36,162.1,0,125.74,0,81.05S36.36,0,81.05,0s81.05,36.36,81.05,81.05-36.36,81.05-81.05,81.05ZM81.05,4.99C39.11,4.99,4.99,39.11,4.99,81.05s34.12,76.06,76.06,76.06,76.06-34.12,76.06-76.06S122.99,4.99,81.05,4.99Z"/>
    </g>
  </g>
</svg>