<?xml version="1.0" encoding="UTF-8" standalone="no"?>
<svg
   id="Capa_2"
   version="1.1"
   viewBox="0 0 148.4 126.8"
   sodipodi:docname="c_f399050e.svg"
   inkscape:version="1.4 (86a8ad7, 2024-10-11)"
   xmlns:inkscape="http://www.inkscape.org/namespaces/inkscape"
   xmlns:sodipodi="http://sodipodi.sourceforge.net/DTD/sodipodi-0.dtd"
   xmlns="http://www.w3.org/2000/svg"
   xmlns:svg="http://www.w3.org/2000/svg">
  <sodipodi:namedview
     id="namedview2"
     pagecolor="#ffffff"
     bordercolor="#000000"
     borderopacity="0.25"
     inkscape:showpageshadow="2"
     inkscape:pageopacity="0.0"
     inkscape:pagecheckerboard="0"
     inkscape:deskcolor="#d1d1d1"
     showguides="true"
     inkscape:zoom="3.2137223"
     inkscape:cx="14.31362"
     inkscape:cy="39.673621"
     inkscape:window-width="1920"
     inkscape:window-height="1017"
     inkscape:window-x="1912"
     inkscape:window-y="-8"
     inkscape:window-maximized="1"
     inkscape:current-layer="Capa_2" />
  <!-- Generator: Adobe Illustrator 29.4.0, SVG Export Plug-In . SVG Version: 2.1.0 Build 152)  -->
  <defs
     id="defs1">
    <style
       id="style1">
      .st0 {
        fill: #95c11f;
      }
    </style>
  </defs>
  <g
     id="Capa_1-2">
    <g
       id="g2">
      <path
         class="st0"
         d="m 74.2,0 c 0.6,0 1.2,0.2 1.7,0.7 1.3,1.2 31.08033,30.000697 31.3,64.6 0.11001,17.327854 -8.7,36.1 -33.1,36.1 -24.4,0 -33,-18.7 -33,-36.1 C 41.1,30.6 71.1,1.9 72.4,0.7 72.9,0.2 73.5,0 74.1,0 Z"
         id="path1"
         sodipodi:nodetypes="scssscss" />
      <path
         class="st0"
         d="M145.9,126.8H2.5c-.8,0-1.5-.4-2-1-.5-.6-.6-1.4-.4-2.2L22.3,45.9c.3-1.1,1.3-1.8,2.4-1.8h10.6c1.4,0,2.5,1.1,2.5,2.5s-1.1,2.5-2.5,2.5h-8.7L5.9,121.8h136.7l-20.8-72.7h-9.7c-1.4,0-2.5-1.1-2.5-2.5s1.1-2.5,2.5-2.5h11.6c1.1,0,2.1.7,2.4,1.8l22.2,77.7c.2.8,0,1.6-.4,2.2-.5.6-1.2,1-2,1h0Z"
         id="path2" />
    </g>
  </g>
</svg>
