<?xml version="1.0" encoding="UTF-8"?>
<svg id="Capa_2" data-name="Capa 2" xmlns="http://www.w3.org/2000/svg" viewBox="0 0 159.1 154.7">
  <defs>
    <style>
      .cls-1 {
        fill: #ea572d;
      }
    </style>
  </defs>
  <g id="Capa_1-2" data-name="Capa 1">
    <g>
      <path class="cls-1" d="M156.61,154.7H2.5c-1.38,0-2.5-1.12-2.5-2.5s1.12-2.5,2.5-2.5h154.11c1.38,0,2.5,1.12,2.5,2.5s-1.12,2.5-2.5,2.5Z"/>
      <path class="cls-1" d="M34.99,145.97H4.16c-1.38,0-2.5-1.12-2.5-2.49v-52.95c0-1.38,1.12-2.5,2.5-2.5h30.82c1.38,0,2.5,1.12,2.5,2.5v52.95c0,1.38-1.12,2.49-2.5,2.49ZM6.66,140.97h25.83v-47.95H6.66v47.95Z"/>
      <path class="cls-1" d="M74.97,145.97h-30.82c-1.38,0-2.5-1.12-2.5-2.49V60.42c0-1.38,1.12-2.5,2.5-2.5h30.82c1.38,0,2.5,1.12,2.5,2.5v83.05c0,1.38-1.12,2.49-2.5,2.49ZM46.64,140.97h25.83V62.92h-25.83v78.05Z"/>
      <path class="cls-1" d="M114.96,145.97h-30.82c-1.38,0-2.5-1.12-2.5-2.49v-69.93c0-1.38,1.12-2.49,2.5-2.49h30.82c1.38,0,2.5,1.12,2.5,2.49v69.93c0,1.38-1.12,2.49-2.5,2.49ZM86.63,140.97h25.83v-64.93h-25.83v64.93Z"/>
      <path class="cls-1" d="M154.94,145.97h-30.82c-1.38,0-2.5-1.12-2.5-2.49V46.22c0-1.38,1.12-2.5,2.5-2.5h30.82c1.38,0,2.5,1.12,2.5,2.5v97.25c0,1.38-1.12,2.49-2.5,2.49ZM126.61,140.97h25.83V48.71h-25.83v92.26Z"/>
      <path class="cls-1" d="M19.57,69.76c-5.74,0-10.41-4.67-10.41-10.41s4.67-10.41,10.41-10.41,10.41,4.67,10.41,10.41-4.67,10.41-10.41,10.41ZM19.57,53.93c-2.99,0-5.42,2.43-5.42,5.42s2.43,5.42,5.42,5.42,5.42-2.43,5.42-5.42-2.43-5.42-5.42-5.42Z"/>
      <path class="cls-1" d="M59.56,41.65c-5.74,0-10.41-4.67-10.41-10.41s4.67-10.41,10.41-10.41,10.41,4.67,10.41,10.41-4.67,10.41-10.41,10.41ZM59.56,25.82c-2.99,0-5.42,2.43-5.42,5.42s2.43,5.42,5.42,5.42,5.42-2.43,5.42-5.42-2.43-5.42-5.42-5.42Z"/>
      <path class="cls-1" d="M99.55,55.65c-5.74,0-10.41-4.67-10.41-10.41s4.67-10.41,10.41-10.41,10.41,4.67,10.41,10.41-4.67,10.41-10.41,10.41ZM99.55,39.82c-2.99,0-5.42,2.43-5.42,5.42s2.43,5.42,5.42,5.42,5.42-2.43,5.42-5.42-2.43-5.42-5.42-5.42Z"/>
      <path class="cls-1" d="M139.53,20.82c-4.66,0-8.92-3.16-10.1-7.89-.67-2.7-.26-5.5,1.17-7.88,1.43-2.38,3.71-4.07,6.4-4.74,5.57-1.39,11.23,2.01,12.62,7.57h0c1.39,5.57-2,11.23-7.57,12.62-.84.21-1.69.31-2.52.31ZM139.53,4.99c-.43,0-.87.05-1.31.16-1.4.35-2.59,1.23-3.33,2.47-.75,1.24-.96,2.7-.61,4.1.73,2.9,3.66,4.67,6.57,3.94,2.9-.72,4.67-3.67,3.94-6.57-.62-2.46-2.83-4.1-5.26-4.1Z"/>
      <path class="cls-1" d="M105.49,42.56c-.7,0-1.39-.29-1.88-.86-.91-1.04-.8-2.62.24-3.52l28.08-24.46c1.04-.9,2.62-.8,3.52.24.91,1.04.8,2.62-.24,3.52l-28.08,24.46c-.47.41-1.06.61-1.64.61Z"/>
      <path class="cls-1" d="M92.08,45.12c-.27,0-.55-.05-.82-.14l-25.06-8.78c-1.3-.46-1.99-1.88-1.53-3.18.45-1.3,1.88-1.98,3.18-1.53l25.06,8.78c1.3.45,1.99,1.88,1.53,3.18-.36,1.03-1.32,1.67-2.35,1.67Z"/>
      <path class="cls-1" d="M26.05,57.3c-.78,0-1.56-.37-2.05-1.06-.79-1.13-.52-2.69.61-3.48l27.05-19.02c1.13-.79,2.68-.52,3.48.61.79,1.13.52,2.68-.61,3.48l-27.04,19.02c-.44.31-.94.45-1.43.45Z"/>
    </g>
  </g>
</svg>