<?xml version="1.0" encoding="UTF-8"?>
<svg id="Capa_1" xmlns="http://www.w3.org/2000/svg" version="1.1" viewBox="0 0 37.5 37.3">
  <!-- Generator: Adobe Illustrator 29.0.1, SVG Export Plug-In . SVG Version: 2.1.0 Build 192)  -->
  <defs>
    <style>
      .st0, .st1 {
        fill: #fff;
        stroke: #1d355e;
        stroke-miterlimit: 10;
      }

      .st1 {
        opacity: .2;
      }
    </style>
  </defs>
  <circle class="st1" cx="18.7" cy="18.7" r="18"/>
  <g>
    <path class="st0" d="M8.8,21.6l7.8-5.1c1.2-.8,3.1-.8,4.2,0l7.8,5.1c1.2.8,1.2,2,0,2.8l-7.8,5.1c-1.2.8-3.1.8-4.2,0l-7.8-5.1c-1.2-.8-1.2-2,0-2.8Z"/>
    <path class="st0" d="M8.8,17.3l7.8-5.1c1.2-.8,3.1-.8,4.2,0l7.8,5.1c1.2.8,1.2,2,0,2.8l-7.8,5.1c-1.2.8-3.1.8-4.2,0l-7.8-5.1c-1.2-.8-1.2-2,0-2.8Z"/>
    <path class="st0" d="M8.8,13l7.8-5.1c1.2-.8,3.1-.8,4.2,0l7.8,5.1c1.2.8,1.2,2,0,2.8l-7.8,5.1c-1.2.8-3.1.8-4.2,0l-7.8-5.1c-1.2-.8-1.2-2,0-2.8Z"/>
  </g>
</svg>