<?xml version="1.0" encoding="UTF-8"?>
<svg id="Capa_1" xmlns="http://www.w3.org/2000/svg" version="1.1" viewBox="0 0 22.9 19.1">
  <!-- Generator: Adobe Illustrator 29.0.1, SVG Export Plug-In . SVG Version: 2.1.0 Build 192)  -->
  <defs>
    <style>
      .st0 {
        fill: #fff;
      }

      .st0, .st1 {
        stroke: #ced4da;
        stroke-miterlimit: 10;
      }

      .st2 {
        fill: #ced4da;
      }

      .st1 {
        fill: none;
      }
    </style>
  </defs>
  <path class="st0" d="M14.7,2.9h.9c1.7,0,3,1.3,3,3v9.6c0,1.7-1.3,3-3,3H3.6c-1.7,0-3-1.3-3-3V5.9c0-1.7,1.3-3,3-3h1.1"/>
  <line class="st1" x1="7.2" y1="2.9" x2="12.1" y2="2.9"/>
  <g>
    <rect class="st2" x="2.8" y="7" width="2.6" height="2.6"/>
    <rect class="st2" x="6.5" y="7" width="2.6" height="2.6"/>
    <rect class="st2" x="10.1" y="7" width="2.6" height="2.6"/>
    <rect class="st2" x="13.8" y="7" width="2.6" height="2.6"/>
  </g>
  <g>
    <rect class="st2" x="2.8" y="10.6" width="2.6" height="2.6"/>
    <rect class="st2" x="6.5" y="10.6" width="2.6" height="2.6"/>
    <rect class="st2" x="10.1" y="10.6" width="2.6" height="2.6"/>
    <rect class="st2" x="13.8" y="10.6" width="2.6" height="2.6"/>
  </g>
  <g>
    <rect class="st2" x="2.8" y="14.2" width="2.6" height="2.6"/>
    <rect class="st2" x="6.5" y="14.2" width="2.6" height="2.6"/>
    <rect class="st2" x="10.1" y="14.2" width="2.6" height="2.6"/>
    <rect class="st2" x="13.8" y="14.2" width="2.6" height="2.6"/>
  </g>
  <path class="st2" d="M6,.3h0c.5,0,.8.4.8.9v2.7c0,.5-.4.9-.8.9h0c-.5,0-.8-.4-.8-.9V1.2c0-.5.4-.9.8-.9Z"/>
  <path class="st2" d="M13.4.3h0c.5,0,.9.4.9.9v2.7c0,.5-.4.9-.9.9h0c-.5,0-.9-.4-.9-.9V1.2c0-.5.4-.9.9-.9Z"/>
</svg>